<?xml version="1.0" encoding="utf-8"?>
<!-- Generator: Adobe Illustrator 28.0.0, SVG Export Plug-In . SVG Version: 6.00 Build 0)  -->
<svg version="1.1" id="Layer_1" xmlns="http://www.w3.org/2000/svg" xmlns:xlink="http://www.w3.org/1999/xlink" x="0px" y="0px"
	 viewBox="0 0 900 900" style="enable-background:new 0 0 900 900;" xml:space="preserve">
<style type="text/css">
	.st0{fill:none;stroke:#000000;stroke-width:7;stroke-miterlimit:10;}
	.st1{stroke:#000000;stroke-width:7;stroke-miterlimit:10;}
</style>
<path class="st0" d="M336.18,0c0,0,68.54,44.21,115.8,46.17S544.15,44.1,567.79,0"/>
<g>
	<g>
		<g>
			<g>
				<path d="M601.24,74.03c29.23-0.46,60.43,1.07,93.64,1.75c16.61,0.32,33.34,1.11,50.08,2.51c8.37,0.72,16.74,1.57,25.09,2.71
					c8.36,1.08,16.7,2.48,24.99,4.19c2.09,0.46,4.18,0.85,6.24,1.35c2.06,0.5,4.11,0.99,6.16,1.49c4.09,1.15,8.2,2.24,12.15,3.76
					c7.95,2.87,15.58,6.51,22.83,11.03c7.04,4.37,13.76,10.37,19.67,16.86c5.93,6.5,11.04,13.5,15.67,19.89
					c0.82,1.14,2.32,4.07,3.46,6.2c4.81,9.37,8.7,19.26,11.39,29.48c1.37,5.11,2.48,10.29,3.25,15.54
					c0.78,5.25,1.28,10.56,1.35,15.95c0.04,5.41-0.23,10.83-1.7,16.7c-0.14,0.71-0.46,1.52-0.71,2.28l-0.2,0.57l-0.1,0.29
					l-0.05,0.14l-0.03,0.07c-1.08-0.42,2.39,0.99-2.42-0.93l0.28,0.13l1.12,0.49l1,0.41l-0.01,0.06c-0.01,0.04-0.01,0.08-0.03,0.12
					l-0.05,0.13l-0.06,0.37l-0.13,0.74c-0.1,0.46-0.17,1.05-0.24,1.62l-0.22,1.72l-0.18,1.79c-0.13,1.18-0.23,2.4-0.33,3.62
					c-0.8,9.74-1.31,19.62-1.88,29.32c-1.29,22.63-1.82,45.19-2.23,67.68c-0.35,22.51-0.7,44.95-1.04,67.43
					c0.99,73.34-0.61,147.49-0.47,221.23c0.04,23.05,0.36,46.24-0.72,69.88c-0.92,20.21,0.72,44.84-0.86,65.92
					c-0.13,1.73,0.23,5.89,0.31,9.01c0.12,3.65,0.24,7.42,0.36,11.13c0.04,1.86,0.09,3.7,0.13,5.51c0.03,1.68,0.03,4.15,0,3.98
					c0.01,0.03,0.03,0.06,0.04,0.09c1.02,2.11,1.98,4.08,2.89,5.94c1.02,2.14,1.95,4.16,2.81,6.07c1.71,3.82,3.14,7.2,4.38,10.28
					c2.46,6.17,4.18,11.09,5.59,15.99c0.69,2.46,1.3,4.91,1.74,7.63c0.12,0.67,0.21,1.37,0.28,2.1c0.09,0.71,0.13,1.47,0.17,2.26
					c0.06,0.76-0.01,1.64-0.03,2.48c-0.04,0.45-0.11,0.92-0.17,1.38c-0.03,0.22-0.06,0.5-0.1,0.67l-0.1,0.55
					c-0.28,1.46-0.61,3.01-1.07,4.68c-0.24,0.84-0.49,1.7-0.82,2.62c-0.15,0.45-0.35,0.93-0.54,1.41c-0.27,0.61-0.57,1.27-0.94,1.9
					c-1.38,2.56-3.62,4.94-6.79,5.73c-1.56,0.4-3.26,0.37-4.95-0.03c-0.85-0.21-1.69-0.51-2.53-0.9c-0.41-0.2-0.84-0.38-1.25-0.62
					c-0.41-0.22-0.86-0.49-1.12-0.65c-1.17-0.73-2.17-1.51-3.15-2.38c-1.25-1.12-2.24-2.37-3.06-3.57c-1.6-2.42-2.76-4.85-3.91-7.14
					c-2.5-5.03-4.42-10.1-6.21-15.2c-1.77-5.12-3.35-10.19-4.79-15.45l8.71-1.89c1.42,9.07,2.5,17.96,3.03,27.1
					c0.12,2.2,0.18,4.43,0.15,6.7c-0.01,1.14-0.05,2.28-0.11,3.44c-0.03,0.58-0.07,1.16-0.12,1.75l-0.09,1.01
					c-0.04,0.46-0.1,0.89-0.16,1.33c-0.44,3.54-1.39,6.96-3.12,9.3c-0.85,1.19-1.89,2.18-3.23,2.83c-1.33,0.68-2.94,0.82-4.37,0.58
					c-3.01-0.55-5.54-2.5-7.69-5.27c-1.07-1.38-2.01-2.96-2.86-4.58l-0.31-0.58l-0.21-0.42l-0.4-0.82l-0.76-1.64
					c-1.95-4.35-3.51-8.61-5.05-12.73c-1.34-3.51-2.86-11.13-3.94-16.88c-0.54-2.8-1.03-5.54-1.48-8.43l10.51-1.46
					c0.94,7.99,1.56,15.83,1.79,23.88c0.1,4.02,0.1,8.06-0.19,12.22c-0.08,1.04-0.17,2.09-0.29,3.16l-0.12,0.91l-0.2,1.26
					c-0.13,0.84-0.31,1.68-0.5,2.49c-0.76,3.3-2.14,6.16-4.18,8.02c-0.69,0.64-1.49,1.12-2.37,1.54c-0.23,0.08-0.45,0.19-0.69,0.24
					c-0.24,0.07-0.46,0.17-0.71,0.2c-0.48,0.09-0.97,0.16-1.45,0.16c-1.92,0.02-3.69-0.61-5.4-1.67c-1.71-1.08-3.32-2.63-4.78-4.41
					c-0.72-0.89-1.42-1.84-2.06-2.77c-0.42-0.62-0.81-1.22-1.19-1.83c-3.02-4.88-5.36-9.84-7.52-14.87
					c-2.13-5.04-4.04-10.13-5.66-15.42c-0.8-2.67-1.54-5.34-2.04-8.43l-0.08-0.6l-0.03-0.19l-0.02-0.09
					c-0.03-0.15-0.04-0.15-0.05-0.22c-0.03-0.11-0.05-0.2-0.07-0.29c-0.04-0.17-0.12-0.31-0.21-0.39c-0.3-0.22-0.23-0.76-0.34-2.11
					c-0.06-0.65-0.16-1.45-0.31-2.19c-0.1-0.08-0.21,0.12-0.31,0.41c-0.07,0.21-0.11,0.39-0.15,0.61c-0.29,1.85-0.42,2.79-0.56,3.5
					l-0.05,0.25l-0.03,0.13l-0.07,0.22l-0.54,1.51l-0.63,1.71c-0.85,2.29-1.76,4.58-2.77,6.9l-0.89,2c-0.45,1.01-0.92,2-1.4,2.98
					c-0.97,1.95-1.99,3.81-3.09,5.43c-1.09,1.63-2.26,2.95-3.44,3.86c-1.18,0.93-2.33,1.48-3.59,1.8c-0.63,0.16-1.35,0.23-2.17,0.16
					c-0.4-0.06-0.8-0.15-1.12-0.28c-0.33-0.12-0.6-0.28-0.9-0.42c-0.55-0.34-1.08-0.67-1.57-1.16c-0.51-0.39-0.96-1.03-1.41-1.62
					c-1.85-2.4-3.15-6.4-4.2-10.35c-0.24-0.86-0.47-1.73-0.68-2.62l-0.46-1.96l-0.7-3.13c-0.47-2.08-0.89-4.17-1.3-6.26
					c-0.8-4.18-1.45-8.41-1.8-12.72c-0.42-5.35-0.58-10.83-0.19-16.53c0.22-2.86,0.55-5.76,1.32-8.86c0.37-1.54,0.92-3.18,1.73-4.91
					c0.24-0.45,0.49-0.9,0.74-1.35l0.19-0.33l0.26-0.36c0.09-0.12,0.18-0.25,0.26-0.33l0.05-0.05c0.07-0.07,0.11-0.16,0.14-0.25
					l0.02-0.09c0.03-0.1,0.06-0.19,0.08-0.32c0.05-0.26,0.11-0.48,0.17-0.76c0.11-0.54,0.21-1.12,0.3-1.7
					c0.18-1.19,0.35-2.4,0.5-3.64c0.29-2.47,0.53-4.96,0.72-7.44c0.39-4.96,0.62-9.83,0.73-14.52c0.43-20.17,1.18-39.51,1.48-59.28
					c0.3-20.59,0.64-41.33,0.38-61.86c-0.21-16.01,0.25-30.32,0.28-45.36c0.04-15-1.51-31.76-0.5-45.37
					c0.04-0.6-0.09-2.23-0.12-3.37c-0.96-31.14-2.33-62.26-4.99-93.32c-2.32-26.81-5.34-53.58-9.78-80.05
					c-2.23-13.23-4.83-26.38-8.1-39.32c-3.3-12.89-7.17-25.7-12.72-37.47c-1.25-2.62-2.61-5.22-4.13-7.67
					c-0.76-1.22-1.54-2.43-2.37-3.59l-0.3-0.43c-0.08-0.12-0.09-0.13-0.14-0.19l-0.25-0.32c-0.16-0.22-0.34-0.42-0.51-0.62
					c-0.26-0.31-0.53-0.61-0.82-0.9c-0.29-0.28-0.75-0.44-1.12-0.22c-0.69,0.44-1,1.23-1.35,1.95l-0.24,0.57l-0.12,0.3l-0.03,0.09
					l-0.06,0.19l-0.12,0.37c-0.32,1.01-0.63,2.02-0.93,3.05c-0.6,2.05-1.15,4.12-1.71,6.16c-0.79,2.81-1.34,9.24-1.99,13.11
					c-1.24,7.3-1.44,13.98-1.61,20.57c-0.17,6.59-0.29,13.1-1.26,20.19c-1.74,12.68-1.78,26.22-2.33,39.33
					c-0.62,14.84-0.84,29.83-1.16,44.72c-0.22,10.28-0.11,19.61,0.51,28.15c-1.5,11.3-0.49,27.52-1.17,40.8
					c-0.44,8.76-0.87,22.32-0.38,28.73c1.08,14.25,0.57,28.44,0.69,42.56c0.18,20.99-0.28,42.13,0.76,62.9
					c0.44,8.78,0.18,20.53,0.04,30.74c-0.13,9.53-0.69,18.73-0.75,28.22c-0.11,17.66-0.05,35.02,0.71,52.51
					c0.66,15.18-0.66,33.74,0.86,48.84c0.1,1,0.13,2.74,0.12,4.63c-0.01,0.94-0.03,1.92-0.04,2.86c-0.03,1.05-0.05,2.05-0.08,2.92
					c-0.08,3.9-0.16,7.75-0.24,11.5c-14.39-0.4-18.42-0.6-26.05-0.7c-7.07-0.09-14.38-0.03-22.35,0.24
					c-14.93,0.52-34.01-0.26-51.25-0.47c-18.39-0.22-37.24-0.15-55-0.75c-11.41-0.39-17.13,1.55-30.62,0.13
					c-7.26-0.76-21.61-0.59-32.79-0.77c-11.48-0.18-23.52-0.02-34.38-0.46c-57.34-2.3-115.51-1.64-173.03-2.85
					c-24.33-0.51-49.9,0.41-73.01-1.64c-3.45,0.23-7.07,0.35-10.77,0.41c-0.93,0.01-1.86,0.02-2.8,0.03c-1.18,0-2.38,0-3.57,0
					c-3.08-0.02-6.18-0.04-9.29-0.06c0-7.1-0.01-14.27-0.01-21.21c-0.02-5.52-0.11-10.87-0.38-15.79
					c-0.57-10.44-0.51-19.59-0.52-29.16c-0.02-63.21-0.04-126.44-0.06-189.63c-0.04-20.8-0.19-41.58-0.34-62.37l-0.23-31.18
					l-0.05-7.8c-0.02-0.72,0.04,0.02-0.11-0.99l-0.32-1.92l-0.64-3.84l-2.58-15.37c-1.94-11.52-3.96-22.76-5.26-35.4
					c-0.95-9.29-3.74-26.04-6.9-38.08c-0.61-2.34-1.64-7.2-1.81-9.03c-1.09-11.8-3.18-23.37-5.57-34.82
					c-1.2-5.72-2.47-11.42-3.73-17.09c-0.63-2.83-1.26-5.67-1.89-8.49l-0.23-1.06l-0.1-0.46l-0.02-0.06l-0.08-0.23
					c-0.05-0.15-0.09-0.29-0.13-0.43c-0.23-0.88-0.34-1.77-0.71-2.98c-0.02-0.07-0.1-0.17-0.13-0.09l0,0.14l-0.01,0.28
					c-0.01,0.19,0,0.4-0.03,0.61l-0.44,1.46l-0.27,0.91l-0.07,0.25l-0.02,0.06l-0.08,0.33l-0.18,0.8l-0.71,3.22l-2.86,12.87
					c-1.89,8.58-3.77,17.17-5.66,25.76l-0.14,0.53l-0.68,2.94l-0.64,3.48c-0.44,2.3-0.78,4.74-1.17,7.11
					c-0.75,4.78-1.42,9.62-2.08,14.47c-1.28,9.51-3.3,20.61-2.96,28.15c-2.01,7.2-2.19,12.83-2.82,21.94
					c-0.66,9.41-2.48,24.82-4.07,32.97c-2.18,11.09-3.1,21.43-4.46,32.11c-1.44,11.34-2.66,22.83-4.04,34.22
					c-5.78,48.13-11.56,96.26-17.33,144.34c-1.13,9.43-2.64,18.56-3.92,27.94c-1.28,9.43-1.82,19.72-3.92,28.62
					c-0.78,3.32-1.56,13.03-2.32,19.83c-2.67,23.99-6.22,49.86-7.71,71.43c-0.18,2.35-0.36,4.72-0.54,7.15l0.39,0.94l0.65,1.69
					c0.42,1.13,0.84,2.26,1.26,3.4c0.83,2.27,1.62,4.56,2.39,6.86c1.53,4.6,2.96,9.25,4.26,13.9c1.29,4.67,2.47,9.32,3.32,14.1
					c0.21,1.26,0.38,2.19,0.56,4.11c0.17,1.76,0.2,3.52,0.02,5.18c-0.18,1.67-0.59,3.2-1.29,4.53c-0.66,1.34-1.76,2.51-3.17,3.2
					c-0.88,0.46-1.94,0.58-3.08,0.65c-1.16-0.05-2.41-0.16-3.73-0.62c-0.33-0.11-0.66-0.23-1-0.34c-0.33-0.13-0.67-0.32-1-0.48
					c-0.34-0.17-0.68-0.33-1.02-0.52c-0.33-0.22-0.67-0.44-1.01-0.66c-0.69-0.41-1.34-0.96-1.99-1.51
					c-0.33-0.27-0.67-0.54-0.98-0.84l-0.9-0.89c-3.41-3.49-6.04-7.53-8.3-11.04c-0.43-0.68-0.86-1.36-1.26-2.05l-1.03-1.74
					c-0.27-0.46-0.53-0.93-0.78-1.39c-0.49-0.94-0.95-1.89-1.38-2.9c-0.03-0.04-0.06-0.18-0.08-0.15l-0.08,0.19l-0.16,0.39
					l-0.33,0.78l-0.68,1.56l-2.48,5.59c-2.71,6.09-5.51,12.14-8.44,18.13c-2.94,5.99-5.94,11.93-9.43,17.77
					c-0.44,0.73-0.88,1.46-1.35,2.19l-0.35,0.55L61.75,869c-0.35,0.52-0.71,1.05-1.13,1.6c-1.59,2.17-3.36,4.23-5.26,5.63
					c-0.95,0.71-1.92,1.23-2.9,1.63c-0.25,0.09-0.5,0.19-0.75,0.26l-0.77,0.17c-0.52,0.12-1.06,0.18-1.61,0.16
					c-2.28,0.01-4.53-1.12-5.95-2.64c-1.05-1.32-1.73-2.98-2.19-4.86c-0.27-0.9-0.35-1.97-0.5-2.97c-0.03-1.08-0.15-2.12-0.08-3.23
					c0.02-0.55,0.03-1.09,0.05-1.64l0.13-1.57l0.06-0.79l0.07-0.54l0.14-1.07c0.2-1.42,0.42-2.84,0.68-4.25
					c1.02-5.67,2.31-11.22,3.91-16.88l8.46,2.96c-0.86,2.11-1.71,3.97-2.65,5.88c-2.25,4.52-5.08,9.19-8.55,13.45
					c-1.73,2.13-3.66,4.16-5.91,5.96c-0.6,0.43-1.15,0.88-1.8,1.27c-0.33,0.2-0.61,0.4-0.97,0.59c-0.38,0.19-0.76,0.38-1.14,0.57
					c-1.6,0.72-3.39,1.26-5.08,1.38c-0.2,0.02-0.47,0.04-0.78,0.05c-0.32-0.02-0.69-0.05-1.09-0.09c-0.41-0.04-0.86-0.11-1.31-0.24
					c-0.46-0.13-0.95-0.25-1.42-0.47c-0.48-0.21-0.97-0.42-1.41-0.73l-0.67-0.45c-0.21-0.17-0.41-0.35-0.6-0.52
					c-0.41-0.34-0.74-0.73-1.06-1.11c-0.33-0.36-0.59-0.76-0.82-1.13c-0.43-0.63-0.72-1.35-1.03-2.04
					c-0.22-0.74-0.51-1.45-0.65-2.21c-0.08-0.38-0.15-0.75-0.22-1.13l-0.11-0.97c-0.03-0.32-0.07-0.66-0.07-0.92l-0.01-0.37
					l0.01-0.1c0.04-0.47,0.14-0.99,0.27-1.56c0.27-1.13,0.67-2.47,1.16-3.91l0.23-0.67l0.06-0.17c0.02-0.06,0.05-0.13,0-0.07
					l-0.19,0.17c-0.27,0.26-0.55,0.52-0.83,0.78c-0.63,0.6-1.28,1.23-1.96,1.87c-0.37,0.35-0.73,0.7-1.09,1.04l-0.51,0.48
					l-0.25,0.23l-0.14,0.12l-0.04,0.03l-0.1,0.08l-0.21,0.16c-1.11,0.85-2.27,1.67-3.59,2.45c-1.35,0.76-2.74,1.56-5,2.03
					c-1.14,0.19-2.62,0.37-4.51-0.31c-0.92-0.32-1.84-0.91-2.57-1.61c-0.7-0.69-1.25-1.48-1.58-2.17c-0.7-1.43-0.9-2.6-1.03-3.63
					c-0.07-0.53-0.08-0.99-0.1-1.48c0.01-0.43,0.02-0.86,0.02-1.29c0.15-3.38,0.77-6.25,1.54-9.32c1.38-5.28,3.05-10.29,4.83-15.24
					c1.77-4.95,3.68-9.8,5.63-14.62c1.96-4.82,3.98-9.59,6.05-14.35l3.14-7.11l3.12-6.88l1.27-3.65l1.32-3.88l2.57-7.79
					c1.68-5.21,3.29-10.44,4.82-15.69c1.51-5.26,2.93-10.54,4.15-15.84c0.62-2.65,1.17-5.3,1.62-7.93c0.52-2.76,0.64-4.86,0.72-7.72
					c0.73-5.73,1.04-12.05,1.2-18.53c0.17-6.48,0.17-13.16,0.22-19.79c0.15-23.47-1.12-45.49-0.92-69.57
					c0.19-22.75,0.39-47.1-0.39-68.64c-1.34-37.23-0.88-74.21-1.29-111.2c-0.11-9.49-0.59-20.21,0.55-28.82
					c0.27-2.05,0.1-12.44-0.26-15.3c-0.77-6.07-0.32-13.17-0.61-19.03c-0.81-16.75,2.18-33.07,0.03-49.58
					c0.05-9.21,0.09-18.41,0.23-27.64c0.14-9.25,0.48-18.58,1.14-27.86c1.33-18.56,3.8-37.11,7.91-55.33
					c1.93-8.5,3.85-16.8,7.36-25.2c2.2-5.67,7.41-19.08,9.61-24.72c4.85-13.55,12.91-26.37,22.52-37.53
					c3.65-4.2,7.57-8.19,11.85-11.84c2.19-1.77,4.36-3.56,6.71-5.15l1.73-1.22l1.8-1.13c1.23-0.74,2.34-1.52,3.71-2.22
					c1.32-0.75,2.65-1.33,3.97-1.96c1.33-0.54,2.66-1.14,3.98-1.6c2.66-1.01,5.32-1.82,7.98-2.6c5.32-1.52,10.65-2.69,15.98-3.73
					c10.66-2.05,21.32-3.45,31.98-4.64c10.66-1.16,21.31-2.06,31.96-2.8c18.67-1.3,37.26-1.75,55.88-2.27
					c18.87-0.53,38.41-1.99,56.78-1.69c1.3,0.02,3.24-0.11,4.81-0.21c7.42-0.5,14.9-1.24,22.11-1.68c4.7-0.29,10.17-0.47,15.01-0.89
					c2.41-0.22,4.68-0.51,6.47-0.92c0.47-0.09,0.84-0.22,1.21-0.33c0.42-0.11,0.61-0.25,0.8-0.3c0.17-0.12,0.36-0.2,0.47-0.34
					c0.05-0.07,0.11-0.13,0.16-0.19c0.07-0.07,0.14-0.15,0.2-0.22c0.98-1.27,1.64-3.14,2.15-4.98c0.5-1.87,0.8-3.8,1.08-5.66
					c0.48-3.78,0.71-7.44,0.54-11.39c-0.27-5.68-0.77-10.88-1.19-15.43c-0.43-4.55-0.8-8.45-0.98-11.57
					c-0.38-6.24,0.01-9.42,1.65-8.43c0.72,0.45,2.01,3.01,3.17,6.23c1.82,5.08,3.05,8.97,4.01,12.47c0.95,3.5,1.63,6.59,2.17,10.15
					c0.52,3.57,0.95,7.58,0.97,13.1c-0.03,2.77-0.13,5.9-0.76,9.69c-0.09,0.47-0.17,0.96-0.26,1.45c-0.12,0.5-0.25,1.01-0.37,1.53
					c-0.22,1.02-0.64,2.15-1.02,3.27c-0.94,2.29-2.2,4.91-5.01,7.39l-0.74,0.63c-0.25,0.19-0.53,0.33-0.8,0.51
					c-0.54,0.33-1.08,0.65-1.67,0.87c-0.57,0.24-1.05,0.43-1.46,0.55l-1.28,0.39c-1.58,0.41-3.07,0.72-4.51,0.96
					c-2.87,0.49-5.64,0.82-8.38,1.08c-5.48,0.54-10.87,0.86-16.25,1.14c-10.74,0.53-21.4,0.79-32.05,1.06
					c-21.29,0.51-42.55,0.97-64.03,2.31c-14.04-0.07-28.47,0.62-42.93,1.75c-14.46,1.14-28.97,2.68-43.14,4.57
					c-7.37,0.98-14.73,2.09-21.98,3.58c-7.21,1.5-14.43,3.31-20.81,6.23c-0.82,0.34-1.54,0.78-2.31,1.16
					c-0.77,0.42-1.54,0.92-2.31,1.37c-0.76,0.48-1.56,0.9-2.29,1.42l-2.22,1.54l-1.11,0.77l-1.07,0.83l-2.12,1.67
					c-1.41,1.12-2.72,2.37-4.08,3.55c-5.27,4.92-9.89,10.5-13.88,16.42C75.2,147.51,69,160.34,63.96,173.6
					c-2.52,6.63-4.77,13.37-6.75,20.2c-1.96,6.84-3.67,13.76-5.18,20.74c-4.46,21.28-7.43,42.91-8.42,64.81
					c-0.49,11.33-0.45,22.94-0.5,34.44c-0.03,11.51-0.04,22.98-0.23,34.23c-0.23,13.94-1.15,28.68-0.54,41.85
					c1.35,28.85,0.44,58.6,1.25,86.88c1.13,39.31,0.78,78.96,1.53,117.79c0.4,20.96,0.84,41.74,0.8,62.83
					c-0.02,9.62,0,18.74-0.63,29.08c-0.33,5.27-0.53,11.75-0.6,18.56c-0.06,3.42-0.03,6.89-0.04,10.37c0,1.75,0.01,3.49,0.01,5.21
					c0,0.87,0,1.74,0,2.6c-0.01,0.9-0.07,1.89-0.11,2.82c-0.4,5.87-2.37,14.82-3.84,19.32c-2.18,6.62-4.35,13.32-6.51,20.09
					c-1.08,3.38-2.16,6.78-3.24,10.18c-1.12,3.47-2.24,6.94-3.36,10.41l-1.79,4.14l-1.68,3.96c-1.1,2.65-2.21,5.29-3.3,7.91
					c-2.39,5.76-5.11,11.8-7.45,17.3c-2.33,5.5-4.28,10.48-5.2,14.07c-0.78,3.02-1.54,5.95-2.22,8.8c-0.67,2.83-1.27,5.66-1.5,8.11
					c-0.02,0.55-0.07,1.17-0.04,1.58l0.03,0.28c0.01,0.07,0.03,0.14,0.03,0.21c0.01,0.03,0.02,0.08,0.02,0.1
					c0.21-0.1-0.55,0.22-0.72,0.29c-0.14,0.06-0.29,0.14-0.43,0.23c-0.1,0.05-0.2,0.11-0.29,0.18l-0.21,0.16
					c-0.05,0.03-0.13,0.13-0.13,0.13c-0.14,0.17,0.01,0.04,0.09-0.3c0.03-0.11,0.03-0.16,0.06-0.3c0.03-0.14,0.05-0.27,0.05-0.4
					c0.05-0.32,0.02-0.7,0.02-1.02c-0.01,0.01,0.11-0.01,0.25-0.04c0.63-0.15,1.75-0.68,2.8-1.32c1.17-0.73,1.79-1.12,4.05-2.9
					c2.08-1.69,4.18-3.59,6.36-5.73c2.17-2.11,4.5-4.63,6.85-7.09c2.33-2.44,4.65-4.88,6.94-7.28c1.07-1.1,2.12-2.19,3.17-3.27
					l0.09-0.09c0.02-0.01,0.03-0.02,0.04-0.02l0.08-0.05l0.18-0.1l0.4-0.25l0.48-0.32l0.56-0.39c-1.79,5.05-3.63,10.16-5.26,14.57
					c-0.49,1.31-1.21,3.43-1.95,5.75c-0.38,1.19-0.75,2.38-1.11,3.62c-0.3,1.16-0.62,2.36-0.82,3.46c-0.44,2.23-0.69,4.3-0.68,6.04
					c-0.01,0.42,0.03,0.91,0.05,1.19c0.02,0.22,0.04,0.42,0.08,0.56c0.06,0.31,0.11,0.57,0.17,0.68c0.31,0.75,0.74,1.41,1.4,1.76
					c0.66,0.35,1.45,0.29,2.1,0.09c0.17-0.04,0.32-0.12,0.48-0.18c0.15-0.06,0.39-0.19,0.57-0.29c0.52-0.31,1.07-0.65,1.63-1.09
					c1.11-0.86,2.23-1.97,3.3-3.2c2.15-2.47,4.13-5.4,5.93-8.45c0.9-1.53,1.75-3.1,2.55-4.69c0.79-1.57,1.57-3.25,2.19-4.75
					l8.35,2.93c-0.14,0.5-0.28,0.99-0.42,1.47c-1.17,4.26-2.18,8.6-2.92,12.9c-0.37,2.15-0.67,4.29-0.84,6.38l-0.06,0.83l-0.01,0.62
					c0,0.41,0.01,0.82,0.07,1.22c0.06,0.4,0.14,0.81,0.32,1.18c0.17,0.36,0.48,0.69,0.88,0.79c0.4,0.12,0.83,0,1.16-0.23
					c0.34-0.23,0.64-0.51,0.92-0.81c0.28-0.3,0.53-0.62,0.78-0.94l0.38-0.52l0.67-0.98c1.19-1.78,2.32-3.67,3.43-5.58
					c4.4-7.68,8.31-15.85,12.07-24.06l2.77-6.19l1.36-3.11l1.89-4.4c1.46-3.44,2.89-6.91,4.3-10.46l2.12-5.32l1.06-2.66
					c0.35-0.83,0.7-1.96,1.04-2.25l0.62,1.48c1.36,3.15,2.71,6.29,4.06,9.42c1.35,3.11,2.72,5.95,4.18,8.7l1.11,2.04l0.57,1.02
					l0.37,0.64c0.46,0.78,0.92,1.55,1.4,2.3c0.95,1.52,1.94,2.99,2.98,4.39c1.04,1.4,2.11,2.75,3.23,3.96l0.85,0.88
					c0.27,0.29,0.64,0.61,0.66,0.63c0.22,0.19,0.46,0.37,0.7,0.52c0.48,0.3,0.99,0.54,1.52,0.56c0.26,0.01,0.54-0.02,0.75-0.21
					c0.2-0.19,0.3-0.46,0.35-0.73c0.1-0.54,0.06-1.07,0-1.57l-0.19-1.38c-0.12-0.84-0.26-1.69-0.42-2.55
					c-0.63-3.43-1.5-6.95-2.46-10.47c-1.92-7.05-4.19-14.16-6.55-21.33c-0.47-1.08-0.95-2.17-1.43-3.28
					c-0.24-0.55-0.48-1.11-0.72-1.67c-0.4-0.98-0.81-1.97-1.22-2.97c0.08-0.94,0.16-1.88,0.24-2.82l0.12-1.66
					c0.08-1.05,0.16-2.1,0.24-3.15c0.18-2.11,0.37-4.23,0.55-6.37c0.4-4.27,0.86-8.59,1.35-12.93c1.01-8.67,2.02-17.43,3.02-26
					c1.68-15.06,3.83-30.04,5.77-45.06c1.95-15.02,3.34-29.72,5.73-45.56c2.96-19.53,4.92-42.94,7.51-64.56
					c1.41-11.77,2.15-25,4.67-35.47c0.34-1.41,0.94-6.87,0.99-8.9c0.39-15.65,3.04-35.14,5.18-48.85
					c3.49-22.41,5.66-44.12,8.44-66.05c2.31-18.19,4.37-36.56,6.81-54.75c1.76-13.06,3.11-25.89,5.7-39.53
					c0.5-2.71,1.02-5.67,1.48-8.78c0.54-3.15,0.93-6.31,1.83-10.05l-0.08,0.32c1.13-6.07,2.24-12.35,3.44-18.28
					c1.28-6.17,2.56-12.35,3.85-18.55l2.3-10.79l1.51-7l0.75-3.5c0.06-0.3,0.14-0.55,0.17-0.91l0.07-0.5l0.03-0.26l0.01-0.35
					l0.08-2.84l0.09-3.09l0.22-1.09l0.11-0.55l0.05-0.27l0.07-0.19c0.39-1.09,0.78-1.73,1.18-2.48c0.42-0.81,0.73-1.3,1.08-1.9
					l0.52-0.88l0.26-0.44c0.1-0.16,0.05-0.22,0.09-0.33l0.64-4.92c0.01-0.05,0.01-0.1,0.02-0.15c0.06-0.05,0.1-0.1,0.19-0.14
					c0.17-0.11,0.46-0.06,0.6,0.02c0.31,0.15,0.5,0.34,0.7,0.53c0.38,0.39,0.69,0.8,1.01,1.25c0.31,0.43,0.61,0.94,0.91,1.41
					c0.3,0.46,0.6,0.96,0.91,1.49c0.61,1.11,1.26,2.29,1.91,3.87c0.66,1.56,1.3,3.65,1.89,5.95c1.21,4.6,2.32,9.74,3.39,14.83
					l1.53,7.46l1.01,5.09c1.33,6.78,2.61,13.57,3.87,20.36c2.73,14.71,5.45,29.48,7.87,44.15c2.29,13.91,4.06,27.67,6.33,41.54
					c1.59,9.73,3.26,19.4,4.96,29.05c0.85,4.82,1.71,9.64,2.56,14.46l1.28,7.23l0.64,3.61l0.18,1.05c0.05,0.22,0.07,0.45,0.06,0.67
					l0.01,0.62l0.03,1.83c0.29,19.57,0.52,39.17,0.25,59.01c1,10.74,0.28,21.12,0.09,32.32c-0.18,10.31-0.6,22.39,0.43,32.68
					c0.29,2.86,0.23,8.33,0.3,12.63c0.16,9.58-0.82,17.85-0.1,29.21c0.51,8.01,0.01,20.3,0.12,30.56
					c0.11,10.78-0.61,23.01,0.67,32.08c-1.9,18.95,1.01,37.04,0.14,55.96c-0.27,5.95-0.38,12.46-0.56,18.72
					c-0.09,3.13-0.34,6.66-0.24,9.35c0.22,6.41,0.39,12.83,0.52,19.27c0.05,3.22,0.11,6.44,0.16,9.67l0.03,2.42l0.01,0.42l0.01,0.15
					l0.01,0.3l0.05,1.18l1.88-0.03l7.1,0.05c4.73,0.05,9.47,0.1,14.21,0.16c9.48,0.14,18.97,0.29,28.47,0.43
					c18.98,0.31,37.96,0.61,56.84,0.66c6.25,0.01,12.25-0.29,18.47-0.39c2.98-0.05,6.34-0.05,9.29,0.06
					c27.77,1.02,27.69,1,53.63,0.6c6.52-0.1,13.61,0.13,20.38,0.14c17.51,0.01,34.61,0.54,52.76-0.04
					c18.16-0.58,37.87,1.08,56.71,1.92c16.77,0.75,33.21,1.56,51.49,1.72c22.97,0.24,45.95,0.49,68.94,0.73
					c21.72,0.27,43.44,0.54,65.16,0.8c0.13,0,0.26,0,0.41,0.01c0.02-0.5,0.03-1.04,0.05-1.58c0.01-0.28,0.02-0.56,0.03-0.83
					c0.01-0.65,0.02-1.29,0.02-1.92c0.02-2.86,0-5.41-0.16-6.9c-1.4-13.19-2.34-24.87,0.03-37.44c0.11-0.6,0.11-5.37-0.03-6.42
					c-1.49-11.3-0.76-26.05-0.72-38.76c0.17-48.73-1.47-96.59-0.88-145.43c0.1-7.85-0.28-18.53,0.21-23.13
					c1.02-9.8-0.63-14.54-0.26-23.06c0.3-7.11-0.29-17.67,0.13-23.63c0.76-10.81,1.01-22.21,1.04-33.52
					c0.06-11.3-0.06-22.43-0.14-32.64c-0.16-19.08-0.17-38.81,1.03-55.97c1.18-16.9,2.19-33.75,3.61-50.61
					c0.72-8.43,1.54-16.86,2.7-25.33c0.59-4.24,1.27-8.48,2.17-12.78c0.23-1.07,0.47-2.15,0.74-3.24l0.42-1.63l0.23-0.82l0.29-1.01
					c0.55-1.76,1.16-3.5,1.92-5.1c0.76-1.59,1.68-3,2.73-4.12c0.85-0.89,1.77-1.61,2.84-2.12c1.06-0.51,2.37-0.78,3.58-0.66
					c0.59,0.06,1.16,0.18,1.69,0.37c0.27,0.08,0.53,0.19,0.78,0.31c0.26,0.09,0.51,0.26,0.76,0.45l1.53,1.05
					c0.25,0.19,0.51,0.33,0.76,0.55l0.73,0.73l1.65,1.88c0.53,0.65,1.04,1.34,1.56,2l0.78,1.01c0.12,0.16,0.28,0.36,0.36,0.48
					l0.23,0.34l0.89,1.3c0.59,0.87,1.13,1.76,1.69,2.64l1.56,2.68c2.01,3.6,3.76,7.27,5.36,10.98c3.18,7.42,5.71,14.98,7.98,22.58
					c4.47,15.21,7.75,30.61,10.55,46.04c2.53,14,4.08,29.14,7.01,41.97c0.59,2.6,1.22,9,1.61,13.46c0.97,10.63,1.49,21.16,2.41,31.7
					c0.93,10.54,2.27,20.97,3.21,31.6c0.75,8.57,1.08,16.62,2.28,25.41c0.88,6.44,1.03,17.78,0.76,27.94
					c-0.53,20.22-1.27,41.25-0.57,67.08c0.61,22.86,0.5,46.01,0.4,69.01c-0.04,9.64-0.27,18.74,0.2,29.09
					c0.43,9.31-0.23,24.89-1.12,36.15c-0.69,8.88-1.28,17.4-1.82,25.89c-0.27,4.26-0.54,8.5-0.81,12.77
					c-0.15,2.15-0.31,4.31-0.47,6.48c-0.18,2.19-0.37,4.38-0.71,6.74c-0.05,0.4-0.14,0.84-0.22,1.27c-0.04,0.21-0.09,0.45-0.15,0.71
					c-0.07,0.3-0.15,0.6-0.24,0.9c-0.2,0.59-0.38,1.21-0.75,1.74c-0.12,0.3-0.36,0.53-0.53,0.8c-0.08,0.11-0.23,0.3-0.24,0.35
					c-0.03,0.06-0.05,0.08-0.08,0.11c-0.42,0.7-0.86,1.93-1.2,3.26c-0.65,2.74-0.99,5.95-1.12,9.06c-0.29,7.74,0.31,15.74,1.38,23.6
					c0.26,1.97,0.58,3.93,0.92,5.88l0.54,2.91l0.3,1.44l0.3,1.36c0.34,1.42,0.67,2.91,1.41,4.2c0.11,0.15,0.21,0.32,0.37,0.41
					c0.17,0.09,0.37,0.05,0.53-0.05c0.32-0.2,0.55-0.5,0.76-0.8c0.43-0.61,0.77-1.27,1.09-1.94l0.47-1.01l0.87-2.03
					c0.76-1.83,1.49-3.69,2.2-5.56l1.05-2.82l1.45-4.05c1.11-3.15,2.17-6.35,3.23-9.6c2.1-6.47,4.14-13.52,6.22-20.42
					c0.49,0.45,0.91,0.76,1.27,0.96c0.18,0.1,0.35,0.18,0.51,0.24c0.08,0.03,0.16,0.05,0.23,0.07c0.02,0.02,0.03-0.02,0.06,0.04
					l0.11,0.21l0.21,0.42c1.09,2.24,2.11,4.39,3.08,6.52c1.95,4.19,3.8,8.64,5.05,13.71c0.8,3.23,1.37,6.67,1.25,10.56
					c0,0.5-0.05,1.03-0.08,1.54l-0.05,0.78c-0.01,0.25,0.02,0.46,0.02,0.69l0.01,0.34l0.02,0.18l0.04,0.37l0.11,0.77
					c0.16,1.04,0.37,2.13,0.61,3.21c0.97,4.34,2.23,8.59,3.11,12.36c1.64,2.71,3.34,6.34,5.21,10.12c0.93,1.89,1.9,3.82,2.92,5.67
					c0.51,0.92,1.03,1.83,1.56,2.69c0.27,0.42,0.54,0.84,0.8,1.26c0.12,0.18,0.24,0.37,0.36,0.54c0.34,0.49,0.72,0.98,1.17,1.41
					c0.44,0.41,1.03,0.86,1.67,0.73c0.63-0.16,0.98-0.75,1.24-1.3c0.26-0.57,0.44-1.2,0.58-1.86l0.1-0.5l0.16-1.09
					c0.1-0.74,0.19-1.49,0.26-2.24c0.14-1.51,0.24-3.05,0.31-4.6c0.12-3.1,0.12-6.26,0.01-9.43c-0.24-6.77-0.81-13.56-1.66-20.16
					l7.31-1.01c1.38,8.04,3.25,16.15,5.78,23.96c1.25,3.8,2.54,7.82,4.12,11.68c0.2,0.47,0.41,0.95,0.61,1.43l0.6,1.31
					c0.17,0.35,0.35,0.71,0.56,1.06c0.42,0.67,0.93,1.41,1.72,1.72c0.28,0.1,0.59,0.13,0.87,0.03c0.28-0.11,0.5-0.32,0.67-0.57
					c0.32-0.51,0.47-1.11,0.56-1.69c0.04-0.29,0.07-0.58,0.08-0.87c0.01-0.42,0.02-0.83,0.04-1.25c0.05-1.49,0.02-3.01-0.07-4.52
					c-0.13-2.69,0.29-8.52-0.14-12.64c-0.63-6.37-1.36-13.05-2.33-19.53l8.63-1.88c1.39,5.24,3.02,10.56,4.89,15.53
					c1.88,4.97,4.04,9.71,6.62,13.6c0.67,1.07,2.35,3.96,3,4.91c0.25,0.4,0.51,0.8,0.76,1.12c0.13,0.19,0.24,0.31,0.35,0.44
					l0.17,0.2l0.29,0.27c0.4,0.38,0.79,0.73,1.19,1.05c0.2,0.16,0.39,0.32,0.57,0.45l0.26,0.2l0.12,0.1
					c0.31,0.25,0.69,0.48,1.11,0.59c0.42,0.11,0.89,0.03,1.25-0.23c0.36-0.25,0.63-0.63,0.85-1.02l0.17-0.34l0.29-0.69
					c0.19-0.48,0.36-0.98,0.53-1.49c0.33-1.04,0.61-2.15,0.86-3.28c0.13-0.56,0.24-1.14,0.35-1.72c0.07-0.33,0.06-0.46,0.09-0.68
					c0.01-0.21,0.07-0.38,0.06-0.62c0.08-1.8-0.23-4-0.73-6.19c-0.5-2.2-1.18-4.45-1.94-6.68c-1.56-4.48-3.44-8.93-5.43-13.34
					c-1.7-3.78-3.43-7.48-5.17-11.14c-0.88-1.82-1.75-3.64-2.62-5.44c-0.44-0.9-0.88-1.79-1.32-2.68l-0.77-1.53l-1.19-2.27
					l0.04-3.67l0.05-2.36c0.04-1.57,0.08-3.14,0.11-4.71c0.08-3.14,0.15-6.27,0.23-9.41c0.14-6.29,0.25-12.61,0.23-19.06
					c-0.06-24.13-0.55-49.28,0.09-72.19c1.1-39.48,0.64-78.75,0.91-118.06c0.23-40.2,0.45-80.47,0.68-120.68
					c0.1-17.49-0.31-34.83-0.23-52.35c0.1-19.48,0.47-39.07,0.83-58.62c0.34-18.4,0.69-36.81,1.35-55.21
					c0.31-8.62,0.21-18.21,1.61-25.72c0.29-1.54,0.65-6.83,0.66-9.02c0.01-4,0.09-7.91,0.52-12.04c0.03-0.49,0.14-1.08,0.22-1.62
					l0.13-0.82l0.07-0.42l0.14-0.54l0.3-1.07l0.23-0.76l0.34-1.1c0.23-0.75,0.37-1.61,0.57-2.41l0.42-2.58
					c0.9-7.08,0.81-14.67,0.34-22.41c-0.29-4.42-1.76-10.79-2.98-15.92c-1.66-7.16-4.07-13.61-6.92-19.64
					c-2.87-6.03-6.14-11.68-9.92-17.23c-3.47-5.11-7.33-10.46-11.64-15.2c-4.29-4.76-9.17-8.72-13.91-11.45
					c-0.66-0.35-2.21-1.38-3.77-2.49c-0.76-0.58-1.59-1.08-2.3-1.55c-0.71-0.47-1.31-0.88-1.69-1.18c-0.61-0.47-1.23-0.93-1.84-1.4
					c-0.63-0.45-1.3-0.85-1.96-1.27c-1.33-0.82-2.67-1.66-4.05-2.44c-2.85-1.39-5.71-2.9-8.8-3.95l-2.29-0.85
					c-0.76-0.29-1.53-0.57-2.33-0.77c-1.58-0.44-3.17-0.89-4.76-1.33l-1.19-0.33l-1.23-0.27l-2.47-0.53
					c-1.65-0.34-3.28-0.74-4.95-1.01c-13.3-2.47-26.79-3.89-39.28-6.4c-10.23,0.36-20.57-2.11-28.65-2.38
					c-11.7-0.41-23-0.51-35.18-0.89c-11.44-0.36-22.95-0.61-34.36-0.61c-20.91-0.02-42.08-0.54-63.09,0.43
					c-7.03,0.3-20.25,0.39-29.09-1.57c-0.39-0.09-0.98-0.18-1.7-0.27c-0.71-0.08-1.56-0.19-2.48-0.34
					c-0.92-0.14-1.86-0.24-2.83-0.41c-1-0.2-1.96-0.39-2.81-0.55c-0.9-0.23-1.91-0.58-2.86-0.91c-0.94-0.4-1.86-0.9-2.75-1.43
					c-1.72-1.16-3.34-2.54-4.56-4.12c-2.53-3.15-3.95-6.66-4.82-9.99c-1.69-6.71-1.62-13-1.18-18.55
					c0.47-5.55,1.42-10.39,2.42-14.17c1-3.79,2.05-6.52,2.87-7.85c1.96-3.12,3.32-2.28,3.97,0.52c0.17,0.7-0.17,3.48-0.49,6.88
					c-0.32,3.4-0.62,7.4-0.63,10.49c-0.04,5.35,0.38,10.58,1.46,15.5c0.55,2.45,1.28,4.82,2.28,6.89c1,2.07,2.25,3.8,3.7,4.9
					c0.87,0.63,1.83,1.09,2.9,1.36c1.3,0.31,2.92,0.6,4.65,0.79l1.28,0.17c0.45,0.04,0.9,0.08,1.35,0.12
					c0.9,0.08,1.81,0.16,2.73,0.25c1.88,0.11,3.76,0.27,5.72,0.36C583.52,73.74,592,73.95,601.24,74.03z"/>
			</g>
		</g>
	</g>
</g>
<path class="st0" d="M261.25,134.14c15.07,18.08,122.57,41.19,122.57,41.19"/>
<path class="st0" d="M632.49,144.29c-22.1,44.21-85.4,35.16-85.4,35.16"/>
<path class="st1" d="M159.04,900c0,0,3.69-113.71,50.97-113.15c47.29,0.56,515.48,6.1,515.48,6.1s34.66-10.64,15.88,107.05"/>
</svg>
