<?xml version="1.0" encoding="utf-8"?>
<!-- Generator: Adobe Illustrator 28.0.0, SVG Export Plug-In . SVG Version: 6.00 Build 0)  -->
<svg version="1.1" id="Star" xmlns="http://www.w3.org/2000/svg" xmlns:xlink="http://www.w3.org/1999/xlink" x="0px" y="0px"
	 viewBox="0 0 400 400" style="enable-background:new 0 0 400 400;" xml:space="preserve">
<style type="text/css">
	.st0{fill:none;stroke:#000000;stroke-width:3;stroke-linejoin:round;stroke-miterlimit:10;}
</style>
<g>
	<g>
		<polygon points="196.05,203.64 189.3,50.87 235.73,160.28 		"/>
		<g>
			<g>
				<g>
					<path d="M194.3,195.52c-0.11-2.43-0.14-4.42-0.34-6.4c-0.03-0.31-0.44-0.64-0.45-1.03c-0.04-1.55-0.48-3.13-0.1-4.64
						c0.42-1.65,0.4-3.29,0.02-4.83c-0.36-1.47-0.34-2.92-0.49-4.38c-0.05-0.49-0.16-0.97,0.26-1.52c0.31-0.4,0.31-1.12-0.29-1.62
						c-0.12-0.1-0.01-0.33,0.04-0.49c0.05-0.18,0.29-0.39,0.2-0.52c-0.94-1.4-0.34-2.92-0.62-4.37c-0.07-0.36,0.17-0.77-0.43-1.05
						c-0.15-0.07-0.19-0.43-0.06-0.54c0.35-0.29,0.41-0.58,0.39-0.93c-0.09-1.5-0.14-3-0.21-4.5c-0.79-0.7-0.49-1.55-0.52-2.33
						c-0.02-0.59,0.22-1.19,0.34-1.79c0.12-0.6-0.39-1.22,0.25-1.82c0.1-0.09-0.11-0.32-0.13-0.48c-0.09-0.74-0.36-1.51-0.15-2.22
						c0.11-0.37,0.22-0.73,0.21-1.09l-0.62-13.95c-0.02-0.4,0.05-0.79-0.41-1.2c-0.36-0.32-0.41-1.05-0.08-1.39
						c0.53-0.54,0.29-1.02,0.3-1.52c0.02-0.92-0.11-1.84-0.09-2.76c0.01-0.55-0.4-1.14,0.34-1.65c0.07-0.05,0.06-0.22-0.01-0.28
						c-0.76-0.57-0.17-1.19-0.1-1.8c0.05-0.44,0.02-0.88-0.36-1.35c-0.37-0.45-0.46-1.23-0.11-1.68c0.48-0.6,0.29-1.13,0.27-1.67
						c-0.1-3.2-0.23-6.4-0.42-9.59c-0.09-1.51-0.83-2.97-0.63-4.51c0.05-0.37-0.26-0.75,0.26-1.1c0.11-0.07,0.03-0.36-0.11-0.47
						c-0.49-0.39-0.33-0.82-0.33-1.29c0.01-2.13,0.2-4.31-0.35-6.38c-0.42-1.61-0.34-3.22-0.52-4.82c-0.06-0.53,0.27-1.09,0.33-1.64
						c0.05-0.53-0.01-1.07-0.06-1.6c-0.03-0.32,0.1-0.64-0.34-0.93c-0.24-0.16-0.32-0.61-0.14-0.8c0.6-0.65,0.33-1.3,0.31-1.95
						l-0.22-5.52c-0.01-0.45-0.35-0.94,0.29-1.38c0.09-0.06-0.13-0.31-0.2-0.47c-0.07-0.17-0.27-0.38-0.19-0.52
						c0.2-0.31,0.31-0.61,0.37-0.93c0.06-0.37,0.06-0.73,0.04-1.1c-0.04-0.73-0.19-1.52-0.21-2.26c-0.04-1.77-0.13-3.55-0.21-5.35
						c-0.09-1.79-0.17-3.61-0.18-5.24c0-0.3-0.08-0.77-0.18-1.29c-0.15-0.84-0.36-1.81-0.3-2.13c0.09-0.49,0.09-1.17,0.19-1.62
						c0.06-0.36-0.08-1.22,0.38-0.54c0.12,0.18,0.12-0.18,0.03-0.56c-0.34-1.4-0.09-1.38-0.1-1.99c0.01-0.34,0.07-0.55,0.1-0.84
						c0.03-0.28,0.03-0.64,0-1.08c-0.01-0.23,0.1-0.29,0.13-0.51l0.1-0.67l0.24,0.37c0.1,0.15,0.18,0.2,0.28,0.32
						c0.75,0.99,1.49,1.65,2.24,2.35c0.59,0.57,1.2,1.26,1.8,1.98l0.8,1.91c1.22,2.87,2.48,5.7,3.66,8.71
						c0.22,0.56,0.53,0.97,0.78,1.52c0.25,0.54,0.43,1.22,0.31,2.1c0.79,0.46,0.96,1.72,0.74,2.76c-0.03,0.15,0.32,0.3,0.48,0.49
						c0.43,0.41,1.47,0.5,0.78,1.43c-0.03,0.03,0.04,0.08,0.05,0.13c0.06,0.5,1.12,0.42,0.8,1.22c-0.2,0.5,0.19,1.01,0.36,1.5
						c0.18,0.5,0.35,1.01,0.63,1.47c0.29,0.47,0.1,1.2,0.99,1.38c0.14,0.03-0.18,0.6-0.05,0.81c0.65,1.05,0.51,2.47,1.79,3.23
						c0.29,0.17,0.44,0.58,0.39,0.92c-0.18,1.22,0.51,2,1.16,2.9c0.85,1.19,1.55,2.54,1.23,4.19c-0.07,0.35-0.16,0.53,0.26,0.68
						c0.28,0.1,0.37,0.43,0.47,0.69l3.64,8.57c0.33,0.78-0.02,1.78,0.56,2.48c0.24,0.29,0.07,0.81,0.74,0.85
						c0.09,0.01,0.2,0.12,0.18,0.2c-0.24,1.23,1.08,1.79,1.22,2.86c0.03,0.23-0.01,0.48,0.01,0.71c0.02,0.24-0.04,0.55,0.13,0.68
						c1.41,1.12,1.46,2.88,2.28,4.28c0.28,0.48,0.15,1.18,1.03,1.34c0.13,0.02,0.22,0.25,0.17,0.39c-0.45,1.21,0.58,1.89,0.75,2.88
						c0.09,0.51,0.75,0.83,0.25,1.53c-0.06,0.09,0.08,0.24,0.18,0.34c0.17,0.16,0.47,0.26,0.54,0.46c0.19,0.55,0.06,1.28,0.48,1.66
						c0.52,0.46,0.64,1.06,0.89,1.61c0.15,0.31-0.03,0.76,0.04,1.12c0.06,0.33,0.25,0.63,0.38,0.94c0.19,0.45,0.5,0.86,0.53,1.35
						c0.03,0.5,0.88,0.56,0.61,1.24c-0.21,0.53,0.62,0.68,0.87,1.06c0.12,0.19,0.14,0.45,0.15,0.68c0.01,0.18-0.15,0.43-0.07,0.57
						c0.18,0.32,0.19,0.69,0.64,0.92c0.31,0.16,0.12,0.76,0.22,1.14c0.1,0.37,0.29,0.72,0.44,1.08s0.18,0.8,0.48,1.06
						c1.31,1.12,1.5,2.76,2.2,4.16c0.18,0.36,0.6,0.69,0.14,1.26c-0.08,0.1,0,0.32,0.11,0.4c1.42,1.01,1.35,2.72,2.18,4
						c0.59,0.92,1.32,1.75,1.68,2.79c0.34,1.01,0.61,2.09,1.3,2.91c0.57,0.68,1.11,1.35,1.28,2.18c0.17,0.81,1.67,1.02,0.97,2.18
						l0.52,1.2c0.26,0.61,0.52,1.22,0.75,1.83c0.28,0.75,0.78,1.54,0.89,2.26c-0.27,0.2-0.58,0.38-0.94,0.53
						c-0.5,0.21-0.94,0.71-1.02,1.11c-0.12,0.64-0.51,1.23-0.97,1.74c-0.36,0.38-0.7,0.56-1.13,0.78c-0.2,0.1-0.14,0.51-0.29,0.69
						c-0.46,0.56-0.92,1.14-1.47,1.61c-1.66,1.4-2.54,3.48-3.98,5.06c-0.27,0.29-0.18,0.96-0.52,1.13c-2.05,1.01-2.89,3.2-4.68,4.43
						c-2.63,1.81-4.35,4.46-6.57,6.65c-0.29,0.28-0.98,0.23-0.99,0.48c-0.04,0.77-0.81,0.99-0.87,1.61
						c-0.12,1.11-1.04,1.46-1.51,2.22c-0.34,0.56-1.14,0.77-0.98,1.71c0.02,0.14-0.14,0.29-0.28,0.32
						c-1.16,0.22-1.02,1.62-1.89,2.09c-0.57,1.89-2.24,2.84-3.31,4.3c-0.16,0.21-0.2,0.53-0.3,0.79c-0.05,0.13-0.07,0.33-0.19,0.37
						c-1.77,0.6-2.39,2.32-3.68,3.37c-0.43,0.35-0.97,0.57-1.41,0.92c-0.44,0.35-0.66,0.92-1.42,0.92c-0.24,0-0.39,0.3-0.49,0.51
						c-0.58,1.19-2.1,1.08-3.52-0.19c-0.51-0.46-0.37-0.68-0.37-1.06c-0.01-0.72,0.11-1.33,0.58-1.76c0.37-0.34,0.9-0.6,0.71-1.37
						c-0.03-0.13,0.14-0.28,0.28-0.31c1.01-0.23,1.32-1.26,2.16-1.58c0.65-0.25,0.98-0.73,1.47-1.08c0.42-0.3,0.51-0.91,1.29-0.87
						c0.26,0.01,0.21-0.7,0.43-0.98c0.51-0.65,1.05-1.28,1.67-1.83c1.89-1.66,2.82-4.13,4.69-5.8c0.57-1.89,2.39-2.73,3.28-4.32
						c1.07-1.93,2.73-3.32,4-5.05c0.26-0.36,0.52-0.6,0.94-0.74c0.28-0.09,0.57-0.19,0.76-0.38c0.71-0.73,1.35-1.53,2.09-2.23
						c0.4-0.37,0.49-1.12,1.41-0.93c0.13,0.03,0.28-0.16,0.29-0.31c0.01-1.2,1.03-1.58,1.58-2.34c0.21-0.29,0.47-0.52,0.94-0.61
						c0.51-0.1,0.93-0.61,1.02-1.12c0.06-0.39,0.26-0.61,0.42-0.89c0.69-1.15,2.21-1.61,2.36-3.21c1.08,0.08,1.44-0.73,1.75-1.37
						c0.48-1,1.13-1.85,1.84-2.64c0.21-0.24,0.28-0.31,0.38-0.41l0.3-0.29l0.62-0.6c-0.09-0.24-0.2-0.49-0.33-0.73
						c-0.08-0.15-0.06-0.31-0.04-0.51c0.01-0.1,0.03-0.18,0.02-0.32c-0.02-0.16-0.05-0.33-0.1-0.48c-0.2-0.65-0.49-1.27-0.79-1.88
						c-0.16-0.33-0.07-0.82-0.75-0.84c-0.05,0-0.1-0.05-0.11-0.09c-0.06-0.4,0-0.85-0.19-1.18c-0.17-0.3-0.68-0.42-0.92-0.7
						c-0.28-0.33-0.46-0.72-0.64-1.1c-0.17-0.37-0.47-0.72-0.09-1.24c-0.76-0.03-0.62-0.6-0.83-0.95c-0.2-0.34-0.31-0.71-0.46-1.07
						l-0.51-1.21c-0.17-0.4-0.29-0.83-0.52-1.2c-0.32-0.51-0.78-0.95-1.07-1.47c-0.31-0.55-0.56-1.13-0.74-1.74
						c-0.23-0.76-0.34-1.56-0.53-2.33c-0.08-0.32-0.35-0.51-0.69-0.71c-0.46-0.26-1.32-0.48-0.68-1.34c0.13-0.17-0.07-0.5-0.27-0.65
						c-1.54-1.17-1.48-3.09-2.39-4.55c0.29-1.14-0.47-1.81-1.03-2.63c-0.83-1.2-1.52-2.55-1.68-4.01c-0.17-1.54-0.97-2.78-1.39-4.19
						c-0.12-0.4-0.53-0.7-0.08-1.27c0.1-0.13-0.06-0.4-0.21-0.52c-1.08-0.83-1.36-1.97-1.43-3.25c-0.04-0.68-0.57-1.24-1.07-1.79
						c-0.75-0.83-0.95-2-1.39-3.03c0.54-0.75-0.35-0.78-0.76-0.88c-0.55-0.13-0.74-0.38-0.91-0.74c-0.21-0.46-0.27-0.97-0.94-1.23
						c-0.34-0.13-0.5-0.68-0.36-1.04c0.19-0.48-0.02-0.54-0.37-0.76c-0.42-0.25,0.09-0.92-0.14-1.37c-0.24-0.48-0.85-0.9-0.28-1.65
						c0.05-0.07-0.02-0.22-0.11-0.26c-1.16-0.58-0.42-1.97-1.15-2.73c-0.29-3.08-2.18-5.52-3.04-8.38
						c-0.35-1.18-0.27-2.55-1.09-3.51c-1.71-2.02-2.19-4.57-3.31-6.85c-0.24-0.48-0.82-0.91-0.27-1.66c0.08-0.1-0.03-0.33-0.16-0.39
						c-0.99-0.45-1.08-1.26-0.94-2.2c0.03-0.23-0.12-0.56-0.35-0.59c-0.63-0.1-0.58-0.54-0.71-0.88c-0.15-0.41,0.06-1.12-0.29-1.25
						c-0.76-0.28-0.27-0.82-0.34-1.25c-0.02-0.13-0.09-0.25-0.18-0.36c-0.09-0.11-0.15-0.08-0.21-0.13c-0.06-0.03-0.29,0.05-0.25,0
						c0.23-0.32,0.09-0.46-0.06-0.49c-0.16-0.05-0.32,0.02-0.28-0.25c0.02-0.12-0.02-0.16,0-0.31c0.22-1.77,0.01-2.26-0.52-2.36
						c0.03-1.17-0.08-1.15-0.17-0.98c-0.09,0.15-0.15,0.45-0.22-0.66c-0.05-0.82-0.18-0.96-0.23-0.58
						c-0.04,0.29-0.07,0.48-0.11,0.57c-0.08,0.23-0.17-0.06-0.29-0.43c-0.11-0.37-0.25-0.82-0.3-0.69c-0.02,0.1-0.42-2.52-0.2-0.64
						c0.1,0.74-0.34-1.76-0.4-1.86c-0.07-0.08-0.46-1.91-0.06,0.66c0.17,1.07-0.07-0.02-0.08,0.09c0,0.19-0.32-1.2,0.13,1.21
						c0.25,1.32,0.21,1.25-0.1-0.13c-0.67-2.97-0.82-3.34-0.7-2.62c0.21,1.09,0.6,2.92,0.82,3.96c0.14,0.66,0.26,1.2,0.07,0.5
						c-0.27-1-0.61-2.11-0.23-0.56c0.67,2.7,0.4,1.76,0.45,2.08c0.08,0.48-0.03,0.34,0.07,0.87c0.09,0.45-0.09,0.18,0.19,1.08
						c0.06,0.17,0.13,0.38,0.23,0.63c0.32,0.87,0.6,1.33-0.33-0.32c-0.1-0.17,0.42,0.86,0.43,0.88c0.05,0.28,0.08,0.46,0.02,0.61
						c-0.02-0.01-0.89-0.49-0.18,0.03c0.38,0.25,0.2,0.15,0.04,0.11c-0.16-0.05-0.3-0.05,0.15,0.14c0.13,0.06,0.12,0.08,0.03,0.08
						c-0.23,0.02-0.35,0.06-0.41,0.24c-0.04,0.48-0.03,0.95,0.01,1.43c0.08,0.95,0.24,1.9,0.16,2.85c-0.04,0.46,0.34,0.96-0.38,1.35
						c0.86,1.12-0.75,2.47,0.6,3.54c-0.18,0.84,0.54,1.69-0.29,2.53c-0.14,0.13,0.09,0.41-0.03,0.56c-0.41,0.52,0.93,0.78,0.27,1.42
						c-0.38,0.37-0.12,1.02-0.12,1.54c0,0.48,0.04,0.97,0.06,1.45l0.07,1.6c0.02,0.53-0.01,1.07,0.08,1.6
						c0.18,1.07,0.76,2.1,0.59,3.2c-0.02,0.12,0.09,0.32,0.23,0.36c1.15,0.32,0.54,0.9,0.23,1.28c-0.26,0.32-0.38,0.59-0.36,0.93
						c0.06,0.92,0.14,1.84,0.11,2.76c-0.02,0.55,0.37,1.11-0.32,1.66c-0.21,0.17-0.14,0.61,0.03,0.85c0.79,1.12,0.41,2.33,0.57,3.5
						c0.07,0.53,0.07,1.06,0.07,1.6c0,0.41,0.5,0.79,0.06,1.21c1,1.93,0.49,3.98,0.68,5.97c0.19,1.98,0.22,3.97,0.27,5.96
						c0.01,0.5,0.39,1.04-0.34,1.51c-0.14,0.09-0.11,0.45,0.04,0.55c0.42,0.27,0.64,0.48,0.11,0.83c-0.1,0.06,0.03,0.33,0.14,0.47
						c0.32,0.39,0.3,0.76,0.04,1.19c-0.2,0.34-0.31,0.79-0.14,1.1c0.46,0.84,0.86,1.64,0.11,2.54c-0.09,0.11,0.43,0.38,0.41,0.57
						c-0.07,0.75,0.38,1.49-0.2,2.26c-0.23,0.31-0.03,0.75-0.08,1.13c-0.09,0.65,0.35,1.25,0.15,1.94c-0.21,0.7,0.01,1.45,0.04,2.17
						l0.1,2.18l0.1,2.18l0.1,2.18l0.1,2.18l0.09,2.18c0.01,0.51-0.05,0.98-0.33,1.51c-0.71,1.34-0.53,2.92,0.16,4.84
						c0.05,0.14,0.02,0.29,0.02,0.43c0.08,1.89,0.31,3.78,0.18,5.67c-0.05,0.83-0.36,1.67-0.26,2.52c0.06,0.55-0.03,1.09,0.47,1.62
						c0.42,0.44-0.24,1.12,0.49,1.62c0.27,0.18,0.28,0.7,0.08,0.97c-0.66,0.9-0.26,1.78-0.28,2.67c-0.02,1.02,0.04,2.04,0.13,3.05
						c0.05,0.5-0.17,1.01,0.44,1.49c0.3,0.24,0.13,0.85-0.1,1.23c-0.35,0.58-0.26,1.15-0.07,1.67c0.39,1.13,0.46,1.12,0.07,2.26
						c-0.05,0.14-0.04,0.28-0.04,0.42c0.06,1.41-0.15,2.85,0.27,4.2c0.35,1.12,0.42,2.24,0.49,3.36c0.03,0.45,0.38,0.95-0.35,1.36
						c-0.1,0.06-0.08,0.31,0.02,0.42c0.86,0.9,0.47,1.94,0.53,2.92c0.06,0.95,0.76,1.79,0.63,2.77c-0.11,0.92,0.05,1.84,0.09,2.76
						c0.05,1.4-0.38,1.72-2.43,1.8c-1.69,0.07-2.07-0.27-2.48-1.37C194.14,199.86,194.6,197.44,194.3,195.52z"/>
				</g>
			</g>
		</g>
	</g>
	<g>
		<polyline points="157.63,160.28 39.22,166.68 196.05,203.64 157.63,160.28 189.3,50.87 		"/>
		<g>
			<g>
				<g>
					<path d="M146.53,162.27c-3.32,0.18-6.04,0.27-8.74,0.53c-0.42,0.04-0.87,0.45-1.4,0.48c-2.12,0.09-4.28,0.57-6.34,0.24
						c-2.25-0.37-4.49-0.3-6.6,0.13c-2,0.41-3.99,0.42-5.99,0.63c-0.67,0.07-1.32,0.19-2.08-0.22c-0.55-0.3-1.53-0.28-2.22,0.34
						c-0.13,0.12-0.44,0.02-0.67-0.02c-0.24-0.04-0.54-0.27-0.71-0.19c-1.92,0.98-3.99,0.43-5.97,0.75
						c-0.49,0.08-1.05-0.15-1.44,0.46c-0.1,0.16-0.58,0.21-0.74,0.08c-0.4-0.34-0.79-0.39-1.27-0.36l-6.15,0.34
						c-0.96,0.81-2.11,0.54-3.19,0.59c-0.81,0.04-1.62-0.18-2.44-0.28c-0.82-0.1-1.67,0.42-2.48-0.2c-0.13-0.1-0.43,0.12-0.66,0.14
						c-1.02,0.11-2.07,0.41-3.04,0.21c-0.5-0.1-1-0.2-1.49-0.17l-16.97,0.92c-0.36,0.02-0.94-0.04-0.48,0.38
						c0.36,0.32-0.05,0.36-1.13,0.07c-1.76-0.46-1.74-0.24-2.26-0.24c-0.92,0-1.5,0.09-2.36,0.11l-0.36,0
						c-0.33,0-0.28,0.08-0.55,0.09c-0.28,0.01-0.89-0.05-2.72-0.33c-0.35-0.05-0.54-0.04-0.3,0.02c1.23,0.3,1.11,0.34,0.48,0.3
						c-0.62-0.04-1.75-0.16-2.31-0.18c-0.8-0.03-1.29,0.01,0.1,0.3c1.35,0.28,1.1,0.35-1.47,0.11c-3.46-0.32-3.15-0.17-3.74-0.14
						l-3.12,0.14c2.3,0.56,4.77,1.14,7.35,1.71c0.86,0.19,2.46,0.39,3.76,0.55c1.32,0.17,2.33,0.31,2.54,0.49
						c0.01,0,0.01,0.01,0.03,0.01c0.23,0.09,1.33,0.1-0.05,0.3c-0.3,0.04,0.23,0.1,0.76,0.09c1.9-0.04,1.66,0.09,2.04,0.2
						c0.81,0.25,1.6,0.53,2.58,0.79c0.97,0.26,2.12,0.49,3.26,0.52c0.44,0.01,0.82,0.05,1.18,0.09l0.52,0.08l0.58,0.12
						c1.07,0.23,2.14,0.5,3.22,0.69c0.72,0.13,1.36,0.65,2.07,0.9c0.69,0.24,1.41,0.37,2.12,0.51c0.43,0.08,0.81,0.33,1.33,0.01
						c0.28-0.17,0.9-0.09,1.1,0.15c0.68,0.81,1.62,0.78,2.48,0.99l7.34,1.76c0.6,0.15,1.34,0,1.73,0.77
						c0.05,0.1,0.45-0.02,0.68-0.03c0.25-0.01,0.58-0.13,0.74,0c1.39,1.2,3.17,1.12,4.79,1.54c3.91,1.01,7.88,1.81,11.78,2.85
						c1.09,0.29,2.18-0.03,3.24,0.26c1.02,0.27,2.07,0.46,3.09,0.75c0.72,0.21,1.56,0.1,2.09,0.91c0.14,0.22,0.67,0.34,0.93,0.22
						c0.96-0.45,1.78,0.09,2.66,0.2c1.07,0.13,2.06,0.79,3.24,0.35c0.32-0.12,0.77,0.37,1.19,0.5c0.72,0.22,1.46,0.42,2.2,0.56
						c0.36,0.07,0.76-0.09,1.11-0.03c2.76,0.48,5.52,0.92,8.26,1.5c2.79,0.58,5.55,1.29,8.32,1.94c2.77,0.65,5.56,1.25,8.31,1.99
						c1.03,0.28,2.28,0.03,3.03,1.14c1.08-0.3,1.85,0.22,2.54,1.01c0.1,0.11,0.46-0.07,0.7-0.09c0.76-0.06,1.63-0.8,2.18,0.35
						c0.02,0.04,0.13,0.02,0.19,0.05c0.61,0.29,1.29-0.59,1.97,0.2c0.42,0.49,1.29,0.53,1.97,0.72c0.7,0.2,1.41,0.41,2.13,0.49
						c0.75,0.09,1.43,0.73,2.28,0.16c0.14-0.09,0.55,0.54,0.88,0.58c1.66,0.2,3.17,1.26,4.97,0.77c0.41-0.11,0.98,0.05,1.33,0.31
						c1.25,0.96,2.64,0.94,4.13,1.04c1.22-0.04,1.46-0.11,3.53,1.35c0.45,0.31,0.79,0.55,0.63,0.17c-0.11-0.25,0.21-0.12,0.44-0.07
						l3.6,0.84l-2.56-2.88c-0.22-0.25-0.12-0.41-0.14-0.64c0-0.23-0.12-0.53-0.59-0.85c-0.35-0.23-0.19-0.6-1.08-0.69
						c-0.12-0.01-0.25-0.09-0.24-0.14c0.1-0.41-0.33-0.79-0.72-1.04c-0.16-0.08-0.5-0.35-0.75-0.58c-0.27-0.24-0.51-0.5-0.69-0.81
						c-0.15-0.27-0.24-0.57-0.39-0.85c-0.15-0.28-0.25-0.66-0.5-0.79c-2.08-1.05-3.08-3.16-4.7-4.65c-0.55-0.51-0.8-1.38-1.8-1.39
						c-0.15,0-0.36-0.26-0.38-0.43c-0.18-1.55-1.63-2.15-2.34-3.3c-0.36-0.59-1.23-0.84-1.09-1.78c0.02-0.12-0.22-0.28-0.37-0.37
						c-0.26-0.16-0.63-0.22-0.81-0.44c-0.5-0.62-0.76-1.53-1.4-1.89c-0.79-0.45-1.24-1.13-1.8-1.74c-0.32-0.35-0.38-0.92-0.65-1.33
						c-0.25-0.39-0.6-0.7-0.91-1.05c-0.44-0.5-0.99-0.93-1.29-1.51c-0.31-0.6-1.22-0.48-1.31-1.36c-0.07-0.67-1.01-0.68-1.48-1.09
						c-0.23-0.2-0.39-0.5-0.53-0.79c-0.11-0.22-0.08-0.55-0.24-0.7c-0.36-0.34-0.58-0.79-1.17-0.97c-0.41-0.13-0.53-0.88-0.85-1.32
						c-0.31-0.43-0.69-0.8-1.05-1.2c-0.18-0.2-0.33-0.43-0.5-0.64c-0.08-0.11-0.17-0.21-0.26-0.3c-0.11-0.11-0.24-0.22-0.38-0.31
						c-0.82-0.54-1.6-1.25-2.32-1.98c0.23-0.95,0.53-1.94,0.84-2.89l0.37-1.15c0.11-0.34,0.2-0.68,0.29-1.03
						c0.13-0.53,0.05-1.22,0.81-1.49c0.13-0.05,0.23-0.35,0.21-0.52c-0.31-2.2,0.97-4.03,1.3-6.08c0.23-1.46,0.3-2.94,0.79-4.36
						c0.48-1.37,1.07-2.77,1.16-4.2c0.07-1.18,0.16-2.34,0.64-3.38c0.46-1.02-0.49-2.4,0.86-3.14c0.31-1.08,0.59-2.18,0.95-3.24
						c0.3-0.9,0.3-1.91,1.17-2.62c0.32-0.26,0.48-0.89,0.38-1.3c-0.32-1.32,0.18-2.37,0.84-3.42c0.16-0.25-0.05-0.68,0.02-1
						c0.24-0.96,0.47-1.94,0.83-2.86c1.09-2.75,1.17-5.75,1.98-8.57c0.15-0.52-0.18-1.24,0.08-1.66c1.61-2.57,1.61-5.67,2.88-8.31
						c1.87-3.89,2.56-8.12,3.9-12.16c0.17-0.53,0.86-0.93,0.78-1.23c-0.25-0.92,0.41-1.7,0.25-2.45c-0.3-1.36,0.47-2.4,0.64-3.6
						c0.13-0.88,0.81-1.66,0.32-2.64c-0.07-0.14,0.03-0.43,0.16-0.56c1.04-1.04,0.39-2.56,1.06-3.7c-0.15-2.57,1.11-4.81,1.62-7.22
						c0.07-0.36-0.01-0.74,0-1.12c0-0.19-0.05-0.43,0.05-0.56c1.48-1.89,1.45-4.3,2.31-6.4c0.28-0.69,0.73-1.33,1.02-2.02
						c0.3-0.7,0.3-1.5,1.03-2.03c0.23-0.16,0.26-0.61,0.29-0.93c0.12-1.77,1.63-2.68,3.46-2.17c0.66,0.18,0.61,0.54,0.75,0.97
						c0.27,0.83,0.38,1.61,0.09,2.43c-0.23,0.64-0.64,1.3-0.18,2.07c0.08,0.13-0.03,0.42-0.16,0.56c-0.89,0.96-0.81,2.35-1.5,3.3
						c-0.53,0.73-0.67,1.51-1.02,2.25c-0.29,0.63-0.15,1.4-0.92,1.89c-0.26,0.16,0.06,0.95-0.05,1.42c-0.26,1.1-0.54,2.19-0.93,3.24
						c-1.21,3.2-1.2,6.7-2.39,9.9c0.14,2.57-1.3,4.78-1.58,7.23c-0.33,2.96-1.41,5.69-2,8.56c-0.12,0.59-0.28,1.05-0.63,1.5
						c-0.23,0.29-0.48,0.6-0.59,0.95c-0.42,1.33-0.74,2.69-1.19,4c-0.25,0.7-0.06,1.62-1.01,2.03c-0.13,0.06-0.21,0.38-0.16,0.55
						c0.43,1.39-0.41,2.53-0.67,3.78c-0.1,0.48-0.26,0.92-0.68,1.35c-0.46,0.46-0.68,1.33-0.57,1.99c0.08,0.5-0.02,0.88-0.08,1.31
						c-0.24,1.8-1.54,3.36-1.1,5.31c-1.07,0.65-1.12,1.83-1.19,2.78c-0.25,3.66-1.8,6.96-2.65,10.45c-0.21,0.84-0.8,1.58-1.11,2.4
						c-0.33,0.87-0.56,1.77-0.78,2.67c-0.12,0.48-0.55,0.95-0.06,1.5c0.04,0.04,0.04,0.13,0.02,0.18c-0.25,0.48-0.62,0.93-0.72,1.44
						c-0.09,0.46,0.19,0.99,0.17,1.47c-0.03,0.58-0.18,1.15-0.33,1.71c-0.14,0.54-0.17,1.15-0.83,1.44
						c0.54,0.61,0.03,1.13-0.08,1.68c-0.1,0.52-0.28,1.02-0.43,1.53l-0.5,1.72c-0.17,0.57-0.39,1.13-0.48,1.72
						c-0.13,0.81-0.12,1.64-0.28,2.44c-0.17,0.84-0.41,1.68-0.72,2.48c-0.38,1.01-0.88,1.97-1.3,2.97
						c-0.09,0.21-0.11,0.41-0.11,0.63c0,0.13,0.03,0.17,0.07,0.22c0.04,0.05,0.08,0.1,0.13,0.14c0.13,0.12,0.35,0.22,0.45,0.29
						c0.09,0.07,0.05,0.11-0.42,0.31l-0.08,0.04c-0.17,0.08,0.02,0.22,0.19,0.23l0.42,0.05c0.12,0.03,0.12-0.04,0.41,0.23
						c0.43,0.39,0.82,0.83,1.19,1.29c0.74,0.91,1.42,1.88,2.29,2.66c0.32,1.43,1.47,2.07,2.5,2.93c1.51,1.27,2.97,2.74,3.93,4.45
						c1.01,1.81,2.52,3.13,3.72,4.74c0.34,0.45,0.94,0.73,0.78,1.51c-0.04,0.18,0.28,0.47,0.5,0.58c1.58,0.77,2.48,2.08,3.25,3.6
						c0.41,0.8,1.26,1.36,2.09,1.92c1.24,0.84,2.08,2.2,3.09,3.34c-0.15,1.01,0.79,0.87,1.26,0.9c0.64,0.04,0.98,0.3,1.34,0.69
						c0.47,0.51,0.81,1.11,1.65,1.28c0.12,0.03,0.2,0.05,0.34,0.18c0.19,0.17,0.38,0.38,0.57,0.6c0.36,0.44,0.67,0.91,0.79,1.25
						c0.3,0.89,0.67,1.05,1.54,1.67c0.51,0.36,0.76,0.81,0.96,1.25c0.21,0.45,0.36,0.89,0.81,1.36c0.47,0.51,1.13,1.08,1.61,1.63
						c0.48,0.54,0.8,1.06,0.49,1.33c-0.06,0.05,0.22,0.35,0.45,0.51c1.54,1.11,2.25,2.05,2.74,2.83c0.51,0.81,0.8,1.45,2.01,2.54
						c0.71,1.2,1.62,2.42,2.73,3.74c-2.58-0.68-4.8-1.15-7.14-1.66c-2.32-0.51-4.74-1.05-7.23-1.76c-1.43-0.41-2.89-0.94-4.23-1.38
						c-1.35-0.44-2.56-0.79-3.85-0.9c-0.8-0.09-1.08-0.08-1.55-0.12c-0.43-0.04-0.86-0.1-1.29-0.17c-0.86-0.14-1.7-0.33-2.54-0.54
						c-1.68-0.42-3.34-0.91-5.04-1.24c-0.72-0.14-1.62,0.03-2.08-0.9c-0.06-0.13-0.39-0.2-0.56-0.13c-1.23,0.46-2.22-0.01-3.18-0.74
						c-0.23-0.18-0.72-0.28-0.92-0.13c-0.57,0.43-1.04,0.09-1.51-0.04c-0.57-0.15-1.23-0.8-1.63-0.61c-0.87,0.4-1.13-0.34-1.67-0.58
						c-0.33-0.15-0.75-0.09-1.13-0.09c-0.18,0-0.45,0.19-0.53,0.11c-0.98-0.93-2.31-0.24-3.37-0.77c-0.23-0.11-0.49-0.16-0.7-0.29
						c-2.44-1.49-2.44-1.5-5.89-1.84c-0.69-1.16-2.09-0.02-2.92-0.98c-0.3-0.35-1.01-0.45-1.51-0.37c-2.18,0.36-4.08-0.77-6.14-1
						c-0.43-0.05-0.6-0.76-1.25-0.37c-0.25,0.15-0.8-0.58-1.26-0.66c-0.67-0.13-1.29-0.63-2.09-0.17c-0.33,0.19-0.87-0.15-1.33-0.2
						c-0.62-0.07-1.17-0.45-1.9-0.08c-0.4,0.2-1.17,0.03-1.49-0.31c-1.33-1.38-2.98-0.81-4.52-0.79c-0.46,0-0.79,0.03-1.21-0.23
						c-0.59-0.37-1.38-0.86-1.95-0.67c-1.01,0.33-1.8-0.09-2.66-0.26c-1.49-0.29-2.96-0.74-4.46-1.02
						c-1.71-0.31-3.33-0.97-5.16-0.87c-0.98,0.06-2.26,0.02-3.06-1.05c-0.09-0.12-0.6,0.25-0.87,0.19
						c-2.14-0.47-4.27-0.95-6.38-1.51c-0.49-0.13-0.83-1.09-1.44-0.53c-0.65,0.6-0.84-0.92-1.44-0.16
						c-0.09,0.11-0.53-0.01-0.74-0.14c-2.29-1.48-5.01-1.39-7.48-2.21c-0.59-0.2-1.36-0.02-1.67-0.85c-1.72,0.43-3.05-1.6-4.84-0.69
						c-1.05-0.47-2.39-0.08-3.25-1.18c-0.14-0.18-0.56-0.06-0.73-0.23c-0.57-0.58-1.29,0.61-1.95-0.25c-0.38-0.49-1.31-0.48-2-0.66
						c-0.64-0.17-1.29-0.31-1.93-0.46l-2.19-0.52c-1.2-0.28-2.35-0.61-3.58-0.83c-1.24-0.23-2.61-0.38-4.01-0.58
						c-1.39-0.2-2.83-0.46-3.95-0.84c-0.24-0.08-0.89-0.13-1.24-0.08c-1.46,0.24-2.33,0.16-2.82-0.01
						c-0.49-0.18-0.59-0.44-0.69-0.64c-0.17-0.32-0.48-0.53-1.29-0.72c-2.2-0.5-4.53-1.01-6.48-1.54c-0.83-0.23-2.51-0.43-2.8-0.69
						c0.2-0.06,0.56-0.14,1.15-0.22c0.71-0.1,0.31-0.24-0.3-0.31c-1.42-0.15-1.74-0.36-1.9-0.58c-0.14-0.22-0.11-0.45-0.4-0.66
						c-0.25-0.19-0.33-0.39-0.44-0.59c-0.12-0.15-0.88-0.27-0.34-0.45c-0.56-0.22-0.75-0.46-0.87-0.7
						c-0.12-0.24-0.16-0.49-0.24-0.73c0.14-0.25,0.33-0.49,0.45-0.74c0.31-0.71,0.68-1.41,1.22-2.07c0.18-0.16-0.83-0.61,1.51-0.24
						c0.45,0.07,0.57-0.04,0.13-0.19c-1.18-0.38-1.92-0.64,0.01-0.32c0.36,0.06,0.05-0.12-0.29-0.26l-0.03-0.01
						c-0.01-0.29,1.1-0.31,3.01-0.14c1.5,0.13,2.93,0.19,3.26,0.01c0.44-0.24,1.01-0.46,1.98-0.56c0.97-0.1,2.34-0.06,4.22,0.23
						c0.44,0.07,0.16-0.42,0.72-0.42c1.04-0.01,1.85-0.13,2.8-0.19c0.94-0.06,2-0.07,3.28,0.16c1.03,0.19,1.9-0.04,2.89-0.03
						c0.83,0.01,1.53-0.1,2.29-0.2c0.75-0.1,1.55-0.19,2.42-0.12c2.06,0.13,2.69-0.09,3.75-0.15l2.98-0.16l2.98-0.16l2.98-0.16
						l2.98-0.16l2.98-0.16c0.7-0.03,1.34,0.02,2.06,0.28c1.83,0.67,3.99,0.45,6.6-0.3c0.19-0.05,0.4-0.03,0.59-0.04
						c2.58-0.14,5.16-0.42,7.74-0.35c1.13,0.03,2.28,0.31,3.43,0.19c0.75-0.08,1.49,0,2.22-0.52c0.61-0.43,1.52,0.21,2.21-0.54
						c0.25-0.27,0.96-0.3,1.33-0.11c1.22,0.64,2.43,0.2,3.64,0.2c1.39-0.01,2.78-0.1,4.17-0.22c0.68-0.06,1.38,0.14,2.04-0.48
						c0.33-0.3,1.16-0.15,1.67,0.07c0.79,0.33,1.56,0.22,2.28,0.02c1.54-0.43,1.53-0.49,3.09-0.14c0.19,0.04,0.39,0.03,0.58,0.02
						c1.92-0.1,3.89,0.07,5.74-0.39c1.54-0.38,3.06-0.49,4.59-0.59c0.61-0.04,1.3-0.41,1.86,0.31c0.08,0.1,0.43,0.07,0.57-0.03
						c1.24-0.89,2.65-0.53,3.99-0.61c1.29-0.08,2.45-0.81,3.78-0.72c1.25,0.09,2.51-0.11,3.77-0.17c1.91-0.1,2.34,0.33,2.45,2.37
						c0.09,1.69-0.38,2.08-1.89,2.52C152.46,162.29,149.16,161.9,146.53,162.27z"/>
				</g>
			</g>
		</g>
	</g>
	<g>
		<g>
			<g>
				<g>
					<path d="M47.05,170.02c2.11,1.34,3.8,2.48,5.58,3.49c0.28,0.16,0.79,0.02,1.12,0.24c1.33,0.88,2.91,1.45,3.96,2.65
						c1.15,1.31,2.54,2.26,4.06,2.85c1.44,0.56,2.65,1.44,3.97,2.17c0.44,0.24,0.91,0.44,1.13,1.11c0.16,0.49,0.76,0.91,1.53,0.72
						c0.15-0.04,0.28,0.18,0.39,0.32c0.12,0.14,0.17,0.46,0.32,0.47c1.72,0.05,2.65,1.44,4.03,2.06c0.34,0.16,0.55,0.59,1.13,0.27
						c0.15-0.08,0.47,0.09,0.49,0.27c0.05,0.46,0.25,0.68,0.56,0.86l3.91,2.48c1.04-0.24,1.58,0.51,2.26,0.95
						c0.51,0.33,0.88,0.88,1.31,1.33c0.44,0.45,1.25,0.4,1.38,1.28c0.02,0.14,0.33,0.1,0.48,0.18c0.68,0.37,1.48,0.59,1.95,1.19
						c0.24,0.31,0.49,0.61,0.8,0.81l12.09,7.69c0.35,0.22,0.64,0.51,1.25,0.38c0.47-0.1,1.12,0.29,1.21,0.76
						c0.15,0.76,0.7,0.84,1.11,1.14c0.76,0.56,1.61,0.99,2.37,1.55c0.45,0.33,1.19,0.34,1.19,1.25c0,0.09,0.15,0.18,0.24,0.15
						c0.92-0.29,1.1,0.56,1.57,0.97c0.34,0.3,0.73,0.54,1.34,0.5c0.59-0.04,1.3,0.34,1.47,0.9c0.23,0.75,0.78,0.9,1.25,1.2
						c2.75,1.8,5.51,3.57,8.31,5.29c1.32,0.81,2.98,1.07,4.15,2.14c0.28,0.25,0.78,0.23,0.77,0.86c0,0.13,0.29,0.24,0.46,0.19
						c0.62-0.17,0.88,0.21,1.27,0.49c0.89,0.63,1.77,1.3,2.68,1.92c0.45,0.3,0.93,0.6,1.39,0.85c0.35,0.18,0.7,0.32,1.03,0.4
						c0.11,0.03,0.21,0.05,0.31,0.08c0.47-0.29,0.87-0.46,1.31-0.63c0.69-0.26,1.38-0.5,2.06-0.8c0.51-0.22,1.15-0.07,1.7-0.18
						c0.54-0.11,1.04-0.33,1.55-0.54c0.3-0.13,0.66-0.09,0.82-0.6c0.09-0.27,0.5-0.49,0.75-0.38c0.81,0.38,1.37-0.08,2-0.29
						l5.35-1.87c0.44-0.15,0.82-0.62,1.44-0.14c0.08,0.07,0.26-0.22,0.4-0.34c0.15-0.12,0.3-0.38,0.45-0.34
						c1.44,0.39,2.49-0.5,3.68-0.89c2.89-0.94,5.71-2.07,8.6-2.98c0.81-0.25,1.32-1.03,2.11-1.28c0.76-0.24,1.49-0.56,2.26-0.78
						c0.54-0.16,1-0.64,1.72-0.18c0.2,0.12,0.58-0.02,0.68-0.24c0.37-0.83,1.13-0.74,1.72-1.06c0.72-0.39,1.64-0.27,2.16-1.19
						c0.14-0.25,0.65-0.04,0.97-0.12c0.55-0.14,1.1-0.31,1.62-0.53c0.25-0.11,0.42-0.43,0.67-0.54l2.88-1.3l0.72-0.32l0.36-0.16
						c0.12-0.05,0.14-0.07,0.21-0.1l0.71-0.33c0.93-0.41,1.96-0.72,2.98-1.08c1.02-0.36,1.81-0.7,3.09-1.07
						c0.11-0.03,0.12-0.06,0.12-0.08c-0.66-0.06-1.4-0.06,0.51-0.34c-2.1,0.06-1.3-0.09-0.1-0.43c0.17-0.05-0.67,0.02-0.97,0.03
						c-0.47,0.01-1.34,0.1-1.79,0.13c-0.46,0.03-0.51,0,0.43-0.29c0.07-0.02-0.07-0.01-0.07-0.02c0.01-0.07-0.58,0.01-1.02,0.07
						c-0.44,0.06-0.73,0.09-0.32-0.12c0.49-0.27-0.19-0.27-0.43-0.36c-0.26-0.1-0.54-0.2-0.96-0.21c-0.21,0-0.27-0.12-0.43-0.17
						c-0.16-0.05-0.41-0.03-0.84,0.25c-0.13,0.1,0.05-0.4-0.13-0.41c-0.41,0-0.69-0.2-1.06-0.32c-0.57-0.17-1.22-0.27-1.92,0.02
						c-0.32,0.13-0.75,0.01-1-0.23c-0.9-0.87-1.97-0.78-3.1-0.8c-1.49-0.03-3.04-0.27-4.22-1.51c-0.25-0.26-0.35-0.45-0.72-0.19
						c-0.25,0.17-0.58,0.04-0.86-0.03l-9.3-2.18c-0.84-0.2-1.46-1.08-2.39-1.03c-0.38,0.02-0.72-0.43-1.15,0.09
						c-0.06,0.07-0.22,0.08-0.28,0.02c-0.88-0.93-2.14-0.2-3.1-0.73c-0.21-0.11-0.39-0.29-0.59-0.42c-0.21-0.13-0.43-0.36-0.64-0.3
						c-1.78,0.47-3.27-0.55-4.92-0.72c-0.56-0.06-1.07-0.58-1.73,0.02c-0.1,0.09-0.34,0.02-0.42-0.1c-0.73-1.09-1.92-0.66-2.84-1.12
						c-0.47-0.23-1.14,0.11-1.42-0.71c-0.04-0.1-0.25-0.08-0.39-0.06c-0.24,0.04-0.5,0.22-0.71,0.16c-0.57-0.17-1.1-0.71-1.67-0.6
						c-0.7,0.14-1.26-0.12-1.87-0.24c-0.35-0.07-0.62-0.48-0.95-0.63c-0.32-0.15-0.67-0.17-1.01-0.25
						c-0.48-0.11-1.02-0.11-1.44-0.38c-0.44-0.28-0.99,0.38-1.4-0.25c-0.31-0.48-0.94,0.1-1.4,0.07c-0.23-0.01-0.45-0.15-0.66-0.28
						c-0.16-0.1-0.27-0.37-0.43-0.39c-0.37-0.04-0.69-0.26-1.15-0.04c-0.32,0.15-0.7-0.36-1.08-0.5c-0.37-0.14-0.77-0.19-1.16-0.28
						c-0.39-0.09-0.77-0.33-1.16-0.25c-1.72,0.38-3.19-0.44-4.77-0.71c-0.41-0.07-0.93,0.07-1.13-0.64
						c-0.04-0.13-0.26-0.19-0.4-0.15c-1.69,0.53-3.07-0.53-4.63-0.64c-1.11-0.07-2.25,0.02-3.33-0.32c-1.04-0.33-2.1-0.76-3.2-0.7
						c-0.9,0.05-1.79,0.09-2.58-0.27c-0.77-0.35-1.85,0.73-2.39-0.52c-0.82-0.19-1.66-0.35-2.47-0.59c-0.68-0.2-1.46-0.09-1.98-0.87
						c-0.19-0.28-0.67-0.38-0.99-0.24c-1.02,0.46-1.81,0.07-2.61-0.47c-0.19-0.13-0.52,0.13-0.77,0.08
						c-0.73-0.13-1.48-0.25-2.18-0.51c-2.09-0.78-4.38-0.55-6.53-1.05c-0.4-0.09-0.95,0.31-1.27,0.09
						c-1.94-1.31-4.32-0.99-6.31-1.96c-2.95-1.43-6.18-1.66-9.25-2.55c-0.4-0.12-0.7-0.75-0.93-0.64c-0.71,0.34-1.29-0.23-1.87,0.01
						c-1.05,0.43-1.83-0.21-2.75-0.25c-0.67-0.03-1.26-0.63-2.02-0.03c-0.11,0.09-0.33,0.02-0.42-0.1
						c-0.78-0.91-1.96-0.11-2.82-0.65c-1.97,0.42-3.66-0.59-5.5-0.83c-0.27-0.04-0.57,0.08-0.86,0.12
						c-0.14,0.02-0.33,0.09-0.43,0.01c-1.42-1.26-3.27-0.98-4.87-1.6c-0.53-0.21-1-0.58-1.53-0.79c-0.53-0.22-1.15-0.13-1.54-0.8
						c-0.12-0.21-0.46-0.2-0.71-0.18c-1.35,0.06-2.02-1.32-1.61-3.18c0.15-0.67,0.42-0.65,0.75-0.84c0.64-0.36,1.24-0.55,1.87-0.34
						c0.49,0.16,0.99,0.5,1.58-0.04c0.1-0.09,0.32-0.01,0.42,0.1c0.72,0.78,1.79,0.54,2.5,1.13c0.55,0.45,1.14,0.5,1.71,0.77
						c0.47,0.22,1.07,0,1.43,0.71c0.12,0.24,0.73-0.16,1.09-0.1c0.84,0.14,1.67,0.3,2.47,0.58c2.43,0.85,5.11,0.48,7.54,1.31
						c1.97-0.41,3.64,0.78,5.51,0.79c2.26,0.01,4.34,0.78,6.52,1.07c0.45,0.06,0.8,0.16,1.14,0.46c0.22,0.2,0.45,0.41,0.72,0.48
						c1.01,0.27,2.04,0.44,3.04,0.75c0.53,0.17,1.24-0.11,1.54,0.78c0.04,0.12,0.29,0.17,0.42,0.1c1.07-0.57,1.93,0.14,2.89,0.26
						c0.36,0.05,0.7,0.16,1.02,0.53c0.35,0.4,1.01,0.52,1.52,0.35c0.38-0.13,0.68-0.07,1.01-0.06c1.37,0.05,2.55,1.16,4.05,0.52
						c0.48,0.99,1.38,0.91,2.11,0.87c2.8-0.14,5.3,1.03,7.96,1.51c0.64,0.11,1.2,0.62,1.82,0.84c0.66,0.23,1.35,0.36,2.03,0.48
						c0.37,0.07,0.72,0.44,1.15-0.1c0.03-0.04,0.1-0.06,0.14-0.04c0.36,0.19,0.7,0.51,1.09,0.55c0.35,0.04,0.76-0.29,1.13-0.32
						c0.44-0.03,0.88,0.06,1.3,0.14c0.41,0.08,0.88,0.05,1.09,0.66c0.48-0.59,0.87-0.15,1.29-0.1c0.4,0.04,0.78,0.17,1.16,0.26
						l1.31,0.31c0.44,0.1,0.86,0.26,1.31,0.29c0.61,0.05,1.26-0.06,1.87,0.01c0.64,0.08,1.28,0.23,1.89,0.44
						c0.77,0.27,1.5,0.66,2.25,0.96c0.31,0.13,0.63,0.02,1-0.14c0.49-0.21,1.19-0.78,1.52,0.26c0.07,0.2,0.46,0.24,0.7,0.18
						c1.9-0.54,3.45,0.65,5.21,0.79c0.77,0.91,1.78,0.7,2.8,0.74c1.49,0.05,3.03,0.3,4.34,1.04c1.38,0.78,2.89,0.88,4.31,1.38
						c0.4,0.14,0.91-0.01,1.11,0.69c0.05,0.16,0.37,0.19,0.56,0.14c1.34-0.37,2.45,0.08,3.56,0.79c0.59,0.37,1.37,0.28,2.13,0.21
						c1.14-0.11,2.24,0.43,3.35,0.69c0.3,0.88,0.86,0.19,1.18-0.08c0.43-0.36,0.76-0.37,1.16-0.29c0.51,0.11,0.97,0.36,1.59-0.02
						c0.31-0.19,0.87,0,1.08,0.33c0.28,0.44,0.46,0.31,0.85,0.15c0.46-0.19,0.71,0.62,1.22,0.71c0.54,0.09,1.26-0.15,1.54,0.76
						c0.03,0.08,0.19,0.11,0.28,0.07c1.18-0.58,1.89,0.83,2.96,0.71c2.73,1.6,5.9,1.54,8.78,2.56c1.19,0.42,2.28,1.3,3.57,1.22
						c1.35-0.08,2.63,0.16,3.89,0.48l1.88,0.51l1.19,0.3c0.53,0.12,1.06,0.24,1.59,0.35c0.87,0.17,2.29,0.13,2.38,0.97
						c0.01,0.12,0.4,0.2,0.66,0.16c2.01-0.28,3.28,0.26,3.79,0.88c0.13,0.15,0.71,0.27,1.22,0.2c1.46-0.22,1.77,0.08,2.33,0.23
						c0.72,0.19,0.64,0.66,1.64,0.61c2.23-0.08,1.28,0.37,1.64,0.57c0.24,0.13,1.08,0.17,1.76,0.23c0.32,0.03,1.24,0,1.2,0.05
						c-0.22,0.3,0.63,0.42,1.7,0.54c1.06,0.12,2.34,0.24,2.6,0.45c0.1,0.09,0.48,0.16,0.5,0.24c0.03,0.11,0.03,0.21-0.06,0.27
						c-4.41,0.92-4.31,0.93-6.54,2.15c-1.82,0.13-2,0.32-2.21,0.54c-0.19,0.22-0.42,0.48-1.78,0.58c-0.99,0.06-1.56,0.33-1.67,0.58
						c-0.25,0.54-1.41,1-2.61,1.4c-1.22,0.4-2.48,0.74-3.5,1.23c-0.46,0.22-1.35-0.16-1.52,0.46c-0.09,0.24-1.27,0.05-1.73,0.24
						c-0.68,0.28-1.69,0.26-1.85,0.99c-0.11,0.31-0.61,0.27-0.91,0.44c-0.41,0.23-0.94,0.15-1.2,0.8c-0.15,0.36-0.7,0.56-1.06,0.42
						c-1.49-0.58-2.22,0.68-3.16,1.4c-0.28,0.22-0.47,0.39-0.86,0.36c-0.54-0.04-1.27-0.1-1.52,0.32c-0.46,0.75-1.15,0.75-1.76,1
						c-1.06,0.44-2.17,0.73-3.22,1.18c-1.2,0.52-2.51,0.7-3.58,1.63c-0.57,0.5-1.37,1.06-2.38,0.51c-0.11-0.06-0.25,0.5-0.44,0.57
						c-1.53,0.58-3.08,1.16-4.64,1.64c-0.36,0.11-1.04-0.55-1.14,0.21c-0.1,0.81-0.96-0.4-0.96,0.52c0,0.13-0.33,0.24-0.52,0.22
						c-2.12-0.22-3.75,1.12-5.66,1.55c-0.46,0.1-0.84,0.61-1.44,0.05c-0.84,1.16-2.64,0.03-3.3,1.64c-0.87,0.08-1.5,1.03-2.56,0.48
						c-0.17-0.09-0.38,0.21-0.56,0.14c-0.63-0.24-0.49,1.12-1.31,0.69c-0.47-0.25-1.03,0.2-1.55,0.35c-0.48,0.15-0.94,0.33-1.41,0.5
						l-1.86,0.66c-0.87,0.31-1.73,0.56-2.6,0.94l-0.12,0.05c-0.77-0.41-1.58-0.73-2.43-1.13l-0.64-0.31l-0.49-0.25
						c-0.24-0.13-0.47-0.28-0.67-0.48c-0.09-0.08-0.32-0.11-0.43-0.02c-0.93,0.75-1.06-0.09-1.21-0.57
						c-0.12-0.4-0.28-0.66-0.58-0.84c-0.81-0.5-1.63-0.97-2.38-1.53c-0.45-0.34-1.15-0.35-1.22-1.24c-0.02-0.27-0.43-0.47-0.73-0.48
						c-1.4-0.01-2.2-1.04-3.27-1.59c-0.49-0.25-0.94-0.57-1.39-0.88c-0.34-0.24-0.95-0.05-1.05-0.66c-2.2-0.32-3.63-1.93-5.41-2.94
						c-1.78-1.01-3.47-2.15-5.17-3.28c-0.42-0.28-1.1-0.29-1.08-1.17c0-0.17-0.31-0.36-0.48-0.29c-0.47,0.18-0.77,0.24-0.76-0.4
						c0-0.12-0.3-0.17-0.48-0.16c-0.51,0.03-0.81-0.2-1.03-0.67c-0.17-0.36-0.48-0.72-0.85-0.76c-0.98-0.12-1.88-0.26-2.2-1.4
						c-0.04-0.14-0.57,0.13-0.72,0c-0.59-0.49-1.47-0.57-1.78-1.49c-0.13-0.38-0.62-0.46-0.91-0.73c-0.5-0.46-1.26-0.45-1.72-1.02
						c-0.47-0.58-1.22-0.84-1.85-1.24l-1.89-1.2l-1.89-1.2l-1.89-1.2l-1.89-1.2l-1.89-1.2c-0.44-0.29-0.8-0.62-1.08-1.15
						c-0.72-1.37-2.15-2.15-4.16-2.71c-0.14-0.04-0.25-0.16-0.38-0.24c-1.64-1.04-3.36-1.97-4.87-3.18
						c-0.67-0.53-1.2-1.28-1.96-1.69c-0.5-0.27-0.9-0.67-1.63-0.57c-0.61,0.08-0.8-0.85-1.64-0.55c-0.31,0.11-0.75-0.19-0.86-0.51
						c-0.37-1.07-1.35-1.26-2.09-1.8c-0.84-0.62-1.74-1.16-2.64-1.68c-0.45-0.25-0.75-0.73-1.5-0.52c-0.37,0.1-0.79-0.4-0.97-0.8
						c-0.29-0.63-0.82-0.88-1.36-1.04c-1.17-0.34-1.2-0.28-1.95-1.27c-0.09-0.12-0.21-0.2-0.34-0.28c-1.22-0.78-2.31-1.8-3.69-2.25
						c-1.15-0.37-2.12-0.97-3.11-1.58c-0.39-0.24-1.02-0.24-0.95-1.09c0.01-0.12-0.22-0.25-0.36-0.23c-1.25,0.17-1.9-0.76-2.76-1.28
						c-0.83-0.51-1.94-0.43-2.69-1.11c-0.7-0.63-1.58-1.04-2.37-1.55c-1.21-0.78-1.23-1.32-0.12-3.05c0.91-1.43,1.41-1.54,2.58-1.22
						C43.49,167.34,45.26,169.14,47.05,170.02z"/>
				</g>
			</g>
		</g>
	</g>
	<g>
		<polygon points="132.7,226.17 95.86,340.33 196.05,203.64 		"/>
		<g>
			<g>
				<g>
					<path d="M131.3,235.01c-0.81,2.5-1.52,4.53-2.07,6.6c-0.09,0.32,0.17,0.8,0.03,1.2c-0.54,1.58-0.72,3.34-1.64,4.74
						c-1.01,1.53-1.6,3.19-1.82,4.89c-0.21,1.61-0.78,3.08-1.17,4.61c-0.13,0.51-0.21,1.04-0.82,1.45c-0.44,0.3-0.71,1.03-0.34,1.75
						c0.07,0.14-0.11,0.33-0.22,0.48c-0.11,0.16-0.41,0.3-0.38,0.45c0.36,1.75-0.77,3.08-1.05,4.64c-0.07,0.39-0.45,0.72,0.01,1.22
						c0.12,0.13,0.02,0.5-0.14,0.57c-0.44,0.18-0.6,0.45-0.71,0.8l-1.48,4.63c0.48,0.99-0.12,1.74-0.38,2.54
						c-0.2,0.61-0.65,1.13-0.98,1.69c-0.34,0.57-0.09,1.37-0.91,1.75c-0.13,0.06-0.02,0.36-0.06,0.53c-0.2,0.78-0.22,1.66-0.69,2.3
						c-0.24,0.33-0.48,0.66-0.6,1.03l-4.63,14.34c-0.13,0.42-0.34,0.79-0.07,1.36c0.21,0.45-0.01,1.21-0.45,1.43
						c-0.7,0.36-0.65,0.94-0.85,1.44c-0.36,0.93-0.58,1.9-0.95,2.83c-0.22,0.55-0.05,1.29-0.94,1.55c-0.09,0.02-0.14,0.2-0.09,0.29
						c0.5,0.85-0.28,1.26-0.57,1.86c-0.21,0.43-0.35,0.89-0.16,1.49c0.18,0.59-0.03,1.41-0.53,1.74c-0.67,0.44-0.69,1.04-0.88,1.59
						l-1.39,4.17c-0.42,1.31-0.84,2.61-1.21,3.86c-0.18,0.6-0.09,0.89-0.03,1.15c0.06,0.27,0.09,0.51-0.34,1.4l-0.02,0.05
						c-0.15,0.36,0.24-0.08-0.84,1.62c-0.23,0.37-0.18,0.42,0.06,0.11c0.86-1.12,0.41-0.32,0.25,0.1c-0.35,0.91-0.82,2.05-1.14,2.95
						c-0.32,0.89-0.49,1.56-0.14,1.22c0.42-0.44,0.12,0.41-0.07,1.08c0.17-0.24,0.35-0.5,0.56-0.84c0.29-0.46-0.42,1.12-0.36,1.17
						c0.05,0.05,0.38-0.45,0.69-0.92c0.18-0.27,0.01,0.22,1.03-1.91c0.55-1.14,0.84-1.64,0.53-0.91c-0.99,2.41-0.18,0.9,0.06,0.59
						c0.66-0.85,1.42-1.94,2.12-2.86l0.29-0.37c0.21-0.27,0.64-1.39,0.35,0.13c-0.04,0.2,0.24-0.54,0.36-0.8
						c0.13-0.29,0.34-0.9,0.34-0.75c0.02,0.69,0.33,0.43,0.64-0.02c0.33-0.46,0.66-1.11,0.96-1.49c0.74-0.94,1.49-1.99,2.23-3.01
						l1.18-1.61c0.48-0.64,0.96-1.28,1.45-1.9c0.55-0.7,0.56-1.66,1.1-2.34c0.52-0.66,0.97-1.37,1.5-2.01
						c0.38-0.46,0.51-1.14,1.37-1.19c0.24-0.01,0.48-0.36,0.45-0.61c-0.14-0.92,0.56-1.31,0.89-1.93c0.4-0.76,1.26-1.21,1.19-2.3
						c-0.02-0.29,0.54-0.43,0.76-0.69c0.39-0.45,0.77-0.92,1.09-1.42c0.16-0.24,0.12-0.61,0.27-0.85c1.17-1.88,2.31-3.77,3.56-5.6
						c1.27-1.86,2.65-3.64,3.98-5.45s2.62-3.66,4.01-5.43c0.52-0.66,0.64-1.71,1.84-1.8c0.02-0.95,0.69-1.3,1.59-1.49
						c0.13-0.03,0.06-0.38,0.11-0.57c0.15-0.6-0.27-1.58,0.9-1.5c0.04,0,0.05-0.09,0.1-0.12c0.42-0.34-0.17-1.23,0.71-1.4
						c0.55-0.11,0.82-0.75,1.17-1.18c0.37-0.44,0.74-0.89,1.01-1.4c0.28-0.53,1.03-0.77,0.75-1.66c-0.05-0.14,0.63-0.19,0.76-0.41
						c0.63-1.17,1.98-1.86,2.03-3.43c0.01-0.36,0.31-0.72,0.64-0.87c1.19-0.54,1.55-1.59,2.05-2.68c0.65-1.42,1.53-2.82,3.17-3.48
						c0.35-0.14,0.56-0.16,0.48-0.62c-0.05-0.3,0.21-0.57,0.39-0.81l5.93-8.11c0.54-0.74,1.62-1,1.96-1.91
						c0.14-0.38,0.7-0.53,0.4-1.14c-0.04-0.09,0.02-0.24,0.09-0.28c1.23-0.49,1.08-1.98,1.98-2.71c0.19-0.16,0.43-0.26,0.63-0.41
						c0.2-0.15,0.51-0.27,0.55-0.5c0.32-1.89,1.88-2.93,2.73-4.46c0.29-0.52,0.99-0.81,0.7-1.67c-0.04-0.13,0.12-0.33,0.27-0.37
						c1.32-0.29,1.42-1.59,2.23-2.3c0.41-0.36,0.38-1.14,1.26-1.1c0.11,0.01,0.18-0.21,0.22-0.35c0.07-0.24,0.01-0.57,0.15-0.74
						c0.4-0.48,1.13-0.79,1.26-1.37c0.16-0.72,0.64-1.17,1.01-1.7c0.21-0.31,0.7-0.41,0.99-0.67c0.27-0.25,0.44-0.58,0.66-0.88
						c0.31-0.42,0.53-0.94,0.95-1.24c0.44-0.32,0.07-1.1,0.82-1.25c0.58-0.12,0.3-0.94,0.53-1.38c0.11-0.22,0.33-0.38,0.54-0.53
						c0.16-0.11,0.46-0.11,0.55-0.26c0.2-0.34,0.53-0.57,0.52-1.1c-0.01-0.36,0.63-0.54,0.92-0.84c0.29-0.3,0.5-0.67,0.75-1.01
						c0.25-0.34,0.63-0.62,0.72-1.02c0.37-1.8,1.75-2.9,2.67-4.31c0.24-0.36,0.32-0.92,1.06-0.84c0.13,0.01,0.29-0.18,0.3-0.32
						c0.11-0.91,0.55-1.6,1.07-2.24l0.37-0.45l0.25-0.28c0.16-0.19,0.31-0.4,0.38-0.61c0.23-0.62,0.08-1.02,0.53-1.49
						c0.43-0.46,1.17-1.17,0.89-1.3c-0.24-0.11-0.59-0.03,0-0.56c0.3-0.27-0.27,0.03-0.61,0.21c-0.33,0.17-0.43,0.22,1.12-0.97
						l0.11-0.16c-0.29,0.11-0.59,0.24-0.77,0.26c-0.23,0.04-0.99,0.61-0.13-0.37c0.3-0.35-0.02-0.22-0.48,0.17
						c-1.47,1.24-1.33,0.98-1.42,0.66c-0.02-0.08-0.44,0.41-0.54,0.46c-0.33,0.16-0.63,0.32-0.88,0.31c-0.2,0-0.43,0.07-0.65,0.19
						c-0.11,0.06-0.22,0.12-0.32,0.19l-0.15,0.1l-0.07,0.05l-0.19,0.1c-1.03,0.53-2.06,1.1-3.15,1.49c-0.4,0.14-0.67,0.79-1.07,0.79
						c-2.45-0.01-4.38,1.59-6.69,1.89c-3.41,0.45-6.4,2.06-9.62,3.04c-0.42,0.13-1.03-0.24-1.18-0.02
						c-0.44,0.68-1.27,0.53-1.66,1.06c-0.69,0.95-1.74,0.85-2.58,1.32c-0.61,0.35-1.46,0.18-1.81,1.1c-0.05,0.13-0.28,0.2-0.43,0.16
						c-1.2-0.32-1.8,1-2.86,1.03c-1.52,1.45-3.58,1.56-5.34,2.38c-0.26,0.12-0.46,0.39-0.69,0.58c-0.12,0.1-0.24,0.26-0.37,0.24
						c-1.96-0.26-3.44,1.01-5.2,1.38c-0.58,0.12-1.21,0.08-1.79,0.19c-0.59,0.11-1.09,0.53-1.81,0.19
						c-0.22-0.11-0.52,0.09-0.73,0.24c-1.17,0.81-2.53,0.03-3.18-1.76c-0.24-0.65,0.01-0.78,0.21-1.12c0.37-0.66,0.8-1.15,1.47-1.33
						c0.52-0.14,1.15-0.14,1.38-0.92c0.04-0.13,0.28-0.19,0.43-0.16c1.07,0.25,1.89-0.54,2.85-0.46c0.74,0.07,1.29-0.22,1.94-0.31
						c0.54-0.08,0.95-0.6,1.66-0.21c0.24,0.13,0.56-0.54,0.91-0.69c0.82-0.35,1.65-0.69,2.51-0.9c2.63-0.65,4.8-2.46,7.41-3.12
						c1.52-1.45,3.66-1.38,5.33-2.42c2.01-1.26,4.28-1.77,6.38-2.76c0.43-0.2,0.8-0.31,1.27-0.25c0.31,0.04,0.63,0.09,0.9,0
						c1.05-0.34,2.06-0.77,3.12-1.07c0.57-0.16,1.04-0.79,1.8-0.21c0.1,0.08,0.35-0.02,0.43-0.15c0.64-1.08,1.79-0.97,2.7-1.4
						c0.35-0.16,0.71-0.26,1.2-0.13c0.53,0.14,1.19-0.13,1.54-0.56c0.26-0.33,0.56-0.44,0.86-0.61c1.31-0.75,2.61-0.35,4.58-2.08
						c0.98,0.55,2-0.11,3.12-0.72c2.07-1.15,4.23-1.98,6.17-2.64c1.97-0.67,3.71-1.18,5.84-2.01c1.06-0.41,1.1-0.04,1.79-0.21
						l0.13-0.04c-0.72,0.88-1.2,1.59-1.68,2.3c-0.28,0.42-1.29,1.32-0.11,0.76c0.09-0.04,0.1,0,0.04,0.06
						c-0.6,0.65-1.47,1.43-1.71,1.84c-0.21,0.36,0.36,0.29,0.23,0.65c-0.14,0.42-0.56,1.01-0.96,1.58c-0.38,0.54-0.61,1.1-1.84,1.83
						c0.81,0.06-0.24,0.91-0.56,1.43c-0.32,0.52-0.77,1.06-1.16,1.6l-1.32,1.8c-0.44,0.6-0.94,1.18-1.31,1.8
						c-0.25,0.43-0.48,0.88-0.72,1.35c-0.12,0.31-0.24,0.61-0.41,0.89c-0.34,0.59-0.75,1.14-1.2,1.65c-0.57,0.63-1.24,1.19-1.84,1.8
						c-0.25,0.25-0.29,0.6-0.29,1.02c-0.01,0.56,0.22,1.44-0.88,1.36c-0.22-0.01-0.42,0.35-0.46,0.61c-0.3,2.03-2.05,3.07-2.92,4.71
						c-1.17,0.4-1.4,1.45-1.86,2.41c-0.68,1.42-1.55,2.8-2.78,3.77c-1.31,1.03-2.03,2.45-3.09,3.62c-0.3,0.33-0.37,0.87-1.11,0.8
						c-0.17-0.02-0.33,0.28-0.36,0.48c-0.22,1.43-1.11,2.32-2.23,3.12c-0.59,0.42-0.83,1.21-1.09,1.97
						c-0.38,1.14-1.34,1.99-2.05,2.96c-0.94-0.05-0.54,0.75-0.42,1.17c0.16,0.56,0.02,0.87-0.22,1.22c-0.31,0.45-0.74,0.8-0.65,1.53
						c0.05,0.38-0.37,0.84-0.76,0.91c-0.53,0.1-0.48,0.32-0.5,0.76c-0.02,0.52-0.88,0.44-1.17,0.9c-0.31,0.49-0.39,1.26-1.35,1.19
						c-0.09-0.01-0.18,0.14-0.18,0.24c0.05,1.36-1.56,1.5-1.9,2.57c-2.64,2.01-3.91,5.08-6.06,7.46c-0.89,0.98-2.16,1.7-2.63,2.96
						c-0.98,2.66-3.05,4.54-4.54,6.83c-0.32,0.48-0.41,1.24-1.37,1.19c-0.13-0.01-0.28,0.21-0.27,0.36c0.08,1.13-0.6,1.67-1.52,2.08
						c-0.22,0.1-0.44,0.43-0.36,0.64c0.23,0.62-0.2,0.82-0.44,1.13c-0.29,0.37-1.04,0.58-0.99,0.97c0.12,0.83-0.61,0.71-0.96,1.01
						c-0.22,0.19-0.28,0.53-0.38,0.81c-0.05,0.14,0.05,0.42-0.05,0.45c-1.09,0.34-0.83,1.65-1.6,2.21c-0.16,0.12-0.27,0.3-0.45,0.4
						c-1.99,1.2-1.99,1.2-3.23,3.66c-1.23,0.02-0.58,1.57-1.66,1.79c-0.39,0.08-0.68,0.57-0.74,0.98c-0.26,1.81-1.79,2.75-2.55,4.21
						c-0.16,0.3-0.84,0.13-0.67,0.79c0.06,0.25-0.73,0.36-0.93,0.67c-0.29,0.45-0.91,0.7-0.72,1.51c0.08,0.33-0.37,0.59-0.54,0.92
						c-0.23,0.44-0.72,0.69-0.59,1.4c0.07,0.39-0.29,0.9-0.68,1c-1.59,0.41-1.53,1.91-1.93,3.08c-0.12,0.35-0.19,0.61-0.54,0.82
						c-0.49,0.29-1.14,0.68-1.12,1.19c0.02,0.9-0.57,1.32-0.95,1.9c-0.66,1-1.46,1.92-2.11,2.93c-0.74,1.16-1.76,2.1-2.17,3.53
						c-0.22,0.77-0.59,1.71-1.76,1.86c-0.06,0.01-0.05,0.15-0.03,0.31c0.01,0.17,0.06,0.31-0.09,0.52c-1.88,2.62-3.81,5.3-5.73,7.8
						c-0.47,0.61-0.92-0.21-1.32,1.49c-0.23,0.93-0.46,0.94-0.64,0.93c-0.19,0-0.35-0.02-0.62,1.08c-0.08,0.32-0.48,0.85-0.67,0.96
						c-0.92,0.53-1.82,1.64-2.83,3.06c-1,1.4-2.11,3.1-3.07,4.32c-0.04-0.02-0.09-0.04-0.12-0.09c-0.13-0.1-0.63,0.85-0.12-1.08
						c-0.59,1.17-0.63,0.63-0.77,0.4c-0.13-0.27-0.35-0.23-0.98,1.05c-0.09-0.17-0.33,0.09-0.51,0.16c-0.18,0.09-0.3,0-0.27-0.5
						c0.01-0.16-0.2,0.15-0.21,0.02c-0.02-0.2-0.2,0.1-0.35,0.32c-0.16,0.23-0.29,0.37-0.31,0.11c-0.03-0.27-0.37,0.05-0.58,0.11
						l-0.6,0.25l-0.04,0.02l-0.15-0.66c-0.06-0.23-0.08-0.5-0.17-0.69c-0.09-0.19-0.25-0.26-0.43-0.33
						c-0.17-0.07-0.35-0.13-0.34-0.47c0-0.07-0.13,0-0.28,0.18c-0.61,0.76-0.83,0.92-0.83,0.79c0-0.13,0.21-0.57,0.37-0.9
						c0.26-0.55,0.4-0.89,0.33-1c-0.17-0.3-0.4-0.52-0.43-1.01c0-0.23-0.44,0.13-0.14-0.52c0.21-0.43,0.5-0.96,0.91-1.65
						c0.5-0.84,0.64-1.44,0.49-1.49c-0.35-0.13-0.12-1.08,0.23-2.16c0.36-1.09,0.84-2.31,1.09-3.29c0.24-0.89,0.59-1.92,0.94-2.91
						c0.25-0.73-0.16-1.02,0.71-2.21c-0.03-1.4,0.53-3.4,1.18-5.33l1.02-2.91l0.49-1.44l0.15-0.45l0.11-0.39
						c0.56-2.07,1.27-4.1,1.97-6.13c0.17-0.51,0.02-1.19,0.88-1.41c0.16-0.04,0.27-0.41,0.17-0.57c-0.29-0.42-0.42-0.71,0.21-0.88
						c0.12-0.03,0.1-0.35,0.04-0.53c-0.15-0.51,0-0.87,0.41-1.22c0.31-0.27,0.59-0.69,0.54-1.07c-0.12-1.02-0.19-1.97,0.85-2.61
						c0.13-0.08-0.26-0.54-0.17-0.73c0.34-0.73,0.2-1.64,1.03-2.21c0.34-0.24,0.31-0.75,0.5-1.12c0.33-0.63,0.14-1.39,0.59-2.02
						c0.46-0.64,0.53-1.47,0.77-2.22l0.72-2.24l0.72-2.24l0.72-2.24l0.72-2.24l0.73-2.24c0.18-0.52,0.41-0.98,0.87-1.41
						c1.16-1.11,1.59-2.77,1.66-4.95c0-0.16,0.09-0.3,0.14-0.45c0.63-1.94,1.12-3.93,1.94-5.8c0.36-0.82,0.96-1.57,1.19-2.45
						c0.15-0.58,0.44-1.1,0.17-1.81c-0.22-0.59,0.64-1.05,0.14-1.81c-0.18-0.28,0-0.81,0.29-1.01c0.96-0.67,0.91-1.72,1.26-2.61
						c0.4-1.02,0.72-2.08,1.01-3.14c0.14-0.52,0.53-0.96,0.15-1.66c-0.19-0.34,0.2-0.9,0.55-1.21c0.55-0.47,0.67-1.07,0.69-1.67
						c0.05-1.28-0.01-1.29,0.77-2.32c0.09-0.12,0.14-0.27,0.19-0.42c0.47-1.44,1.21-2.83,1.32-4.35c0.09-1.26,0.44-2.41,0.8-3.58
						c0.14-0.46,0-1.1,0.83-1.26c0.12-0.02,0.2-0.29,0.14-0.43c-0.47-1.22,0.29-2.13,0.6-3.14c0.3-0.98-0.04-2.08,0.44-3.02
						c0.45-0.89,0.64-1.88,0.95-2.83c0.47-1.43,0.99-1.61,2.94-0.97c1.61,0.52,1.84,1,1.81,2.26
						C133.07,230.67,131.74,232.96,131.3,235.01z"/>
				</g>
			</g>
		</g>
	</g>
	<g>
		<g>
			<g>
				<g>
					<path d="M102.64,334.21c2.24-1.48,4.1-2.64,5.87-3.93c0.28-0.2,0.38-0.74,0.74-0.97c1.44-0.92,2.71-2.19,4.33-2.72
						c1.77-0.58,3.31-1.52,4.57-2.73c1.2-1.15,2.59-1.95,3.89-2.92c0.44-0.32,0.84-0.69,1.57-0.64c0.54,0.04,1.22-0.37,1.39-1.17
						c0.03-0.16,0.3-0.19,0.48-0.25c0.19-0.06,0.52,0.02,0.59-0.12c0.84-1.61,2.59-1.96,3.81-3.02c0.31-0.26,0.81-0.29,0.78-0.97
						c-0.01-0.17,0.3-0.41,0.48-0.36c0.46,0.13,0.76,0.02,1.08-0.19l4.15-2.74c0.26-1.08,1.21-1.3,1.94-1.77
						c0.55-0.35,1.23-0.49,1.86-0.73c0.63-0.24,0.96-1.03,1.85-0.82c0.14,0.03,0.24-0.27,0.39-0.38c0.66-0.5,1.24-1.17,2.03-1.39
						c0.4-0.11,0.8-0.23,1.14-0.44l12.86-8.46c0.37-0.25,0.78-0.41,0.93-1.03c0.12-0.49,0.79-0.95,1.27-0.86
						c0.79,0.15,1.11-0.34,1.59-0.61c0.88-0.51,1.68-1.14,2.56-1.65c0.52-0.3,0.87-0.99,1.73-0.64c0.08,0.03,0.24-0.07,0.26-0.17
						c0.15-0.98,1.03-0.83,1.65-1.11c0.44-0.21,0.85-0.48,1.09-1.08c0.24-0.58,0.93-1.1,1.53-1.05c0.81,0.07,1.21-0.39,1.71-0.71
						c2.97-1.9,5.93-3.83,8.85-5.81c1.38-0.94,2.39-2.4,3.94-3.1c0.37-0.17,0.58-0.65,1.17-0.4c0.12,0.05,0.36-0.18,0.39-0.36
						c0.12-0.65,0.6-0.75,1.05-1.02c2.02-1.2,4.17-2.28,5.85-3.92c1.31-1.28,2.87-2.12,4.29-3.19c0.47-0.36,1.17-0.38,1.72-0.65
						c0.43-0.19,0.73-0.43,1.04-0.68c0.17-0.14,0.55-0.2,0.29-0.54c-0.01-0.01-0.01-0.02-0.02-0.03c-0.23-0.23-0.3-0.49-0.13-0.55
						c0.3-0.11,0.38-0.35,0.37-0.6c0-0.12-0.03-0.25-0.05-0.37c-0.02-0.11-0.05-0.24-0.07-0.44l-0.63-6.06
						c-0.04-0.5-0.42-1.02,0.19-1.53c0.08-0.07-0.16-0.33-0.24-0.51c-0.09-0.19-0.3-0.41-0.23-0.56c0.7-1.4,0.07-2.72-0.04-4.06
						c-0.27-3.25-0.74-6.48-0.98-9.73c-0.07-0.91-0.71-1.64-0.77-2.53c-0.06-0.85-0.21-1.7-0.26-2.55c-0.03-0.61-0.4-1.21,0.21-1.84
						c0.17-0.17,0.11-0.61-0.08-0.77c-0.73-0.6-0.47-1.37-0.65-2.07c-0.21-0.85,0.11-1.78-0.68-2.55c-0.21-0.21,0.11-0.69,0.1-1.04
						c-0.01-0.61-0.06-1.22-0.15-1.82c-0.05-0.29-0.32-0.55-0.38-0.83c-0.41-2.22-0.85-4.44-1.16-6.68
						c-0.16-1.14-0.29-2.28-0.41-3.42l-0.32-3.18c-0.12-1.15-0.29-2.17-0.34-3.44c-0.01-0.25-0.13-0.24-0.17-0.41
						c-0.03-0.19,0.02-0.56,0.34-1.84c-0.34,0.59-0.31,0.23-0.12-0.89l0.08-0.82c0.01-0.17-0.25,0.63-0.36,0.9
						c-0.18,0.44-0.42,1.26-0.57,1.69c-0.15,0.43-0.2,0.47-0.14-0.45c0-0.07-0.04,0.07-0.05,0.06c-0.07-0.02-0.22,0.54-0.33,0.96
						c-0.11,0.42-0.19,0.69-0.26,0.28c-0.1-0.5-0.37,0.13-0.56,0.34c-0.21,0.23-0.44,0.47-0.61,0.85c-0.09,0.19-0.23,0.23-0.35,0.37
						c-0.11,0.14-0.2,0.37-0.07,0.83c0.05,0.13-0.41-0.12-0.49,0.05c-0.1,0.21-0.18,0.31-0.36,0.52l-0.67,0.77
						c-0.43,0.53-0.79,1.1-0.82,1.9c-0.02,0.36-0.32,0.74-0.65,0.89c-1.21,0.56-1.58,1.63-2.09,2.73c-0.67,1.45-1.57,2.88-3.23,3.56
						c-0.35,0.15-0.56,0.17-0.49,0.63c0.05,0.3-0.22,0.58-0.4,0.83l-6.06,8.28c-0.55,0.75-1.64,1.03-1.99,1.96
						c-0.14,0.38-0.71,0.54-0.42,1.16c0.04,0.09-0.02,0.25-0.1,0.28c-1.24,0.51-1.11,2.02-2.02,2.77c-0.19,0.16-0.44,0.27-0.64,0.42
						c-0.21,0.16-0.52,0.28-0.56,0.51c-0.34,1.92-1.93,2.99-2.8,4.55c-0.3,0.53-1,0.83-0.73,1.7c0.04,0.13-0.12,0.34-0.27,0.38
						c-1.33,0.31-1.45,1.63-2.27,2.35c-0.42,0.37-0.39,1.16-1.28,1.12c-0.11,0-0.18,0.22-0.22,0.36c-0.07,0.25-0.01,0.58-0.16,0.75
						c-0.41,0.49-1.14,0.81-1.28,1.41c-0.17,0.73-0.66,1.19-1.03,1.74c-0.22,0.31-0.71,0.42-1,0.69c-0.28,0.25-0.45,0.59-0.68,0.89
						c-0.32,0.43-0.54,0.95-0.97,1.27c-0.45,0.32-0.08,1.11-0.84,1.27c-0.58,0.12-0.32,0.95-0.55,1.4
						c-0.11,0.22-0.34,0.39-0.55,0.54c-0.16,0.12-0.46,0.12-0.55,0.27c-0.2,0.35-0.54,0.58-0.53,1.12c0.01,0.37-0.64,0.55-0.93,0.86
						c-0.29,0.31-0.51,0.68-0.77,1.03c-0.25,0.34-0.65,0.63-0.73,1.05c-0.39,1.83-1.8,2.96-2.73,4.4c-0.24,0.37-0.33,0.94-1.08,0.87
						c-0.13-0.01-0.29,0.19-0.31,0.33c-0.23,1.86-1.83,2.8-2.6,4.3c-0.55,1.06-0.96,2.21-1.74,3.14c-0.76,0.9-1.62,1.77-2.03,2.87
						c-0.34,0.9-0.69,1.78-1.37,2.42c-0.66,0.62-0.12,2.08-1.52,2.14c-0.54,0.73-1.04,1.49-1.62,2.19
						c-0.49,0.59-0.72,1.39-1.67,1.61c-0.35,0.08-0.64,0.52-0.65,0.88c-0.02,1.17-0.72,1.8-1.57,2.38c-0.2,0.14-0.11,0.56-0.26,0.78
						c-0.44,0.67-0.88,1.35-1.42,1.94c-1.63,1.75-2.41,4.08-3.8,6c-0.26,0.35-0.12,1.05-0.46,1.28c-2.06,1.41-2.79,3.85-4.56,5.45
						c-2.61,2.35-4.22,5.42-6.38,8.09c-0.28,0.35-1,0.4-1,0.66c0.01,0.82-0.77,1.18-0.8,1.84c-0.05,1.19-0.99,1.71-1.43,2.59
						c-0.32,0.64-1.13,1-0.91,1.97c0.03,0.14-0.13,0.33-0.27,0.38c-1.18,0.42-0.95,1.87-1.83,2.51c-0.47,2.09-2.13,3.36-3.16,5.08
						c-0.15,0.25-0.17,0.59-0.26,0.88c-0.05,0.15-0.06,0.36-0.18,0.42c-1.79,0.92-2.33,2.84-3.6,4.16c-0.42,0.44-0.97,0.77-1.4,1.2
						c-0.43,0.44-0.62,1.07-1.41,1.2c-0.25,0.04-0.38,0.38-0.48,0.62c-0.53,1.35-2.1,1.49-3.65,0.38c-0.56-0.4-0.42-0.66-0.45-1.05
						c-0.05-0.76,0.03-1.42,0.49-1.96c0.36-0.42,0.89-0.78,0.64-1.56c-0.04-0.13,0.13-0.32,0.27-0.38c1.03-0.41,1.28-1.55,2.13-2.03
						c0.66-0.37,0.97-0.93,1.45-1.38c0.41-0.38,0.47-1.05,1.28-1.13c0.27-0.03,0.17-0.78,0.38-1.1c0.49-0.77,1-1.52,1.61-2.2
						c1.85-2.06,2.66-4.82,4.48-6.89c0.47-2.08,2.3-3.27,3.12-5.1c0.99-2.21,2.61-3.95,3.82-5.99c0.25-0.42,0.5-0.72,0.93-0.94
						c0.28-0.14,0.58-0.29,0.76-0.52c0.69-0.88,1.3-1.84,2.02-2.69c0.39-0.46,0.44-1.26,1.4-1.21c0.13,0.01,0.28-0.22,0.28-0.37
						c-0.06-1.27,0.96-1.84,1.49-2.73c0.2-0.34,0.45-0.63,0.93-0.8c0.52-0.19,0.93-0.79,0.98-1.35c0.04-0.42,0.23-0.69,0.38-1.01
						c0.64-1.33,2.19-2.06,2.24-3.77c1.13-0.1,1.45-1.01,1.73-1.73c1.08-2.8,3.26-4.8,4.85-7.23c0.38-0.59,1.1-0.94,1.57-1.47
						c0.5-0.56,0.92-1.18,1.33-1.81c0.22-0.33,0.72-0.54,0.4-1.16c-0.02-0.05-0.01-0.12,0.03-0.15c0.33-0.28,0.78-0.49,0.99-0.86
						c0.19-0.33,0.05-0.85,0.19-1.23c0.16-0.44,0.43-0.84,0.7-1.22c0.26-0.37,0.43-0.84,1.09-0.81c-0.35-0.69,0.24-0.91,0.46-1.3
						c0.21-0.37,0.5-0.7,0.75-1.04l0.85-1.16c0.28-0.39,0.62-0.75,0.84-1.17c0.31-0.58,0.49-1.25,0.82-1.82
						c0.35-0.6,0.76-1.17,1.23-1.68c0.58-0.65,1.26-1.22,1.87-1.84c0.25-0.26,0.3-0.61,0.31-1.03c0.01-0.56-0.21-1.46,0.9-1.39
						c0.22,0.01,0.43-0.36,0.47-0.62c0.32-2.06,2.1-3.13,2.99-4.81c1.18-0.41,1.42-1.48,1.9-2.46c0.7-1.44,1.59-2.86,2.84-3.86
						c1.33-1.06,2.07-2.5,3.16-3.7c0.31-0.34,0.38-0.89,1.12-0.82c0.17,0.02,0.34-0.29,0.37-0.49c0.23-1.45,1.14-2.37,2.28-3.19
						c0.6-0.43,0.85-1.24,1.11-2.01c0.39-1.16,1.37-2.03,2.09-3.02c0.95,0.04,0.55-0.77,0.44-1.19c-0.15-0.56-0.02-0.88,0.23-1.24
						c0.32-0.46,0.76-0.82,0.67-1.56c-0.04-0.38,0.38-0.85,0.78-0.93c0.54-0.11,0.49-0.33,0.51-0.78c0.03-0.52,0.89-0.46,1.18-0.92
						c0.32-0.5,0.41-1.29,1.38-1.22c0.09,0.01,0.19-0.15,0.18-0.25c-0.03-1.38,1.59-1.53,1.94-2.63c2.68-2.07,3.99-5.19,6.18-7.63
						c0.9-1.01,2.2-1.74,2.68-3.03c0.51-1.36,1.29-2.52,2.13-3.63l1.29-1.65l0.63-0.84l0.71-1.02c0.53-0.78,1.05-2.11,2-2.04
						c0.13,0.01,0.37-0.34,0.43-0.59c0.5-1.92,1.59-3.01,2.46-3.37c0.22-0.09,0.58-0.61,0.7-1.11c0.35-1.4,0.8-1.64,1.17-2.13
						c0.49-0.64,0.97-0.48,1.31-1.42c0.8-2.1,0.91-1.13,1.27-1.43c0.23-0.2,0.61-0.98,0.95-1.59c0.16-0.29,0.49-1.15,0.54-1.11
						c0.06,0.06,0.13,0.06,0.22,0.01c-0.03,1.02,0.12,1.36,0.28,1.76c0.16,0.38,0.32,0.82,0.3,1.76c-0.01,0.46,0.04,0.78,0.01,1.26
						c-0.33,5.28-0.39,4.7,0.48,8.55c-0.38,1.01-0.22,1.47-0.01,2.02c0.2,0.53,0.44,1.15,0.15,1.9c-0.11,0.27-0.12,0.6-0.08,0.93
						c0.02,0.16,0.06,0.33,0.1,0.49c0.05,0.17,0.1,0.31,0.16,0.38c1.03,1.55,0.54,3.31,0.96,4.93c0.09,0.34-0.53,0.67,0.04,1.06
						c0.22,0.14-0.3,0.77-0.23,1.15c0.09,0.54-0.2,1.16,0.49,1.63c0.28,0.19,0.13,0.71,0.22,1.06c0.13,0.49-0.06,1.01,0.51,1.46
						c0.31,0.24,0.39,0.88,0.17,1.22c-0.9,1.4,0.16,2.49,0.66,3.65c0.15,0.35,0.28,0.59,0.16,0.99c-0.17,0.55-0.38,1.29-0.03,1.67
						c0.63,0.67,0.47,1.39,0.58,2.09c0.19,1.21,0.22,2.45,0.43,3.66c0.24,1.38,0.12,2.8,0.79,4.15c0.36,0.73,0.73,1.7-0.04,2.61
						c-0.08,0.1,0.43,0.38,0.46,0.61c0.22,1.75,0.44,3.5,0.56,5.26c0.03,0.41-0.77,0.94-0.05,1.24c0.77,0.32-0.61,0.9,0.29,1.14
						c0.13,0.03,0.16,0.4,0.09,0.6c-0.69,2.16,0.25,4.19,0.24,6.3c0,0.5,0.41,1.04-0.28,1.51c0.47,0.59,0.33,1.28,0.25,1.96
						c-0.04,0.34-0.07,0.68,0.01,1c0.04,0.16,0.1,0.32,0.2,0.47c0.05,0.09,0.1,0.12,0.18,0.25c0.07,0.13,0.16,0.26,0.25,0.39
						c-0.02,0.72,0.14,1.45,0.27,2.2c0.12,0.74,0.21,1.51,0.03,2.08c-0.21,0.07-0.44,0.12-0.67,0.16c-0.34,0.05-0.58,0.46-0.92,0.54
						c-0.57,0.12-0.68,0.46-0.89,0.82c-0.2,0.36-0.49,0.75-1.19,0.79c-0.1,0.01-0.2,0.02-0.3,0.05c-0.08,0.02-0.16,0.05-0.25,0.08
						c-0.13,0.04-0.26,0.12-0.38,0.2c-0.25,0.17-0.49,0.39-0.74,0.54c-0.46,0.28-0.9,0.58-1.34,0.88l-1.47,0.97
						c-0.49,0.32-1.01,0.6-1.47,0.98c-0.92,0.76-1.6,1.84-2.73,2.33c-0.12,0.05-0.25,0.26-0.22,0.4c0.28,1.17-0.57,0.97-1.09,0.92
						c-0.44-0.04-0.76,0.01-1.06,0.22c-0.84,0.57-1.67,1.16-2.55,1.66c-0.53,0.3-0.86,0.95-1.73,0.67c-0.27-0.09-0.65,0.22-0.79,0.5
						c-0.65,1.32-2,1.68-3.02,2.48c-0.46,0.36-0.97,0.67-1.47,0.97c-0.38,0.23-0.49,0.88-1.12,0.74c-1.31,1.96-3.5,2.68-5.29,3.98
						c-1.77,1.29-3.64,2.45-5.49,3.62c-0.46,0.29-0.78,0.93-1.6,0.57c-0.16-0.07-0.48,0.16-0.5,0.35c-0.04,0.52-0.13,0.83-0.73,0.57
						c-0.11-0.05-0.3,0.21-0.37,0.39c-0.21,0.5-0.56,0.69-1.1,0.71c-0.42,0.02-0.9,0.18-1.11,0.51c-0.56,0.88-1.11,1.68-2.34,1.54
						c-0.15-0.02-0.14,0.58-0.33,0.68c-0.74,0.37-1.21,1.17-2.23,1.11c-0.42-0.02-0.72,0.4-1.11,0.57c-0.66,0.29-1,1.02-1.76,1.23
						c-0.77,0.22-1.36,0.83-2.03,1.27l-2.01,1.32l-2.01,1.32l-2.01,1.32l-2.01,1.32l-2.01,1.32c-0.47,0.3-0.96,0.52-1.59,0.58
						c-1.62,0.15-3.03,1.2-4.49,2.89c-0.1,0.12-0.26,0.18-0.4,0.27c-1.74,1.15-3.41,2.41-5.26,3.38c-0.81,0.42-1.76,0.64-2.51,1.2
						c-0.49,0.37-1.05,0.59-1.29,1.33c-0.21,0.61-1.17,0.43-1.28,1.34c-0.04,0.33-0.52,0.64-0.88,0.62
						c-1.18-0.06-1.82,0.79-2.66,1.28c-0.97,0.56-1.9,1.19-2.81,1.85c-0.45,0.32-1.04,0.43-1.19,1.22
						c-0.07,0.39-0.74,0.59-1.21,0.61c-0.73,0.03-1.21,0.43-1.62,0.89c-0.87,0.98-0.82,1.03-2.1,1.35
						c-0.15,0.04-0.29,0.12-0.42,0.21c-1.3,0.85-2.77,1.49-3.83,2.62c-0.88,0.94-1.9,1.63-2.93,2.33c-0.41,0.28-0.7,0.87-1.46,0.47
						c-0.11-0.06-0.34,0.11-0.39,0.25c-0.42,1.25-1.6,1.51-2.49,2.11c-0.87,0.59-1.3,1.67-2.29,2.12c-0.92,0.42-1.71,1.09-2.56,1.64
						c-1.29,0.84-1.81,0.65-2.94-1.06c-0.93-1.42-0.8-1.94,0.04-2.91C98.46,336.54,100.98,335.57,102.64,334.21z"/>
				</g>
			</g>
		</g>
	</g>
	<g>
		<polygon points="203.18,269.74 308.34,331.69 196.05,203.64 		"/>
		<g>
			<g>
				<g>
					<path d="M211.54,273.06c2.28,1.34,4.11,2.48,6.02,3.48c0.3,0.16,0.82,0.01,1.18,0.23c1.44,0.88,3.12,1.44,4.29,2.65
						c1.28,1.32,2.78,2.27,4.4,2.86c1.54,0.56,2.85,1.44,4.27,2.17c0.48,0.24,0.97,0.44,1.24,1.12c0.2,0.49,0.85,0.92,1.64,0.72
						c0.15-0.04,0.3,0.18,0.43,0.32c0.13,0.15,0.2,0.47,0.36,0.47c1.79,0.03,2.85,1.43,4.33,2.06c0.37,0.16,0.61,0.6,1.2,0.26
						c0.15-0.09,0.5,0.09,0.52,0.27c0.08,0.47,0.31,0.69,0.63,0.87l4.22,2.48c1.07-0.25,1.68,0.5,2.41,0.94
						c0.55,0.33,0.97,0.88,1.45,1.33c0.48,0.46,1.33,0.39,1.52,1.28c0.03,0.14,0.35,0.09,0.51,0.18c0.73,0.37,1.58,0.59,2.11,1.19
						c0.27,0.31,0.55,0.62,0.88,0.81l13.06,7.69c0.38,0.22,0.7,0.51,1.32,0.37c0.49-0.11,1.18,0.28,1.31,0.76
						c0.2,0.77,0.78,0.84,1.23,1.14c0.83,0.56,1.74,0.99,2.57,1.55c0.49,0.33,1.26,0.34,1.32,1.26c0.01,0.09,0.17,0.18,0.26,0.15
						c0.94-0.3,1.18,0.55,1.7,0.97c0.38,0.3,0.8,0.54,1.43,0.49c0.62-0.05,1.38,0.34,1.59,0.9c0.29,0.75,0.87,0.91,1.37,1.21
						l4.04,2.42c1.19,0.7,2.38,1.39,3.53,2.05c0.55,0.31,0.9,0.32,1.2,0.33c0.31,0.03,0.58,0.07,1.32,0.66
						c0.38,0.3,0.01-0.25,1.37,1.17c0.14,0.14,0.23,0.21,0.26,0.21c0.03,0,0-0.08-0.11-0.22c-0.79-1.01-0.15-0.43,0.23-0.18
						c0.8,0.53,1.79,1.23,2.6,1.74c0.8,0.5,1.43,0.82,1.23,0.44c-0.16-0.3,0.08-0.21,0.46-0.01c0.38,0.2,0.89,0.52,1.08,0.56
						c0.01,0,0.03,0.01,0.05,0.03c-0.13-0.17,1.14,0.79,1.2,0.76c0.08-0.02-0.35-0.46-0.76-0.87c-0.23-0.24,0.24,0.07-1.7-1.5
						c-1.04-0.84-1.48-1.24-0.8-0.75c2.28,1.64,0.92,0.46,0.67,0.16l-2.64-3.06c-0.08-0.1-0.33-0.3-0.46-0.43
						c-0.2-0.19-0.17-0.24,0.73,0.2c0.21,0.1-0.5-0.38-0.74-0.57c-0.27-0.21-0.86-0.59-0.69-0.54c0.77,0.23,0.59-0.11,0.21-0.52
						c-0.39-0.42-0.97-0.92-1.27-1.29c-0.75-0.92-1.62-1.89-2.46-2.84c-0.87-0.99-1.57-1.78-2.69-3.14
						c-0.57-0.7-1.51-0.92-2.06-1.59c-0.53-0.65-1.13-1.25-1.65-1.91c-0.37-0.47-1.01-0.75-0.87-1.61c0.04-0.23-0.25-0.55-0.5-0.57
						c-0.93-0.07-1.16-0.84-1.7-1.3c-0.65-0.56-0.92-1.5-2-1.67c-0.29-0.05-0.3-0.62-0.51-0.9c-0.36-0.49-0.74-0.95-1.16-1.38
						c-0.2-0.21-0.57-0.25-0.78-0.46c-1.59-1.56-3.2-3.1-4.72-4.72c-1.55-1.65-3-3.39-4.49-5.09c-1.49-1.7-3.03-3.37-4.46-5.12
						c-0.54-0.66-1.54-1.01-1.37-2.19c-0.93-0.23-1.13-0.96-1.12-1.88c0-0.13-0.36-0.15-0.53-0.23c-0.55-0.28-1.6-0.08-1.27-1.21
						c0.01-0.04-0.07-0.07-0.1-0.12c-0.24-0.49-1.24-0.1-1.22-1c0.01-0.56-0.56-0.96-0.9-1.41c-0.36-0.46-0.71-0.92-1.15-1.3
						c-0.46-0.39-0.53-1.18-1.46-1.1c-0.15,0.01-0.05-0.66-0.24-0.83c-1.01-0.87-1.39-2.35-2.92-2.74
						c-0.35-0.09-0.64-0.46-0.72-0.82c-0.27-1.28-1.23-1.87-2.18-2.59c-1.26-0.95-2.44-2.12-2.73-3.87
						c-0.06-0.37-0.04-0.58-0.5-0.61c-0.3-0.02-0.51-0.33-0.71-0.56l-6.67-7.59c-0.61-0.69-0.63-1.81-1.45-2.34
						c-0.34-0.22-0.37-0.8-1.03-0.64c-0.09,0.02-0.24-0.07-0.25-0.15c-0.22-1.31-1.71-1.5-2.23-2.53c-0.11-0.22-0.16-0.48-0.26-0.71
						c-0.1-0.23-0.16-0.56-0.37-0.65c-1.79-0.73-2.47-2.49-3.78-3.66c-0.45-0.4-0.58-1.15-1.49-1.06c-0.14,0.01-0.3-0.19-0.3-0.34
						c0-1.35-1.25-1.74-1.78-2.69c-0.27-0.49-1.03-0.62-0.8-1.47c0.03-0.11-0.17-0.22-0.3-0.29c-0.22-0.12-0.55-0.13-0.69-0.31
						c-0.39-0.5-0.53-1.28-1.08-1.53c-0.67-0.32-1.01-0.88-1.45-1.36c-0.26-0.27-0.25-0.77-0.45-1.12
						c-0.18-0.32-0.47-0.56-0.72-0.84c-0.35-0.4-0.8-0.72-1.01-1.21c-0.21-0.5-1.06-0.31-1.05-1.08c0.01-0.59-0.85-0.5-1.23-0.82
						c-0.19-0.16-0.3-0.41-0.4-0.64c-0.08-0.18-0.01-0.48-0.14-0.59c-0.29-0.27-0.44-0.64-0.96-0.75c-0.36-0.07-0.39-0.73-0.63-1.08
						c-0.24-0.35-0.55-0.64-0.82-0.96c-0.28-0.32-0.47-0.76-0.85-0.93c-1.68-0.76-2.46-2.35-3.65-3.56
						c-0.31-0.31-0.83-0.52-0.6-1.23c0.04-0.13-0.11-0.32-0.25-0.37c-0.87-0.31-1.45-0.89-1.97-1.54l-0.76-0.98
						c-0.13-0.16-0.26-0.32-0.4-0.47l-0.22-0.22c-0.06-0.05-0.1-0.08-0.15-0.12c-0.61-0.41-1.11-0.45-1.45-0.97
						c-0.34-0.5-0.83-1.33-1.1-1.17c-0.22,0.14-0.28,0.44-0.62-0.21c-0.18-0.33-0.08,0.22-0.01,0.55c0.05,0.31,0.07,0.41-0.63-1.22
						l-0.42-0.46c0.01,0.13,0.02,0.24,0.01,0.32c-0.02,0.23,0.37,1.15-0.4-0.02c-0.28-0.41-0.22-0.06,0.05,0.51
						c0.88,1.83,0.66,1.6,0.31,1.56c-0.08-0.01,0.3,0.57,0.33,0.68c0.08,0.37,0.17,0.7,0.1,0.94c-0.1,0.37,0.08,0.97,0.28,1.38
						l0.08,0.15l0.1,0.41l0.2,0.85c0.13,0.57,0.24,1.14,0.3,1.72c0.05,0.43,0.61,0.84,0.52,1.23c-0.58,2.39,0.53,4.65,0.29,6.99
						c-0.35,3.44,0.53,6.75,0.73,10.12c0.03,0.44-0.47,0.96-0.29,1.15c0.56,0.59,0.22,1.37,0.65,1.87c0.76,0.9,0.42,1.9,0.69,2.83
						c0.2,0.68-0.16,1.47,0.65,2.03c0.12,0.08,0.13,0.32,0.05,0.46c-0.59,1.1,0.56,1.99,0.34,3.04c1.06,1.83,0.69,3.86,1.08,5.79
						c0.06,0.28,0.27,0.54,0.4,0.81c0.07,0.14,0.2,0.3,0.15,0.42c-0.7,1.86,0.19,3.61,0.14,5.42c-0.02,0.6-0.2,1.2-0.23,1.8
						c-0.03,0.6,0.26,1.19-0.24,1.81c-0.15,0.19-0.03,0.53,0.07,0.77c0.52,1.33-0.56,2.48-2.45,2.7c-0.68,0.08-0.76-0.2-1.04-0.46
						c-0.55-0.52-0.93-1.05-0.96-1.75c-0.02-0.54,0.13-1.16-0.58-1.56c-0.12-0.07-0.12-0.32-0.05-0.46
						c0.49-0.99-0.09-1.97,0.21-2.89c0.24-0.7,0.09-1.32,0.15-1.97c0.05-0.55-0.36-1.07,0.18-1.67c0.18-0.2-0.39-0.68-0.46-1.05
						c-0.15-0.88-0.29-1.77-0.29-2.67c-0.02-2.72-1.28-5.27-1.32-7.99c-1.05-1.83-0.5-3.91-1.12-5.78c-0.76-2.26-0.73-4.61-1.2-6.89
						c-0.1-0.47-0.12-0.85,0.05-1.3c0.11-0.29,0.23-0.6,0.21-0.88c-0.08-1.1-0.28-2.2-0.32-3.3c-0.02-0.59-0.52-1.2,0.21-1.81
						c0.1-0.08,0.06-0.35-0.05-0.45c-0.9-0.88-0.53-1.98-0.74-2.97c-0.08-0.38-0.09-0.75,0.15-1.2c0.26-0.49,0.15-1.19-0.19-1.63
						c-0.26-0.33-0.3-0.65-0.4-0.98c-0.21-0.71-0.15-1.39-0.19-2.19c-0.06-1-0.19-1.9-0.81-3.09c0.78-0.71,0.37-1.9,0.03-3.16
						c-0.65-2.35-0.95-4.67-1.14-6.71c-0.2-2.08-0.29-3.89-0.61-6.17c-0.08-0.56-0.02-0.84,0.05-1.04c0.45,0.66,0.9,1.34,1.26,1.79
						c0.76,0.97,1.38,1.64,2.02,2.32c0.36,0.37,0.95,1.48,0.81,0.37c-0.01-0.08,0.04-0.08,0.08-0.01c0.48,0.71,1.01,1.66,1.37,2
						c0.32,0.3,0.47-0.16,0.82,0.07c0.41,0.27,0.9,0.81,1.38,1.33c0.45,0.49,0.98,0.88,1.31,2.09c0.4-0.59,0.92,0.54,1.38,0.97
						c0.45,0.44,0.88,0.99,1.32,1.49l1.48,1.69l0.73,0.86c0.16,0.19,0.31,0.36,0.5,0.52c0.5,0.42,1.1,0.74,1.58,1.17
						c0.5,0.46,0.96,0.98,1.35,1.54c0.5,0.7,0.9,1.48,1.37,2.2c0.2,0.3,0.52,0.41,0.93,0.51c0.54,0.13,1.46,0.1,1.15,1.16
						c-0.06,0.21,0.25,0.49,0.5,0.58c1.93,0.74,2.57,2.69,3.99,3.9c0.14,1.23,1.12,1.69,1.96,2.35c1.24,0.97,2.41,2.14,3.1,3.56
						c0.73,1.5,1.96,2.52,2.88,3.83c0.26,0.37,0.78,0.56,0.55,1.26c-0.05,0.16,0.2,0.39,0.4,0.46c1.35,0.53,2.04,1.6,2.58,2.87
						c0.29,0.67,1.01,1.08,1.7,1.5c1.04,0.62,1.66,1.75,2.46,2.66c-0.25,0.91,0.62,0.69,1.06,0.67c0.58-0.03,0.86,0.17,1.15,0.48
						c0.37,0.4,0.62,0.9,1.36,0.97c0.38,0.04,0.74,0.54,0.73,0.95c-0.01,0.54,0.21,0.54,0.64,0.66c0.5,0.14,0.25,0.95,0.63,1.34
						c0.41,0.41,1.16,0.66,0.87,1.59c-0.03,0.08,0.1,0.21,0.2,0.23c1.34,0.26,1.13,1.86,2.11,2.42c1.41,3.02,4.14,4.94,6.01,7.58
						c0.77,1.08,1.2,2.49,2.34,3.23c2.4,1.55,3.8,3.98,5.72,5.95c0.41,0.42,1.12,0.68,0.87,1.6c-0.04,0.13,0.15,0.32,0.3,0.34
						c1.13,0.17,1.51,0.96,1.72,1.94c0.05,0.24,0.32,0.53,0.55,0.5c0.65-0.09,0.76,0.38,1.01,0.68c0.3,0.36,0.35,1.15,0.74,1.18
						c0.84,0.06,0.57,0.75,0.78,1.17c0.14,0.26,0.46,0.39,0.72,0.55c0.12,0.08,0.42,0.05,0.43,0.15c0.1,1.14,1.43,1.18,1.83,2.05
						c0.08,0.19,0.23,0.33,0.3,0.53c0.75,2.21,0.75,2.22,2.89,3.97c-0.24,1.2,1.42,0.92,1.39,2.02c-0.01,0.4,0.41,0.79,0.8,0.94
						c1.71,0.66,2.31,2.36,3.57,3.42c0.26,0.22-0.05,0.85,0.63,0.83c0.26-0.01,0.19,0.79,0.46,1.06c0.38,0.39,0.49,1.05,1.32,1.03
						c0.34-0.01,0.5,0.5,0.78,0.73c0.38,0.32,0.52,0.85,1.25,0.88c0.39,0.02,0.82,0.48,0.83,0.88c0.06,1.65,1.54,1.91,2.6,2.56
						c0.32,0.2,0.56,0.32,0.69,0.7c0.18,0.54,0.42,1.26,0.92,1.36c0.89,0.18,1.17,0.85,1.66,1.35c0.84,0.87,1.56,1.85,2.42,2.71
						c0.98,0.98,1.68,2.19,2.99,2.9c0.75,0.43,1.37,0.75,1.87,2.62c0.02,0.16,0.84,0.38,1.13,0.7c2.17,2.42,4.39,4.91,6.41,7.33
						c0.5,0.59-0.58,0.65,1.14,1.58c0.93,0.51,0.86,0.7,0.78,0.84c-0.07,0.15-0.15,0.28,0.95,0.87c0.32,0.17,0.75,0.69,0.8,0.87
						c0.19,0.7,0.73,1.51,1.51,2.45c0.77,0.93,1.78,1.99,2.74,3.03c0.07,0.26,0.08,0.49-0.09,0.6c-0.11,0.11,0.62,0.76-0.97-0.06
						c0.91,0.78,0.43,0.73,0.22,0.84c-0.25,0.09-0.23,0.33,0.71,1.13c-0.15,0.07,0.01,0.34,0.04,0.52c0.04,0.19-0.06,0.3-0.44,0.22
						c-0.11-0.02,0.09,0.22-0.01,0.22c-0.15,0.01,0.06,0.21,0.19,0.38c0.14,0.18,0.2,0.31,0.04,0.32c-0.17,0.03,0.01,0.4,0.03,0.62
						l0.02,0.13l-0.52,0l-0.72,0c-0.24,0-0.52-0.04-0.71,0.01c-0.19,0.06-0.27,0.24-0.34,0.42c-0.08,0.18-0.16,0.36-0.51,0.25
						c-0.08-0.03-0.02,0.14,0.16,0.36c0.72,0.9,0.86,1.17,0.72,1.13c-0.14-0.04-0.57-0.4-0.89-0.67c-0.54-0.44-0.87-0.68-0.99-0.64
						c-0.33,0.1-0.58,0.28-1.07,0.19l-0.04-0.02c-0.96-0.61-1.29-0.38-3.44-2.48c-0.66-0.64-1.22-0.92-1.35-0.81
						c-0.3,0.26-1.21-0.19-2.19-0.77c-0.99-0.59-2.06-1.31-2.98-1.79c-0.84-0.44-1.76-1.01-2.65-1.56
						c-0.66-0.41-1.16-0.14-2.01-1.18c-1.5-0.35-3.36-1.36-5.11-2.41l-1.32-0.81l-0.6-0.38l-0.34-0.23
						c-0.46-0.3-0.91-0.59-1.39-0.84c-1.91-1-3.74-2.15-5.58-3.28c-0.46-0.28-1.16-0.28-1.19-1.17c-0.01-0.17-0.35-0.36-0.52-0.29
						c-0.48,0.19-0.79,0.26-0.82-0.4c0-0.12-0.32-0.17-0.51-0.16c-0.53,0.03-0.85-0.19-1.11-0.67c-0.2-0.37-0.55-0.72-0.93-0.76
						c-1.02-0.11-1.97-0.25-2.38-1.4c-0.05-0.14-0.58,0.13-0.75,0c-0.65-0.5-1.56-0.56-1.95-1.49c-0.16-0.38-0.67-0.47-0.99-0.73
						c-0.55-0.46-1.34-0.44-1.85-1.02c-0.53-0.59-1.33-0.84-2.01-1.24l-2.04-1.2l-2.04-1.2l-2.04-1.2l-2.04-1.2l-2.04-1.2
						c-0.47-0.29-0.87-0.62-1.2-1.16c-0.84-1.38-2.37-2.17-4.5-2.71c-0.15-0.04-0.27-0.15-0.41-0.24c-1.77-1.04-3.62-1.97-5.27-3.18
						c-0.73-0.53-1.33-1.28-2.15-1.7c-0.54-0.27-0.98-0.67-1.74-0.56c-0.63,0.09-0.89-0.86-1.75-0.54
						c-0.31,0.11-0.79-0.18-0.93-0.51c-0.45-1.08-1.49-1.27-2.28-1.8c-0.92-0.62-1.88-1.17-2.86-1.68c-0.48-0.25-0.83-0.73-1.6-0.51
						c-0.38,0.11-0.84-0.39-1.06-0.81c-0.34-0.64-0.9-0.89-1.48-1.04c-1.24-0.34-1.27-0.27-2.11-1.27c-0.1-0.12-0.24-0.2-0.37-0.28
						c-1.31-0.78-2.52-1.81-3.98-2.25c-1.22-0.37-2.27-0.96-3.33-1.57c-0.42-0.24-1.08-0.24-1.05-1.09c0-0.12-0.24-0.25-0.39-0.23
						c-1.3,0.19-2.03-0.75-2.95-1.28c-0.89-0.51-2.04-0.42-2.87-1.1c-0.77-0.63-1.71-1.04-2.57-1.55c-1.31-0.78-1.36-1.33-0.32-3.09
						c0.86-1.46,1.38-1.58,2.61-1.26C207.67,270.38,209.62,272.18,211.54,273.06z"/>
				</g>
			</g>
		</g>
	</g>
	<g>
		<g>
			<g>
				<g>
					<path d="M303.45,324.32c-1.08-2.36-1.91-4.31-2.89-6.19c-0.15-0.29-0.66-0.47-0.83-0.85c-0.66-1.52-1.7-2.91-1.96-4.55
						c-0.28-1.79-0.95-3.39-1.93-4.78c-0.93-1.31-1.49-2.76-2.22-4.14c-0.25-0.46-0.54-0.9-0.37-1.6c0.12-0.51-0.16-1.22-0.92-1.5
						c-0.15-0.05-0.14-0.32-0.16-0.5c-0.03-0.19,0.11-0.49-0.02-0.59c-1.44-1.03-1.49-2.76-2.33-4.09
						c-0.21-0.33-0.15-0.82-0.82-0.88c-0.17-0.01-0.35-0.35-0.27-0.51c0.21-0.42,0.15-0.73-0.01-1.06l-2.01-4.37
						c-1.02-0.4-1.08-1.34-1.42-2.11c-0.26-0.57-0.28-1.26-0.41-1.89c-0.13-0.64-0.85-1.06-0.5-1.89c0.06-0.13-0.23-0.27-0.31-0.43
						c-0.38-0.7-0.95-1.36-1.03-2.14c-0.04-0.4-0.09-0.8-0.25-1.15l-6.18-13.54c-0.18-0.39-0.27-0.8-0.86-1.04
						c-0.46-0.18-0.8-0.89-0.63-1.34c0.28-0.74-0.15-1.12-0.34-1.61c-0.35-0.92-0.84-1.78-1.19-2.69c-0.21-0.55-0.83-0.97-0.34-1.76
						c0.05-0.08-0.03-0.24-0.12-0.27c-0.94-0.28-0.64-1.11-0.82-1.74c-0.13-0.46-0.34-0.88-0.88-1.2c-0.53-0.31-0.93-1.04-0.77-1.62
						c0.2-0.77-0.18-1.22-0.42-1.75c-1.38-3.12-2.78-6.23-4.25-9.31c-0.69-1.46-1.96-2.63-2.4-4.22c-0.1-0.38-0.54-0.65-0.2-1.18
						c0.07-0.11-0.12-0.37-0.29-0.42c-0.31-0.1-0.47-0.27-0.57-0.48c-0.1-0.19-0.17-0.48-0.22-0.61l-0.36-1
						c-0.87-0.49-2.79-1.41-4.45-1.74c-1.73-0.36-3.24-1.18-4.86-1.75c-0.54-0.19-0.93-0.75-1.44-1.05
						c-0.49-0.29-1.03-0.48-1.56-0.68c-0.32-0.12-0.57-0.39-1.04-0.13c-0.25,0.14-0.73,0.01-0.83-0.24
						c-0.36-0.84-1.11-0.89-1.74-1.18l-5.41-2.35c-0.44-0.2-1.06-0.12-1.2-0.9c-0.02-0.11-0.36-0.02-0.54-0.03
						c-0.2-0.01-0.49,0.07-0.58-0.07c-0.84-1.28-2.26-1.36-3.44-1.9c-2.87-1.32-5.81-2.44-8.67-3.79c-0.8-0.38-1.73-0.17-2.5-0.53
						c-0.75-0.35-1.53-0.62-2.27-0.99c-0.52-0.26-1.21-0.23-1.45-1.06c-0.07-0.23-0.46-0.39-0.69-0.29
						c-0.86,0.35-1.38-0.25-2.05-0.42c-0.82-0.22-1.45-0.94-2.48-0.63c-0.28,0.09-0.53-0.42-0.83-0.58
						c-0.3-0.16-0.42-0.23-0.61-0.32c-0.18-0.08-0.36-0.16-0.54-0.22c-0.18-0.06-0.34,0.14-0.49,0.1c-1.19-0.33-2.08-0.49-2.96-0.79
						l-0.44-0.16c-0.79-0.3-1.71-0.74-2.57-1.11l-1.89-0.79c0.24,0.28,0.45,0.54,0.62,0.77c0.09,0.13,0.63,0.55,0.8,0.73
						c0.18,0.18-0.01,0.12-1.19-0.55c1.89,1.32,1.07,0.9-0.23,0.35c-0.19-0.08,0.6,0.43,0.86,0.61c0.42,0.3,1.24,0.8,1.66,1.08
						c0.42,0.28,0.44,0.33-0.59-0.09c-0.08-0.03,0.06,0.05,0.04,0.06c-0.04,0.03,0.27,0.22,0.61,0.42c0.57,0.34,1.17,0.64,0.53,0.48
						c-0.62-0.14-0.03,0.3,0.12,0.51c0.16,0.23,0.33,0.49,0.68,0.76c0.18,0.14,0.15,0.25,0.26,0.39c0.1,0.13,0.33,0.29,0.92,0.39
						c0.18,0.02-0.34,0.23-0.18,0.35c0.36,0.27,0.46,0.58,0.7,0.9c0.11,0.16,0.25,0.31,0.43,0.41c0.2,0.13,0.55,0.34,0.92,0.42
						c0.35,0.09,0.63,0.45,0.71,0.8c0.26,1.27,1.2,1.84,2.14,2.55c1.24,0.93,2.4,2.07,2.67,3.81c0.06,0.37,0.03,0.58,0.5,0.6
						c0.3,0.01,0.51,0.32,0.7,0.55l6.55,7.46c0.59,0.68,0.61,1.78,1.42,2.3c0.33,0.21,0.36,0.79,1.02,0.63
						c0.09-0.02,0.23,0.07,0.25,0.15c0.2,1.3,1.68,1.47,2.19,2.49c0.11,0.22,0.16,0.48,0.26,0.7c0.1,0.23,0.15,0.56,0.36,0.64
						c1.76,0.7,2.43,2.44,3.72,3.59c0.44,0.39,0.57,1.13,1.47,1.03c0.13-0.01,0.3,0.19,0.3,0.34c-0.01,1.34,1.23,1.71,1.74,2.64
						c0.26,0.48,1.02,0.61,0.78,1.45c-0.03,0.11,0.17,0.22,0.29,0.28c0.22,0.11,0.55,0.12,0.68,0.3c0.38,0.49,0.52,1.26,1.05,1.51
						c0.67,0.31,0.99,0.87,1.43,1.34c0.25,0.27,0.24,0.76,0.43,1.1c0.18,0.31,0.46,0.55,0.7,0.83c0.34,0.39,0.79,0.71,0.99,1.18
						c0.21,0.49,1.05,0.29,1.03,1.06c-0.01,0.58,0.84,0.49,1.22,0.8c0.19,0.15,0.29,0.4,0.39,0.63c0.08,0.18,0.01,0.47,0.14,0.59
						c0.29,0.26,0.43,0.63,0.95,0.73c0.36,0.07,0.38,0.72,0.62,1.07c0.23,0.34,0.54,0.63,0.81,0.94s0.46,0.74,0.83,0.91
						c1.66,0.73,2.42,2.31,3.59,3.49c0.3,0.3,0.82,0.51,0.58,1.21c-0.04,0.13,0.11,0.32,0.25,0.36c1.73,0.59,2.27,2.31,3.52,3.34
						c0.89,0.74,1.9,1.36,2.61,2.29c0.69,0.91,1.33,1.9,2.29,2.52c0.79,0.51,1.55,1.02,2.01,1.79c0.45,0.76,1.97,0.52,1.7,1.88
						c0.58,0.66,1.19,1.3,1.73,1.99c0.46,0.58,1.17,0.96,1.16,1.93c0,0.35,0.35,0.72,0.69,0.8c1.12,0.25,1.56,1.05,1.92,1.97
						c0.09,0.22,0.51,0.22,0.69,0.4c0.54,0.56,1.09,1.11,1.53,1.75c1.31,1.91,3.36,3.12,4.88,4.83c0.28,0.32,0.98,0.33,1.12,0.69
						c0.88,2.26,3.05,3.44,4.17,5.45c1.65,2.97,4.23,5.13,6.29,7.73c0.27,0.34,0.16,1.04,0.41,1.09c0.79,0.15,0.95,0.97,1.58,1.13
						c1.13,0.28,1.42,1.29,2.16,1.88c0.54,0.43,0.7,1.28,1.68,1.26c0.14,0,0.28,0.19,0.3,0.34c0.13,1.22,1.58,1.28,1.99,2.25
						c1.89,0.86,2.74,2.71,4.14,4.03c0.21,0.19,0.53,0.28,0.79,0.42c0.13,0.07,0.33,0.12,0.36,0.25c0.47,1.9,2.18,2.79,3.16,4.28
						c0.32,0.49,0.51,1.08,0.83,1.58c0.32,0.5,0.89,0.81,0.83,1.6c-0.02,0.24,0.27,0.44,0.49,0.58c1.17,0.77,0.94,2.31-0.48,3.59
						c-0.51,0.46-0.73,0.28-1.11,0.23c-0.74-0.1-1.35-0.31-1.76-0.85c-0.32-0.43-0.54-1.01-1.35-0.93c-0.14,0.01-0.28-0.18-0.3-0.34
						c-0.16-1.07-1.19-1.54-1.45-2.45c-0.2-0.7-0.67-1.11-0.99-1.67c-0.27-0.47-0.9-0.65-0.79-1.45c0.03-0.27-0.7-0.32-0.97-0.58
						c-0.62-0.62-1.23-1.26-1.74-1.98c-1.55-2.18-4.01-3.5-5.58-5.66c-1.89-0.86-2.61-2.86-4.17-4c-1.89-1.39-3.19-3.29-4.86-4.85
						c-0.34-0.32-0.58-0.62-0.69-1.07c-0.07-0.3-0.15-0.61-0.33-0.83c-0.69-0.84-1.46-1.61-2.12-2.47
						c-0.35-0.46-1.11-0.67-0.84-1.58c0.04-0.13-0.15-0.32-0.29-0.34c-1.23-0.19-1.54-1.29-2.27-1.97c-0.28-0.26-0.5-0.56-0.55-1.05
						c-0.06-0.54-0.55-1.05-1.07-1.21c-0.4-0.12-0.61-0.35-0.88-0.56c-1.13-0.88-1.47-2.51-3.1-2.89c0.17-1.1-0.63-1.59-1.27-2
						c-2.43-1.59-3.86-4.08-5.81-6.09c-0.47-0.48-0.65-1.24-1.05-1.8c-0.42-0.59-0.92-1.12-1.43-1.64c-0.27-0.28-0.35-0.8-1.02-0.62
						c-0.05,0.01-0.12-0.02-0.14-0.05c-0.19-0.38-0.3-0.84-0.6-1.12c-0.27-0.25-0.81-0.22-1.13-0.42c-0.39-0.24-0.7-0.58-1.01-0.91
						c-0.3-0.32-0.71-0.58-0.53-1.21c-0.74,0.2-0.81-0.41-1.14-0.7c-0.31-0.28-0.55-0.61-0.83-0.93l-0.92-1.05
						c-0.31-0.35-0.57-0.74-0.93-1.04c-0.49-0.41-1.09-0.72-1.56-1.15c-0.5-0.45-0.94-0.96-1.33-1.51
						c-0.49-0.69-0.88-1.45-1.34-2.16c-0.19-0.29-0.51-0.4-0.92-0.5c-0.54-0.12-1.45-0.09-1.13-1.14c0.06-0.21-0.25-0.48-0.49-0.57
						c-1.9-0.71-2.52-2.64-3.92-3.82c-0.12-1.22-1.09-1.66-1.93-2.31c-1.22-0.95-2.37-2.09-3.04-3.49
						c-0.71-1.48-1.92-2.48-2.83-3.76c-0.25-0.36-0.77-0.54-0.53-1.24c0.05-0.16-0.2-0.38-0.39-0.46c-1.34-0.51-2.01-1.56-2.53-2.82
						c-0.28-0.66-0.99-1.06-1.67-1.47c-1.02-0.61-1.63-1.71-2.41-2.61c0.25-0.9-0.61-0.68-1.04-0.65c-0.57,0.04-0.85-0.16-1.14-0.47
						c-0.37-0.4-0.61-0.89-1.34-0.95c-0.38-0.03-0.73-0.53-0.72-0.93c0.02-0.54-0.21-0.54-0.63-0.65c-0.49-0.13-0.24-0.94-0.61-1.32
						c-0.4-0.4-1.14-0.64-0.85-1.56c0.03-0.08-0.1-0.21-0.2-0.23c-1.33-0.24-1.11-1.83-2.08-2.38c-1.37-2.98-4.06-4.86-5.9-7.45
						c-0.76-1.07-1.17-2.46-2.29-3.18c-1.18-0.76-2.12-1.73-2.99-2.76l-1.48-1.78c-0.73-0.86-1.46-1.7-2.24-2.54
						c-0.64-0.68-1.91-1.57-1.37-2.17c0.08-0.08-0.21-0.39-0.47-0.53c-1.96-1.13-2.69-2.3-2.67-3.03c0-0.18-0.42-0.64-0.93-0.92
						c-1.43-0.81-1.49-1.21-1.87-1.66c-0.27-0.33-0.27-0.57-0.37-0.81c0.12-0.04,0.14-0.12-0.12-0.29c-1.25-0.84,0.1-0.39,0.21-0.54
						c0.08-0.09-0.23-0.38-0.39-0.59c-0.08-0.1-0.48-0.36-0.39-0.36c0.51,0.02,0.31-0.28,0.12-0.57c-0.2-0.3-0.39-0.6-0.25-0.75
						c0.05-0.06,0.03-0.17,0.09-0.23c0.47-0.55,0.21-0.82-0.09-1.65c0.17,0,0.41-0.01,0.68-0.06c0.39,0.17,0.62,0.18,0.77,0.1
						c0.17-0.06,0.26-0.22,0.76,0.06c0.37,0.21,0.7,0.22,0.74,0.04c0.09-0.39,0.41-0.55,0.89-0.53c0.46-0.01,1.07,0.15,1.31-0.09
						c0.02-0.02,0.07,0,0.13,0.04c0.58,0.37,1.44,1.14,1.3,0.6c-0.04-0.23,1.54,1.07,1.99,1.24c0.72,0.28,1.78,1.11,1.93,0.49
						c0.08-0.25,0.96,0.35,1.42,0.49c0.68,0.21,1.46,0.81,1.98,0.46c0.29-0.19,1.31,0.24,1.81,0.73c1.03,1.01,1.81,1.37,2.71,1.59
						c0.44,0.11,0.93,0.19,1.39,0.25c0.32,0,0.63,0,0.94,0.03c0.37,0.04,0.63,0.04,0.91,0.33c0.39,0.41,0.9,0.95,1.39,0.82
						c0.87-0.23,1.4,0.25,2.04,0.49c1.12,0.41,2.17,0.98,3.29,1.37c1.28,0.45,2.41,1.23,3.88,1.29c0.79,0.03,1.78,0.18,2.18,1.28
						c0.04,0.12,0.53-0.19,0.73-0.11c1.58,0.64,3.16,1.29,4.7,2.02c0.36,0.17,0.42,1.12,1.02,0.63c0.64-0.52,0.46,0.96,1.1,0.28
						c0.09-0.1,0.42,0.06,0.55,0.2c1.48,1.63,3.65,1.78,5.41,2.79c0.42,0.24,1.07,0.14,1.13,0.96c1.45-0.26,2.05,1.81,3.67,1.09
						c0.73,0.55,1.87,0.29,2.3,1.43c0.07,0.18,0.43,0.11,0.53,0.29c0.32,0.61,1.15-0.48,1.48,0.41c0.19,0.51,0.93,0.57,1.43,0.81
						c0.47,0.22,0.95,0.41,1.42,0.61l1.57,0.67c0.52,0.22,1.03,0.5,1.57,0.66c1.11,0.33,2.35,0.28,3.34,0.94
						c0.11,0.07,0.35,0.06,0.44-0.04c0.2-0.22,0.37-0.34,0.52-0.38c0.19-0.02,0.46,0.08,0.66,0.19c0.42,0.24,0.73,0.64,0.97,0.92
						c0.3,0.35,0.58,0.61,0.96,0.82c0.04,0.13,0.1,0.28,0.17,0.42l1.11,2.37c0.22,0.47,0.41,0.9,0.58,1.37
						c0.2,0.55,0.79,0.96,0.37,1.76c-0.13,0.25,0.11,0.65,0.36,0.83c1.19,0.81,1.32,2.15,1.93,3.25c0.28,0.49,0.49,1.02,0.71,1.55
						c0.16,0.4,0.79,0.59,0.54,1.17c1.7,1.53,2.06,3.74,3.03,5.63c0.97,1.88,1.8,3.84,2.65,5.78c0.21,0.49,0.78,0.88,0.29,1.62
						c-0.09,0.14,0.07,0.49,0.26,0.53c0.5,0.11,0.79,0.24,0.44,0.78c-0.07,0.1,0.16,0.32,0.32,0.41c0.45,0.27,0.58,0.64,0.52,1.16
						c-0.05,0.41,0.03,0.89,0.31,1.14c0.77,0.66,1.46,1.3,1.12,2.47c-0.04,0.14,0.55,0.22,0.61,0.41c0.24,0.76,0.95,1.33,0.72,2.3
						c-0.09,0.4,0.28,0.75,0.38,1.15c0.18,0.68,0.83,1.1,0.92,1.87c0.09,0.77,0.59,1.43,0.91,2.13l0.97,2.12l0.97,2.12l0.97,2.12
						l0.97,2.12l0.96,2.12c0.22,0.5,0.35,0.99,0.3,1.61c-0.12,1.59,0.68,3.08,2.09,4.72c0.1,0.12,0.13,0.28,0.2,0.42
						c0.84,1.83,1.81,3.62,2.45,5.53c0.28,0.84,0.34,1.78,0.77,2.58c0.28,0.52,0.41,1.09,1.09,1.43c0.56,0.28,0.23,1.19,1.11,1.42
						c0.32,0.08,0.54,0.59,0.46,0.93c-0.26,1.13,0.48,1.86,0.82,2.74c0.39,1.01,0.86,2,1.35,2.96c0.24,0.47,0.25,1.06,1,1.31
						c0.37,0.12,0.46,0.79,0.4,1.25c-0.09,0.71,0.22,1.23,0.6,1.68c0.82,0.97,0.87,0.93,0.98,2.21c0.01,0.15,0.08,0.29,0.14,0.43
						c0.62,1.37,1.01,2.87,1.94,4.05c0.78,0.98,1.29,2.05,1.8,3.14c0.2,0.43,0.74,0.8,0.22,1.48c-0.07,0.1,0.05,0.34,0.18,0.41
						c1.16,0.57,1.22,1.74,1.66,2.69c0.43,0.91,1.42,1.48,1.7,2.49c0.26,0.95,0.79,1.8,1.19,2.69c0.61,1.36,0.34,1.84-1.53,2.68
						c-1.54,0.7-2.03,0.51-2.85-0.43C305.05,328.66,304.51,326.11,303.45,324.32z"/>
				</g>
			</g>
		</g>
	</g>
	<g>
		<polygon points="262.96,232.29 353.36,166.68 196.05,203.64 		"/>
		<g>
			<g>
				<g>
					<path d="M269.09,226.13c2.06-1.5,3.78-2.68,5.4-3.99c0.25-0.2,0.32-0.73,0.65-0.97c1.33-0.93,2.47-2.21,4-2.77
						c1.67-0.61,3.09-1.57,4.23-2.78c1.08-1.15,2.37-1.97,3.55-2.95c0.4-0.33,0.76-0.69,1.47-0.66c0.52,0.02,1.15-0.39,1.26-1.18
						c0.02-0.15,0.28-0.2,0.45-0.25c0.18-0.06,0.5,0.01,0.56-0.13c0.7-1.6,2.36-1.98,3.47-3.05c0.28-0.27,0.76-0.3,0.68-0.97
						c-0.02-0.17,0.27-0.41,0.44-0.36c0.45,0.12,0.73,0.01,1.02-0.21l3.82-2.78c0.18-1.07,1.08-1.3,1.75-1.78
						c0.5-0.36,1.16-0.51,1.74-0.75c0.59-0.25,0.85-1.03,1.73-0.84c0.14,0.03,0.22-0.27,0.35-0.39c0.6-0.5,1.12-1.18,1.86-1.41
						c0.38-0.12,0.76-0.24,1.07-0.46l11.83-8.59c0.34-0.25,0.72-0.42,0.83-1.04c0.08-0.48,0.69-0.95,1.17-0.87
						c0.77,0.13,1.05-0.35,1.49-0.64c0.81-0.52,1.54-1.16,2.36-1.67c0.49-0.31,0.77-0.99,1.63-0.67c0.08,0.03,0.23-0.08,0.24-0.17
						c0.08-0.97,0.94-0.83,1.51-1.13c0.41-0.21,0.78-0.49,0.98-1.08c0.19-0.57,0.82-1.1,1.41-1.06c0.79,0.05,1.14-0.41,1.61-0.74
						l3.47-2.47c1.08-0.78,2.15-1.57,3.16-2.33c0.5-0.38,0.58-0.66,0.68-0.91c0.11-0.24,0.23-0.44,1.06-0.88
						c0.42-0.23-0.28-0.08,1.64-0.81c0.4-0.15,0.38-0.22,0.02-0.12c-1.33,0.38-0.51,0.01-0.15-0.23c0.76-0.48,1.53-0.97,2.29-1.46
						c0.72-0.48,1.3-0.9,1.28-1.04c-0.4,0.14-0.78,0.28-1.16,0.41c-1.33,0.49-2.01,0.7-2.59,0.86c-0.57,0.15-1.04,0.25-1.72,0.47
						c-0.43,0.14,0.37-0.42,0.19-0.45c-0.16-0.04-0.65,0.11-1.1,0.25c-0.26,0.08-0.14-0.1-1.37,0.62c-0.66,0.39-1.05,0.55-0.75,0.29
						l0.11-0.1c0.77-0.74-0.21-0.27-0.59-0.2l-3.87,0.88c-0.34,0.07-0.73,0.48-0.89-0.15c-0.03-0.09-0.27,0.19-0.4,0.28
						c-0.14,0.1-0.3,0.33-0.39,0.26c-0.22-0.17-0.47-0.24-0.74-0.25c-0.32,0-0.64,0.05-0.95,0.13c-0.62,0.16-1.23,0.42-1.86,0.55
						c-3.03,0.63-6.02,1.46-9.06,2.06c-0.85,0.17-1.46,0.89-2.29,1.05c-0.8,0.16-1.58,0.4-2.38,0.54c-0.57,0.1-1.09,0.53-1.76,0
						c-0.18-0.14-0.59-0.04-0.71,0.17c-0.47,0.79-1.24,0.62-1.87,0.87c-0.77,0.31-1.7,0.09-2.32,0.96c-0.17,0.23-0.67-0.03-1,0.02
						c-0.57,0.08-1.15,0.19-1.7,0.36c-0.27,0.08-0.47,0.38-0.74,0.47c-2.05,0.65-4.08,1.34-6.15,1.9c-2.11,0.57-4.25,1.01-6.37,1.51
						c-2.13,0.5-4.24,1.05-6.38,1.47c-0.8,0.16-1.55,0.87-2.49,0.16c-0.61,0.7-1.33,0.53-2.11,0.09c-0.11-0.06-0.29,0.24-0.44,0.36
						c-0.48,0.36-0.79,1.37-1.61,0.54c-0.03-0.03-0.1,0.03-0.15,0.03c-0.53-0.02-0.64,1.04-1.41,0.6c-0.48-0.28-1.07,0.03-1.61,0.12
						c-0.55,0.1-1.11,0.18-1.63,0.39c-0.54,0.22-1.25-0.1-1.6,0.76c-0.06,0.14-0.59-0.27-0.82-0.18c-1.2,0.47-2.63,0.11-3.65,1.26
						c-0.23,0.26-0.68,0.35-1.02,0.24c-1.22-0.37-2.15,0.19-3.2,0.68c-1.38,0.65-2.9,1.13-4.54,0.55c-0.35-0.12-0.52-0.24-0.75,0.15
						c-0.15,0.26-0.51,0.29-0.8,0.36l-9.49,2.24c-0.86,0.2-1.83-0.31-2.65,0.16c-0.34,0.19-0.85-0.06-1.01,0.6
						c-0.02,0.09-0.16,0.17-0.24,0.15c-1.22-0.43-2.05,0.78-3.17,0.75c-0.24-0.01-0.49-0.09-0.73-0.11
						c-0.25-0.02-0.55-0.13-0.72,0.02c-1.42,1.22-3.24,0.98-4.82,1.58c-0.54,0.2-1.24-0.04-1.57,0.8c-0.05,0.13-0.3,0.17-0.43,0.1
						c-1.16-0.64-2.05,0.27-3.1,0.28c-0.54,0-1,0.61-1.62,0.01c-0.08-0.08-0.27,0.04-0.38,0.12c-0.2,0.14-0.36,0.42-0.57,0.46
						c-0.6,0.1-1.33-0.14-1.8,0.21c-0.57,0.44-1.21,0.46-1.82,0.63c-0.35,0.09-0.78-0.15-1.16-0.14c-0.36,0.01-0.69,0.15-1.04,0.23
						c-0.49,0.12-0.98,0.36-1.49,0.31c-0.52-0.05-0.74,0.78-1.39,0.41c-0.5-0.29-0.81,0.51-1.25,0.69
						c-0.22,0.09-0.48,0.07-0.73,0.04c-0.19-0.02-0.41-0.21-0.57-0.16c-0.36,0.13-0.75,0.08-1.07,0.49c-0.22,0.28-0.8,0-1.21,0.04
						c-0.4,0.04-0.79,0.17-1.19,0.27c-0.4,0.09-0.86,0.05-1.17,0.3c-0.7,0.56-1.48,0.82-2.28,1c-0.46,0.1-1,0.13-1.44,0.29
						c-0.25,0.08-0.22,0.35-1.11-0.11c-0.16-0.08-0.34-0.05-0.34,0.03c0,0.47-0.3,0.58-0.83,0.67c-0.5,0.08-1.22,0.13-1.41,0.31
						c-0.28,0.26,0.11,0.52-0.64,0.61c-0.33,0.04-0.67,0.08-1.01,0.13c0.2,0.12,0.59,0.27,1.38,0.41c1.12,0.2,1.96,0.3,1.89,0.45
						c-0.02,0.08,0.76,0.1,1.21,0.11c0.47,0.02,0.61,0.02-0.21,0.27c0.32,0.14,0.68,0.25,0.93,0.41c0.26,0.15,0.71,0.04,0.49,0.64
						c-0.07,0.22,0.22,0.33,0.46,0.2c0.5-0.52,1.5,0.12,2.15,0.76c0.17,0.16,0.55-0.03,0.78,0.06c0.71,0.27,1.44,0.52,2.1,0.9
						c1.97,1.15,4.3,1.33,6.37,2.21c0.38,0.16,1.01-0.13,1.29,0.13c1.73,1.64,4.16,1.75,6.01,3.07c2.72,1.94,5.92,2.75,8.85,4.18
						c0.38,0.19,0.58,0.86,0.82,0.8c0.77-0.21,1.26,0.46,1.88,0.33c1.12-0.24,1.8,0.54,2.71,0.74c0.67,0.15,1.16,0.84,2.02,0.4
						c0.13-0.06,0.33,0.04,0.41,0.17c0.63,1.04,1.94,0.46,2.72,1.15c2.05-0.05,3.58,1.24,5.38,1.81c0.27,0.08,0.59,0.02,0.88,0.03
						c0.15,0.01,0.34-0.03,0.43,0.07c1.22,1.5,3.12,1.55,4.61,2.46c0.49,0.3,0.91,0.75,1.4,1.06c0.49,0.31,1.13,0.34,1.41,1.07
						c0.09,0.23,0.43,0.28,0.68,0.31c1.37,0.18,1.81,1.66,1.08,3.42c-0.26,0.64-0.53,0.57-0.9,0.69c-0.7,0.24-1.33,0.32-1.93,0
						c-0.46-0.24-0.91-0.67-1.59-0.24c-0.12,0.07-0.33-0.04-0.41-0.17c-0.59-0.9-1.7-0.86-2.32-1.56c-0.48-0.54-1.06-0.7-1.58-1.06
						c-0.44-0.3-1.07-0.2-1.32-0.96c-0.08-0.26-0.76,0.02-1.11-0.1c-0.82-0.28-1.63-0.59-2.38-1.01c-2.29-1.28-5.04-1.39-7.35-2.65
						c-2.05,0.05-3.52-1.43-5.39-1.77c-2.27-0.42-4.22-1.55-6.37-2.23c-0.44-0.14-0.77-0.3-1.06-0.66c-0.19-0.23-0.39-0.49-0.64-0.6
						c-0.97-0.45-1.98-0.8-2.93-1.29c-0.51-0.26-1.27-0.11-1.41-1.05c-0.02-0.13-0.26-0.22-0.4-0.18c-1.17,0.37-1.92-0.48-2.85-0.77
						c-0.36-0.11-0.67-0.28-0.93-0.71c-0.28-0.46-0.93-0.7-1.46-0.62c-0.4,0.06-0.69-0.05-1.02-0.12c-1.37-0.29-2.36-1.61-3.98-1.24
						c-0.32-1.06-1.23-1.15-1.97-1.24c-1.42-0.18-2.7-0.68-3.96-1.24l-2.72-1.24c-0.92-0.41-1.83-0.81-2.81-1.19
						c-0.96-0.37-1.35-0.94-2.07-1.32c-0.78-0.41-1.72-0.78-2.7-1.16c-0.54-0.21-0.44-0.47-2.24-0.57c-0.13-0.01-0.3-0.04-0.33-0.07
						c-0.32-0.25-0.28-0.49-0.91-0.7c-0.56-0.19-2.11-0.4-2.95-0.64c-0.98-0.28-1.68-0.56-2.36-0.84c-0.36-0.15-0.87-0.32-1.04-0.44
						c0.43-0.06,1.04-0.09,2.02-0.07c-1.61-0.33,0.23-0.41,0.71-0.57c0.48-0.16,1.22-0.3,1.84-0.44l2.11-0.5
						c0.71-0.17,1.52-0.3,2.08-0.5c0.76-0.28,1.3-0.66,2.22-0.95c0.95-0.3,2.07-0.56,3.22-0.76c1.45-0.25,2.94-0.38,4.27-0.57
						c0.55-0.08,0.9-0.33,1.35-0.69c0.28-0.23,0.67-0.59,1.04-0.78c0.24-0.16,0.52-0.17,0.91,0.22c0.15,0.15,0.53,0.01,0.72-0.16
						c1.49-1.34,3.45-0.97,5.12-1.64c1.12,0.47,1.95-0.18,2.89-0.6c1.39-0.63,2.91-1.1,4.43-1.03c1.61,0.08,3.04-0.52,4.57-0.71
						c0.43-0.05,0.82-0.42,1.33,0.12c0.11,0.12,0.42,0.01,0.57-0.13c1.06-0.94,2.28-1.03,3.61-0.9c0.7,0.07,1.38-0.37,2.04-0.78
						c1-0.61,2.24-0.62,3.37-0.89c0.67,0.65,0.87-0.22,1.04-0.61c0.23-0.52,0.53-0.67,0.93-0.78c0.51-0.13,1.05-0.12,1.44-0.73
						c0.2-0.32,0.8-0.39,1.14-0.19c0.46,0.27,0.56,0.07,0.85-0.25c0.34-0.37,0.93,0.24,1.43,0.08c0.54-0.17,1.08-0.7,1.75-0.01
						c0.06,0.06,0.23,0.01,0.29-0.07c0.82-1.05,2.1-0.11,3.02-0.7c3.22,0.2,6.09-1.28,9.18-1.67c1.27-0.16,2.67,0.14,3.81-0.51
						c2.4-1.37,5.11-1.44,7.66-2.18c0.54-0.16,1.08-0.66,1.76,0c0.09,0.09,0.34,0.02,0.43-0.1c0.65-0.91,1.5-0.87,2.43-0.58
						c0.23,0.07,0.6-0.03,0.67-0.25c0.22-0.61,0.66-0.49,1.03-0.56c0.45-0.09,1.14,0.24,1.34-0.09c0.43-0.71,0.9-0.14,1.35-0.13
						c0.28,0,0.54-0.22,0.79-0.37c0.12-0.07,0.23-0.35,0.32-0.31c1.02,0.46,1.65-0.7,2.57-0.63c0.2,0.02,0.39-0.05,0.59-0.01
						c2.23,0.39,2.23,0.4,4.69-0.65c0.92,0.79,1.42-0.81,2.35-0.26c0.34,0.2,0.86,0.01,1.16-0.26c1.33-1.19,3.05-0.9,4.53-1.51
						c0.31-0.13,0.7,0.45,0.99-0.16c0.11-0.23,0.77,0.21,1.11,0.1c0.5-0.15,1.12,0.07,1.48-0.67c0.15-0.3,0.65-0.21,0.97-0.34
						c0.45-0.18,0.97-0.05,1.31-0.67c0.19-0.34,0.78-0.49,1.13-0.31c1.44,0.73,2.33-0.44,3.36-1.06c0.31-0.19,0.52-0.34,0.91-0.27
						c0.54,0.1,1.27,0.23,1.58-0.16c0.55-0.69,1.25-0.63,1.9-0.81c1.12-0.32,2.29-0.49,3.4-0.83c1.28-0.39,2.62-0.43,3.82-1.25
						c0.64-0.44,1.51-0.91,2.47-0.25c0.11,0.07,0.31-0.47,0.51-0.52c1.62-0.42,3.25-0.82,4.89-1.14c0.38-0.07,0.99,0.66,1.18-0.09
						c0.2-0.8,0.93,0.51,1.03-0.42c0.02-0.13,0.36-0.2,0.56-0.16c0.27,0.06,0.53,0.09,0.78,0.1c0.13,0.01,0.26,0.01,0.38,0
						c0.15-0.01,0.2,0,0.46-0.04c0.87-0.14,1.72-0.33,2.58-0.55c1.71-0.44,3.54-0.99,5.18-1.25c0.75-0.12,2.09-0.79,1.95-0.01
						c1.44-0.76,2.33-0.74,3.12-0.77c0.84-0.04,1.59-0.12,3.81-1.31c0.59-0.02,1.74-0.44,2.64-0.67c0.17,0.07,0.12,0.29-0.51,0.91
						c-0.22,0.22,0.31-0.02,0.14,0.18c-0.29,0.32,0.23,0.06,0.65-0.12c0.43-0.19,0.76-0.31,0.32,0.14c-0.48,0.5,0.2,0.35,0.39,0.48
						c0.19,0.1,0.43,0.18,0.64,0.26l0.71,0.28c0.23,0.1,0.45,0.21,0.72,0.28c0.23,0.07,0.47,0.13,0.66,0.22
						c-0.03,0.25,0.03,0.49-0.07,0.78c-0.02,0.06,0.03,0.12,0.12,0.11c0.8-0.08,0.52,0.24,0.16,0.49c-0.26,0.2-0.43,0.36-0.44,0.5
						c-0.04,0.39-0.01,0.77-0.18,1.19c-0.15,0.26,0.64,0.3-0.95,0.92c-0.5,0.19-0.5,0.37-0.15,0.39c0.46,0.02,0.73,0.09,0.86,0.2
						c-0.89,0.83-2.66,1.86-3.72,2.73c-0.7,0.57-1.56,1.16-2.4,1.75c-0.61,0.43-0.44,0.9-1.82,1.33c-0.77,1.12-2.35,2.37-3.96,3.51
						l-2.46,1.7l-1.21,0.84l-0.4,0.29l-0.31,0.24c-1.62,1.31-3.34,2.48-5.05,3.67c-0.43,0.3-0.69,0.93-1.51,0.59
						c-0.16-0.06-0.45,0.16-0.46,0.35c-0.01,0.51-0.07,0.82-0.66,0.57c-0.11-0.04-0.27,0.22-0.33,0.39
						c-0.17,0.49-0.5,0.69-1.02,0.73c-0.4,0.03-0.86,0.19-1.04,0.52c-0.48,0.88-0.96,1.67-2.16,1.56c-0.15-0.01-0.1,0.58-0.28,0.68
						c-0.69,0.38-1.09,1.18-2.08,1.14c-0.4-0.01-0.67,0.41-1.03,0.59c-0.62,0.3-0.9,1.02-1.62,1.25c-0.73,0.23-1.26,0.85-1.87,1.29
						l-1.85,1.34l-1.85,1.34l-1.85,1.34l-1.85,1.34l-1.85,1.34c-0.44,0.31-0.89,0.53-1.49,0.6c-1.56,0.19-2.84,1.25-4.13,2.93
						c-0.09,0.12-0.24,0.18-0.37,0.27c-1.6,1.16-3.13,2.44-4.84,3.43c-0.75,0.43-1.66,0.67-2.34,1.23
						c-0.45,0.37-0.97,0.61-1.16,1.33c-0.16,0.6-1.1,0.45-1.14,1.35c-0.01,0.33-0.46,0.64-0.81,0.63c-1.15-0.04-1.7,0.82-2.48,1.31
						c-0.9,0.57-1.76,1.21-2.59,1.88c-0.41,0.33-0.97,0.44-1.06,1.23c-0.04,0.39-0.67,0.6-1.13,0.62c-0.7,0.04-1.14,0.45-1.5,0.91
						c-0.77,0.98-0.72,1.03-1.93,1.37c-0.14,0.04-0.27,0.13-0.39,0.22c-1.19,0.86-2.57,1.52-3.52,2.66
						c-0.79,0.94-1.72,1.65-2.67,2.35c-0.38,0.28-0.62,0.87-1.38,0.5c-0.11-0.05-0.32,0.11-0.36,0.26
						c-0.32,1.24-1.44,1.52-2.26,2.13c-0.8,0.59-1.14,1.67-2.06,2.13c-0.86,0.43-1.58,1.11-2.36,1.67
						c-1.19,0.86-1.71,0.68-2.91-0.98c-0.99-1.37-0.91-1.89-0.16-2.86C265.21,228.51,267.58,227.5,269.09,226.13z"/>
				</g>
			</g>
		</g>
	</g>
	<g>
		<g>
			<g>
				<g>
					<path d="M344.91,167.61c-2.49-0.14-4.52-0.3-6.55-0.3c-0.32,0-0.69,0.37-1.09,0.34c-1.58-0.11-3.24,0.17-4.74-0.36
						c-1.64-0.58-3.31-0.73-4.92-0.5c-1.53,0.22-3.01,0.04-4.51,0.06c-0.5,0-1,0.06-1.53-0.41c-0.38-0.35-1.11-0.42-1.68,0.12
						c-0.11,0.11-0.33-0.02-0.49-0.08c-0.18-0.07-0.37-0.32-0.51-0.25c-1.52,0.8-3.01,0.05-4.51,0.18
						c-0.37,0.03-0.77-0.25-1.11,0.32c-0.09,0.15-0.45,0.15-0.55,0.01c-0.27-0.38-0.55-0.47-0.91-0.48L307.2,166
						c-0.79,0.72-1.62,0.33-2.43,0.28c-0.6-0.04-1.19-0.33-1.79-0.51c-0.6-0.18-1.28,0.26-1.83-0.43c-0.09-0.11-0.33,0.08-0.5,0.08
						c-0.77,0.01-1.58,0.21-2.28-0.08c-0.36-0.15-0.72-0.29-1.09-0.31l-14.27-0.78c-0.41-0.02-0.8-0.13-1.27,0.28
						c-0.36,0.32-1.11,0.3-1.42-0.06c-0.5-0.58-1.02-0.39-1.52-0.45c-0.94-0.11-1.88-0.07-2.82-0.19c-0.56-0.07-1.2,0.28-1.64-0.51
						c-0.04-0.08-0.22-0.08-0.29-0.02c-0.66,0.7-1.23,0.05-1.84-0.08c-0.45-0.1-0.9-0.11-1.41,0.23c-0.5,0.33-1.3,0.34-1.72-0.06
						c-0.56-0.54-1.12-0.4-1.67-0.44c-3.27-0.22-6.54-0.41-9.81-0.54c-1.55-0.06-3.11,0.53-4.66,0.17
						c-0.37-0.08-0.79,0.18-1.09-0.37c-0.06-0.11-0.36-0.06-0.49,0.06c-0.45,0.45-0.87,0.25-1.35,0.2
						c-2.17-0.22-4.37-0.62-6.53-0.29c-1.68,0.26-3.31,0.01-4.96,0.04c-0.27,0-0.57-0.09-0.8-0.2c-0.17-0.1-0.36-0.22-0.56-0.27
						c-0.29-0.07-0.59-0.08-0.87-0.08l-0.17,0.22c-0.13,0.18-0.39,0.23-0.27,0.73c0.06,0.27-0.04,0.48-0.29,0.47
						c-0.89,0.04-1.17,0.71-1.63,1.19l-3.84,4.15c-0.32,0.34-0.44,0.93-1.2,0.79c-0.1-0.02-0.13,0.32-0.2,0.49
						c-0.07,0.18-0.08,0.47-0.24,0.51c-1.45,0.33-1.96,1.6-2.83,2.5c-2.1,2.18-4.06,4.49-6.18,6.65c-0.59,0.6-0.68,1.53-1.26,2.11
						c-0.56,0.56-1.05,1.19-1.62,1.74c-0.41,0.39-0.58,1.03-1.43,0.97c-0.23-0.02-0.5,0.29-0.48,0.53c0.06,0.91-0.65,1.18-1.02,1.74
						c-0.45,0.68-1.32,1.01-1.34,2.06c-0.01,0.28-0.56,0.34-0.8,0.56c-0.42,0.38-0.82,0.78-1.18,1.22
						c-0.17,0.21-0.17,0.57-0.34,0.79l-1.93,2.49l-0.49,0.62c-0.1,0.12-0.14,0.18-0.17,0.23l-0.12,0.16
						c-0.16,0.22-0.31,0.42-0.46,0.62c-0.62,0.79-1.39,1.55-2.12,2.34c-0.68,0.74-1.2,1.38-2.04,2.21l0.16-0.02
						c0.16-0.02,0.69-0.27,0.91-0.34c0.23-0.07,0.14,0.05-0.7,0.71c1.66-0.95,1.12-0.48,0.42,0.31c-0.1,0.11,0.53-0.3,0.77-0.43
						c0.38-0.21,1.01-0.65,1.35-0.87c0.35-0.22,0.41-0.21-0.12,0.42c-0.04,0.05,0.07-0.02,0.07-0.01c0.05,0.06,0.46-0.26,0.77-0.49
						c0.32-0.24,0.52-0.39,0.35-0.04c-0.18,0.43,0.37,0.14,0.63,0.11c0.29-0.03,0.6-0.07,0.95-0.23c0.17-0.09,0.31-0.02,0.48-0.05
						c0.16-0.03,0.36-0.15,0.49-0.56c0.03-0.13,0.27,0.35,0.42,0.28c0.12-0.07,0.47-0.15,0.78-0.2l0.94-0.14
						c0.62-0.11,1.22-0.3,1.72-0.87c0.23-0.26,0.66-0.34,1-0.24c1.2,0.38,2.1-0.18,3.12-0.66c1.34-0.64,2.83-1.11,4.44-0.53
						c0.34,0.12,0.51,0.24,0.73-0.15c0.15-0.26,0.5-0.29,0.78-0.36l9.27-2.19c0.84-0.2,1.79,0.32,2.59-0.15
						c0.33-0.19,0.83,0.07,0.99-0.59c0.02-0.09,0.16-0.17,0.24-0.14c1.2,0.44,2-0.77,3.09-0.73c0.23,0.01,0.48,0.09,0.71,0.11
						c0.24,0.02,0.54,0.13,0.71-0.01c1.38-1.21,3.16-0.96,4.71-1.55c0.53-0.2,1.22,0.04,1.53-0.79c0.05-0.13,0.29-0.17,0.42-0.1
						c1.14,0.65,2.01-0.26,3.03-0.26c0.52,0,0.97-0.6,1.58,0c0.08,0.08,0.26-0.04,0.37-0.12c0.19-0.14,0.35-0.42,0.56-0.46
						c0.58-0.1,1.3,0.15,1.76-0.2c0.56-0.44,1.18-0.46,1.77-0.62c0.34-0.09,0.76,0.15,1.13,0.14c0.35-0.01,0.68-0.14,1.02-0.22
						c0.48-0.11,0.96-0.36,1.45-0.3c0.51,0.05,0.72-0.78,1.36-0.4c0.49,0.29,0.79-0.5,1.22-0.69c0.21-0.09,0.47-0.06,0.72-0.04
						c0.19,0.02,0.41,0.22,0.56,0.16c0.35-0.13,0.73-0.08,1.04-0.48c0.22-0.28,0.78,0.01,1.18-0.03c0.4-0.04,0.77-0.17,1.16-0.26
						s0.84-0.04,1.15-0.3c1.36-1.11,3.04-1.02,4.58-1.48c0.39-0.12,0.8-0.48,1.29,0.07c0.09,0.1,0.32,0.05,0.42-0.04
						c1.27-1.23,2.98-0.89,4.42-1.49c1.03-0.43,2-1.02,3.11-1.19c1.08-0.17,2.21-0.26,3.16-0.8c0.78-0.45,1.56-0.87,2.42-0.91
						c0.84-0.03,1.32-1.48,2.36-0.6c0.82-0.19,1.63-0.42,2.47-0.57c0.7-0.12,1.34-0.57,2.16-0.1c0.3,0.17,0.77,0.04,0.99-0.23
						c0.71-0.86,1.59-0.87,2.54-0.74c0.23,0.03,0.41-0.35,0.65-0.41c0.72-0.21,1.43-0.43,2.17-0.51c2.21-0.23,4.15-1.46,6.29-1.97
						c0.39-0.09,0.71-0.7,1.09-0.65c2.31,0.31,4.29-1.04,6.51-1.06c3.27-0.03,6.25-1.26,9.39-1.83c0.41-0.07,0.96,0.36,1.11,0.16
						c0.48-0.62,1.25-0.37,1.67-0.84c0.74-0.85,1.73-0.63,2.56-1c0.61-0.27,1.4,0,1.82-0.87c0.06-0.13,0.28-0.16,0.42-0.1
						c1.1,0.46,1.79-0.77,2.8-0.67c1.57-1.25,3.53-1.1,5.28-1.71c0.26-0.09,0.47-0.33,0.71-0.49c0.12-0.08,0.25-0.23,0.38-0.2
						c1.83,0.49,3.35-0.58,5.05-0.73c0.56-0.05,1.15,0.07,1.72,0.03c0.57-0.04,1.08-0.39,1.73,0.03c0.2,0.13,0.5-0.03,0.71-0.15
						c1.18-0.66,2.39,0.28,2.85,2.13c0.16,0.67-0.09,0.77-0.3,1.08c-0.41,0.61-0.86,1.04-1.51,1.14c-0.51,0.08-1.1-0.01-1.39,0.74
						c-0.05,0.13-0.28,0.16-0.42,0.1c-0.99-0.38-1.84,0.31-2.74,0.1c-0.69-0.16-1.24,0.06-1.86,0.07c-0.52,0.01-0.96,0.47-1.59,0
						c-0.21-0.16-0.58,0.47-0.93,0.57c-0.81,0.25-1.62,0.48-2.46,0.58c-2.55,0.32-4.77,1.85-7.31,2.19
						c-1.58,1.24-3.59,0.92-5.27,1.75c-2.02,1-4.22,1.23-6.3,1.95c-0.43,0.15-0.78,0.21-1.22,0.09c-0.29-0.08-0.59-0.16-0.85-0.11
						c-1.02,0.2-2.02,0.51-3.05,0.68c-0.55,0.09-1.06,0.65-1.72-0.01c-0.09-0.09-0.33-0.02-0.42,0.1c-0.71,0.99-1.78,0.74-2.69,1.05
						c-0.35,0.12-0.69,0.17-1.14-0.02c-0.49-0.21-1.14-0.02-1.51,0.36c-0.28,0.29-0.57,0.37-0.87,0.5
						c-1.25,0.57-2.79,0.09-3.84,1.34c-0.87-0.67-1.64-0.2-2.27,0.16c-2.44,1.38-5.19,1.43-7.77,2.2c-0.62,0.18-1.34-0.02-2,0.06
						c-0.69,0.09-1.36,0.27-2.03,0.47c-0.36,0.1-0.84-0.07-0.98,0.6c-0.01,0.05-0.07,0.1-0.11,0.09c-0.41-0.01-0.85-0.14-1.22-0.01
						c-0.33,0.12-0.55,0.6-0.86,0.79c-0.38,0.23-0.81,0.34-1.23,0.45c-0.4,0.11-0.81,0.35-1.26-0.11c-0.16,0.74-0.71,0.52-1.1,0.67
						c-0.37,0.14-0.77,0.19-1.16,0.28l-1.3,0.31c-0.43,0.1-0.89,0.15-1.3,0.32c-0.57,0.23-1.09,0.61-1.67,0.82
						c-0.61,0.22-1.24,0.37-1.88,0.44c-0.8,0.1-1.63,0.07-2.44,0.14c-0.34,0.03-0.57,0.26-0.83,0.57c-0.34,0.41-0.72,1.23-1.47,0.45
						c-0.15-0.15-0.52-0.01-0.7,0.16c-1.45,1.33-3.37,0.95-5,1.61c-1.1-0.47-1.9,0.17-2.83,0.59c-1.36,0.62-2.84,1.08-4.33,1
						c-1.58-0.09-2.97,0.5-4.46,0.68c-0.42,0.05-0.8,0.41-1.3-0.13c-0.11-0.12-0.41-0.01-0.56,0.12c-1.03,0.93-2.22,1.01-3.53,0.88
						c-0.69-0.07-1.34,0.36-1.99,0.76c-0.97,0.61-2.19,0.61-3.3,0.87c-0.66-0.65-0.85,0.21-1.02,0.6c-0.22,0.52-0.51,0.67-0.9,0.77
						c-0.5,0.13-1.03,0.11-1.41,0.72c-0.19,0.31-0.78,0.39-1.11,0.18c-0.45-0.27-0.55-0.07-0.83,0.24c-0.33,0.37-0.91-0.24-1.4-0.09
						c-0.52,0.16-1.05,0.69-1.71,0c-0.06-0.06-0.22-0.01-0.28,0.06c-0.79,1.05-2.05,0.1-2.95,0.69c-3.15-0.22-5.95,1.24-8.97,1.62
						c-1.25,0.15-2.61-0.15-3.73,0.49c-2.34,1.35-4.99,1.41-7.48,2.14c-0.17,0.06-0.34,0.12-0.52,0.19
						c-0.23,0.08-0.47,0.16-0.71,0.22c-0.47,0.11-0.96,0.11-1.31-0.22c-0.1-0.09-0.48,0.01-0.66,0.15
						c-1.42,1.09-2.87,1.19-3.77,0.89c-0.23-0.07-0.79,0.08-1.15,0.36c-1.02,0.8-1.51,0.69-2.07,0.81c-0.73,0.16-1.03-0.27-1.81,0.2
						c-1.75,1.02-1.33,0.24-1.78,0.24c-0.29,0-1.01,0.33-1.61,0.56c-0.28,0.11-1.01,0.53-1.02,0.47c-0.05-0.34-0.84-0.07-1.81,0.28
						c-0.96,0.35-2.1,0.8-2.46,0.74c-0.15-0.03-0.51,0.07-0.6,0.01c-0.31-0.23-0.41-0.41-0.63-0.48c1.53-1.32,1.73-1.68,2.77-3.27
						c1.56-0.98,1.63-1.23,1.7-1.52c0.06-0.28,0.13-0.61,1.3-1.34c0.85-0.53,1.22-1.03,1.2-1.29c-0.05-0.58,0.75-1.52,1.62-2.43
						c0.89-0.93,1.84-1.81,2.51-2.72c0.3-0.4,1.29-0.52,1.12-1.12c-0.04-0.25,1.11-0.66,1.43-1.03c0.24-0.29,0.58-0.53,0.84-0.81
						c0.13-0.14,0.25-0.29,0.33-0.47c0.04-0.09,0.08-0.19,0.1-0.29c0.01-0.08,0-0.17-0.01-0.27c-0.05-0.33,0.41-0.52,0.6-0.81
						c0.26-0.39,0.75-0.57,0.68-1.27c-0.04-0.38,0.36-0.83,0.74-0.87c1.58-0.19,1.64-1.64,2.12-2.71c0.15-0.32,0.23-0.56,0.59-0.72
						c0.5-0.21,1.16-0.51,1.19-1c0.05-0.87,0.66-1.2,1.08-1.71c0.73-0.88,1.57-1.65,2.29-2.55c0.81-1.02,1.88-1.79,2.39-3.11
						c0.27-0.71,0.71-1.57,1.86-1.56c0.13,0-0.02-0.55,0.12-0.71c1.08-1.23,2.17-2.45,3.32-3.62c0.27-0.27,1.17,0,0.9-0.72
						c-0.29-0.76,1.04-0.09,0.6-0.91c-0.06-0.12,0.18-0.36,0.36-0.44c1.97-0.8,2.78-2.74,4.26-4.01c0.36-0.3,0.45-0.93,1.25-0.71
						c0.2-1.42,2.32-1.26,2.14-2.99c0.37-0.24,0.58-0.64,0.84-0.99c0.08-0.1,0.11-0.13,0.25-0.28c0.13-0.14,0.28-0.27,0.42-0.38
						c0.3-0.23,0.63-0.41,0.99-0.48c0.23-0.04,0.44-0.59,0.68-0.66c0.31-0.09,0.45-0.39,0.59-0.76c0.34-0.2,0.76-0.51,1.52-0.05
						c0.35,0.22,0.78,0.28,1.25,0.3c0.23,0,0.48,0.01,0.72,0.01c0.23,0,0.31-0.01,0.46,0.01c0.49,0.05,0.99,0.06,1.49,0.09
						l1.63,0.09c0.54,0.03,1.09,0.11,1.63,0.08c1.11-0.07,2.21-0.54,3.32-0.27c0.12,0.03,0.33-0.06,0.38-0.19
						c0.44-1.11,0.97-0.45,1.33-0.1c0.3,0.29,0.57,0.44,0.91,0.45c0.94,0.04,1.89,0.05,2.82,0.17c0.55,0.07,1.17-0.26,1.66,0.48
						c0.15,0.23,0.6,0.2,0.86,0.06c1.22-0.68,2.42-0.17,3.62-0.22c0.55-0.02,1.09,0.03,1.63,0.09c0.41,0.04,0.85-0.42,1.24,0.06
						c2.06-0.8,4.1-0.09,6.14-0.09c2.03,0.01,4.06,0.17,6.09,0.33c0.51,0.04,1.09-0.29,1.51,0.49c0.08,0.15,0.45,0.16,0.56,0.02
						c0.32-0.39,0.55-0.59,0.86-0.03c0.06,0.1,0.34,0,0.5-0.1c0.43-0.28,0.8-0.22,1.22,0.08c0.32,0.23,0.77,0.39,1.11,0.25
						c0.91-0.38,1.76-0.69,2.6,0.14c0.1,0.1,0.43-0.39,0.63-0.35c0.75,0.14,1.55-0.23,2.28,0.42c0.3,0.26,0.76,0.1,1.14,0.19
						c0.66,0.15,1.31-0.23,1.99,0.05c0.69,0.28,1.48,0.13,2.22,0.17l2.23,0.12l2.23,0.12l2.23,0.12l2.23,0.12l2.23,0.12
						c0.52,0.04,1,0.15,1.5,0.47c1.3,0.84,2.92,0.82,4.94,0.32c0.15-0.04,0.3,0.01,0.45,0.02c1.93,0.11,3.88,0.07,5.79,0.38
						c0.84,0.14,1.67,0.52,2.53,0.51c0.57-0.01,1.11,0.14,1.7-0.3c0.49-0.37,1.11,0.35,1.7-0.33c0.21-0.25,0.74-0.21,1,0.02
						c0.85,0.75,1.79,0.43,2.69,0.54c1.03,0.12,2.08,0.16,3.12,0.17c0.51,0,1.01,0.27,1.56-0.28c0.27-0.27,0.88-0.04,1.24,0.22
						c0.56,0.41,1.14,0.37,1.69,0.24c1.19-0.28,1.18-0.34,2.31,0.15c0.14,0.06,0.28,0.07,0.43,0.08c1.44,0.08,2.89,0.44,4.3,0.15
						c1.18-0.24,2.32-0.2,3.47-0.15c0.46,0.02,1.01-0.29,1.35,0.48c0.05,0.11,0.31,0.11,0.43,0.03c1.01-0.76,2.02-0.27,3.02-0.23
						c0.97,0.04,1.9-0.57,2.88-0.35c0.92,0.21,1.88,0.13,2.82,0.19c1.43,0.08,1.71,0.55,1.6,2.59c-0.1,1.69-0.48,2.04-1.64,2.33
						C349.32,168.19,346.9,167.5,344.91,167.61z"/>
				</g>
			</g>
		</g>
	</g>
</g>
</svg>
